G04 #@! TF.GenerationSoftware,KiCad,Pcbnew,(5.0.2)-1*
G04 #@! TF.CreationDate,2019-02-14T14:33:50+01:00*
G04 #@! TF.ProjectId,Embedded_Spectrum,456d6265-6464-4656-945f-537065637472,rev?*
G04 #@! TF.SameCoordinates,Original*
G04 #@! TF.FileFunction,Soldermask,Bot*
G04 #@! TF.FilePolarity,Negative*
%FSLAX46Y46*%
G04 Gerber Fmt 4.6, Leading zero omitted, Abs format (unit mm)*
G04 Created by KiCad (PCBNEW (5.0.2)-1) date 14/02/2019 14:33:50*
%MOMM*%
%LPD*%
G01*
G04 APERTURE LIST*
%ADD10C,0.100000*%
G04 APERTURE END LIST*
D10*
G36*
X82017331Y-130137214D02*
X82117605Y-130178749D01*
X82207855Y-130239052D01*
X82284598Y-130315795D01*
X82344901Y-130406045D01*
X82386436Y-130506319D01*
X82407610Y-130612770D01*
X82407610Y-130721310D01*
X82386436Y-130827761D01*
X82344901Y-130928035D01*
X82284598Y-131018285D01*
X82207855Y-131095028D01*
X82117605Y-131155331D01*
X82017331Y-131196866D01*
X81910880Y-131218040D01*
X81802340Y-131218040D01*
X81695889Y-131196866D01*
X81595615Y-131155331D01*
X81505365Y-131095028D01*
X81428622Y-131018285D01*
X81368319Y-130928035D01*
X81326784Y-130827761D01*
X81305610Y-130721310D01*
X81305610Y-130612770D01*
X81326784Y-130506319D01*
X81368319Y-130406045D01*
X81428622Y-130315795D01*
X81505365Y-130239052D01*
X81595615Y-130178749D01*
X81695889Y-130137214D01*
X81802340Y-130116040D01*
X81910880Y-130116040D01*
X82017331Y-130137214D01*
X82017331Y-130137214D01*
G37*
G36*
X137217747Y-129540921D02*
X137297376Y-129548764D01*
X137399543Y-129579756D01*
X137450628Y-129595252D01*
X137591865Y-129670745D01*
X137715659Y-129772341D01*
X137817255Y-129896135D01*
X137892748Y-130037372D01*
X137892748Y-130037373D01*
X137939236Y-130190624D01*
X137954933Y-130350000D01*
X137939236Y-130509376D01*
X137908244Y-130611543D01*
X137892748Y-130662628D01*
X137817255Y-130803865D01*
X137715659Y-130927659D01*
X137591865Y-131029255D01*
X137450628Y-131104748D01*
X137399543Y-131120244D01*
X137297376Y-131151236D01*
X137217747Y-131159079D01*
X137177934Y-131163000D01*
X134822066Y-131163000D01*
X134782253Y-131159079D01*
X134702624Y-131151236D01*
X134600457Y-131120244D01*
X134549372Y-131104748D01*
X134408135Y-131029255D01*
X134284341Y-130927659D01*
X134182745Y-130803865D01*
X134107252Y-130662628D01*
X134091756Y-130611543D01*
X134060764Y-130509376D01*
X134045067Y-130350000D01*
X134060764Y-130190624D01*
X134107252Y-130037373D01*
X134107252Y-130037372D01*
X134182745Y-129896135D01*
X134284341Y-129772341D01*
X134408135Y-129670745D01*
X134549372Y-129595252D01*
X134600457Y-129579756D01*
X134702624Y-129548764D01*
X134782253Y-129540921D01*
X134822066Y-129537000D01*
X137177934Y-129537000D01*
X137217747Y-129540921D01*
X137217747Y-129540921D01*
G37*
G36*
X82017331Y-125737214D02*
X82117605Y-125778749D01*
X82207855Y-125839052D01*
X82284598Y-125915795D01*
X82344901Y-126006045D01*
X82386436Y-126106319D01*
X82407610Y-126212770D01*
X82407610Y-126321310D01*
X82386436Y-126427761D01*
X82344901Y-126528035D01*
X82284598Y-126618285D01*
X82207855Y-126695028D01*
X82117605Y-126755331D01*
X82017331Y-126796866D01*
X81910880Y-126818040D01*
X81802340Y-126818040D01*
X81695889Y-126796866D01*
X81595615Y-126755331D01*
X81505365Y-126695028D01*
X81428622Y-126618285D01*
X81368319Y-126528035D01*
X81326784Y-126427761D01*
X81305610Y-126321310D01*
X81305610Y-126212770D01*
X81326784Y-126106319D01*
X81368319Y-126006045D01*
X81428622Y-125915795D01*
X81505365Y-125839052D01*
X81595615Y-125778749D01*
X81695889Y-125737214D01*
X81802340Y-125716040D01*
X81910880Y-125716040D01*
X82017331Y-125737214D01*
X82017331Y-125737214D01*
G37*
G36*
X141459375Y-117410764D02*
X141561542Y-117441756D01*
X141612627Y-117457252D01*
X141688120Y-117497605D01*
X141753863Y-117532745D01*
X141753865Y-117532746D01*
X141753864Y-117532746D01*
X141877659Y-117634341D01*
X141979255Y-117758135D01*
X142054748Y-117899372D01*
X142070244Y-117950457D01*
X142101236Y-118052624D01*
X142113000Y-118172067D01*
X142113000Y-120527933D01*
X142101236Y-120647376D01*
X142070244Y-120749543D01*
X142054748Y-120800628D01*
X141979255Y-120941865D01*
X141877659Y-121065659D01*
X141753865Y-121167255D01*
X141612628Y-121242748D01*
X141561543Y-121258244D01*
X141459376Y-121289236D01*
X141300000Y-121304933D01*
X141140625Y-121289236D01*
X141038458Y-121258244D01*
X140987373Y-121242748D01*
X140846136Y-121167255D01*
X140722342Y-121065659D01*
X140620746Y-120941865D01*
X140545253Y-120800628D01*
X140529757Y-120749543D01*
X140498765Y-120647376D01*
X140487001Y-120527933D01*
X140487000Y-118172068D01*
X140498764Y-118052625D01*
X140545252Y-117899374D01*
X140545252Y-117899373D01*
X140620746Y-117758136D01*
X140645758Y-117727659D01*
X140722341Y-117634341D01*
X140759477Y-117603864D01*
X140846135Y-117532745D01*
X140987372Y-117457252D01*
X141038457Y-117441756D01*
X141140624Y-117410764D01*
X141300000Y-117395067D01*
X141459375Y-117410764D01*
X141459375Y-117410764D01*
G37*
G36*
X137217747Y-116340921D02*
X137297376Y-116348764D01*
X137399543Y-116379756D01*
X137450628Y-116395252D01*
X137591865Y-116470745D01*
X137715659Y-116572341D01*
X137817255Y-116696135D01*
X137892748Y-116837372D01*
X137892748Y-116837373D01*
X137939236Y-116990624D01*
X137954933Y-117150000D01*
X137939236Y-117309376D01*
X137913242Y-117395067D01*
X137892748Y-117462628D01*
X137817255Y-117603865D01*
X137715659Y-117727659D01*
X137591865Y-117829255D01*
X137450628Y-117904748D01*
X137399543Y-117920244D01*
X137297376Y-117951236D01*
X137217747Y-117959079D01*
X137177934Y-117963000D01*
X134822066Y-117963000D01*
X134782253Y-117959079D01*
X134702624Y-117951236D01*
X134600457Y-117920244D01*
X134549372Y-117904748D01*
X134408135Y-117829255D01*
X134284341Y-117727659D01*
X134182745Y-117603865D01*
X134107252Y-117462628D01*
X134086758Y-117395067D01*
X134060764Y-117309376D01*
X134045067Y-117150000D01*
X134060764Y-116990624D01*
X134107252Y-116837373D01*
X134107252Y-116837372D01*
X134182745Y-116696135D01*
X134284341Y-116572341D01*
X134408135Y-116470745D01*
X134549372Y-116395252D01*
X134600457Y-116379756D01*
X134702624Y-116348764D01*
X134782253Y-116340921D01*
X134822066Y-116337000D01*
X137177934Y-116337000D01*
X137217747Y-116340921D01*
X137217747Y-116340921D01*
G37*
G36*
X143401000Y-112401000D02*
X141599000Y-112401000D01*
X141599000Y-110599000D01*
X143401000Y-110599000D01*
X143401000Y-112401000D01*
X143401000Y-112401000D01*
G37*
G36*
X141901000Y-105401000D02*
X140099000Y-105401000D01*
X140099000Y-103599000D01*
X141901000Y-103599000D01*
X141901000Y-105401000D01*
X141901000Y-105401000D01*
G37*
G36*
X141110443Y-101065519D02*
X141176627Y-101072037D01*
X141289853Y-101106384D01*
X141346467Y-101123557D01*
X141485087Y-101197652D01*
X141502991Y-101207222D01*
X141538729Y-101236552D01*
X141640186Y-101319814D01*
X141723448Y-101421271D01*
X141752778Y-101457009D01*
X141752779Y-101457011D01*
X141836443Y-101613533D01*
X141836443Y-101613534D01*
X141887963Y-101783373D01*
X141905359Y-101960000D01*
X141887963Y-102136627D01*
X141853616Y-102249853D01*
X141836443Y-102306467D01*
X141762348Y-102445087D01*
X141752778Y-102462991D01*
X141723448Y-102498729D01*
X141640186Y-102600186D01*
X141538729Y-102683448D01*
X141502991Y-102712778D01*
X141502989Y-102712779D01*
X141346467Y-102796443D01*
X141289853Y-102813616D01*
X141176627Y-102847963D01*
X141110442Y-102854482D01*
X141044260Y-102861000D01*
X140955740Y-102861000D01*
X140889558Y-102854482D01*
X140823373Y-102847963D01*
X140710147Y-102813616D01*
X140653533Y-102796443D01*
X140497011Y-102712779D01*
X140497009Y-102712778D01*
X140461271Y-102683448D01*
X140359814Y-102600186D01*
X140276552Y-102498729D01*
X140247222Y-102462991D01*
X140237652Y-102445087D01*
X140163557Y-102306467D01*
X140146384Y-102249853D01*
X140112037Y-102136627D01*
X140094641Y-101960000D01*
X140112037Y-101783373D01*
X140163557Y-101613534D01*
X140163557Y-101613533D01*
X140247221Y-101457011D01*
X140247222Y-101457009D01*
X140276552Y-101421271D01*
X140359814Y-101319814D01*
X140461271Y-101236552D01*
X140497009Y-101207222D01*
X140514913Y-101197652D01*
X140653533Y-101123557D01*
X140710147Y-101106384D01*
X140823373Y-101072037D01*
X140889557Y-101065519D01*
X140955740Y-101059000D01*
X141044260Y-101059000D01*
X141110443Y-101065519D01*
X141110443Y-101065519D01*
G37*
G36*
X141110442Y-98525518D02*
X141176627Y-98532037D01*
X141289853Y-98566384D01*
X141346467Y-98583557D01*
X141485087Y-98657652D01*
X141502991Y-98667222D01*
X141538729Y-98696552D01*
X141640186Y-98779814D01*
X141723448Y-98881271D01*
X141752778Y-98917009D01*
X141752779Y-98917011D01*
X141836443Y-99073533D01*
X141836443Y-99073534D01*
X141887963Y-99243373D01*
X141905359Y-99420000D01*
X141887963Y-99596627D01*
X141853616Y-99709853D01*
X141836443Y-99766467D01*
X141762348Y-99905087D01*
X141752778Y-99922991D01*
X141723448Y-99958729D01*
X141640186Y-100060186D01*
X141538729Y-100143448D01*
X141502991Y-100172778D01*
X141502989Y-100172779D01*
X141346467Y-100256443D01*
X141289853Y-100273616D01*
X141176627Y-100307963D01*
X141110443Y-100314481D01*
X141044260Y-100321000D01*
X140955740Y-100321000D01*
X140889557Y-100314481D01*
X140823373Y-100307963D01*
X140710147Y-100273616D01*
X140653533Y-100256443D01*
X140497011Y-100172779D01*
X140497009Y-100172778D01*
X140461271Y-100143448D01*
X140359814Y-100060186D01*
X140276552Y-99958729D01*
X140247222Y-99922991D01*
X140237652Y-99905087D01*
X140163557Y-99766467D01*
X140146384Y-99709853D01*
X140112037Y-99596627D01*
X140094641Y-99420000D01*
X140112037Y-99243373D01*
X140163557Y-99073534D01*
X140163557Y-99073533D01*
X140247221Y-98917011D01*
X140247222Y-98917009D01*
X140276552Y-98881271D01*
X140359814Y-98779814D01*
X140461271Y-98696552D01*
X140497009Y-98667222D01*
X140514913Y-98657652D01*
X140653533Y-98583557D01*
X140710147Y-98566384D01*
X140823373Y-98532037D01*
X140889557Y-98525519D01*
X140955740Y-98519000D01*
X141044260Y-98519000D01*
X141110442Y-98525518D01*
X141110442Y-98525518D01*
G37*
G36*
X141110442Y-95985518D02*
X141176627Y-95992037D01*
X141289853Y-96026384D01*
X141346467Y-96043557D01*
X141485087Y-96117652D01*
X141502991Y-96127222D01*
X141538729Y-96156552D01*
X141640186Y-96239814D01*
X141723448Y-96341271D01*
X141752778Y-96377009D01*
X141752779Y-96377011D01*
X141836443Y-96533533D01*
X141836443Y-96533534D01*
X141887963Y-96703373D01*
X141905359Y-96880000D01*
X141887963Y-97056627D01*
X141853616Y-97169853D01*
X141836443Y-97226467D01*
X141762348Y-97365087D01*
X141752778Y-97382991D01*
X141723448Y-97418729D01*
X141640186Y-97520186D01*
X141538729Y-97603448D01*
X141502991Y-97632778D01*
X141502989Y-97632779D01*
X141346467Y-97716443D01*
X141289853Y-97733616D01*
X141176627Y-97767963D01*
X141110442Y-97774482D01*
X141044260Y-97781000D01*
X140955740Y-97781000D01*
X140889557Y-97774481D01*
X140823373Y-97767963D01*
X140710147Y-97733616D01*
X140653533Y-97716443D01*
X140497011Y-97632779D01*
X140497009Y-97632778D01*
X140461271Y-97603448D01*
X140359814Y-97520186D01*
X140276552Y-97418729D01*
X140247222Y-97382991D01*
X140237652Y-97365087D01*
X140163557Y-97226467D01*
X140146384Y-97169853D01*
X140112037Y-97056627D01*
X140094641Y-96880000D01*
X140112037Y-96703373D01*
X140163557Y-96533534D01*
X140163557Y-96533533D01*
X140247221Y-96377011D01*
X140247222Y-96377009D01*
X140276552Y-96341271D01*
X140359814Y-96239814D01*
X140461271Y-96156552D01*
X140497009Y-96127222D01*
X140514913Y-96117652D01*
X140653533Y-96043557D01*
X140710147Y-96026384D01*
X140823373Y-95992037D01*
X140889558Y-95985518D01*
X140955740Y-95979000D01*
X141044260Y-95979000D01*
X141110442Y-95985518D01*
X141110442Y-95985518D01*
G37*
G36*
X141110443Y-93445519D02*
X141176627Y-93452037D01*
X141289853Y-93486384D01*
X141346467Y-93503557D01*
X141485087Y-93577652D01*
X141502991Y-93587222D01*
X141538729Y-93616552D01*
X141640186Y-93699814D01*
X141723448Y-93801271D01*
X141752778Y-93837009D01*
X141752779Y-93837011D01*
X141836443Y-93993533D01*
X141836443Y-93993534D01*
X141887963Y-94163373D01*
X141905359Y-94340000D01*
X141887963Y-94516627D01*
X141853616Y-94629853D01*
X141836443Y-94686467D01*
X141762348Y-94825087D01*
X141752778Y-94842991D01*
X141723448Y-94878729D01*
X141640186Y-94980186D01*
X141538729Y-95063448D01*
X141502991Y-95092778D01*
X141502989Y-95092779D01*
X141346467Y-95176443D01*
X141289853Y-95193616D01*
X141176627Y-95227963D01*
X141110442Y-95234482D01*
X141044260Y-95241000D01*
X140955740Y-95241000D01*
X140889558Y-95234482D01*
X140823373Y-95227963D01*
X140710147Y-95193616D01*
X140653533Y-95176443D01*
X140497011Y-95092779D01*
X140497009Y-95092778D01*
X140461271Y-95063448D01*
X140359814Y-94980186D01*
X140276552Y-94878729D01*
X140247222Y-94842991D01*
X140237652Y-94825087D01*
X140163557Y-94686467D01*
X140146384Y-94629853D01*
X140112037Y-94516627D01*
X140094641Y-94340000D01*
X140112037Y-94163373D01*
X140163557Y-93993534D01*
X140163557Y-93993533D01*
X140247221Y-93837011D01*
X140247222Y-93837009D01*
X140276552Y-93801271D01*
X140359814Y-93699814D01*
X140461271Y-93616552D01*
X140497009Y-93587222D01*
X140514913Y-93577652D01*
X140653533Y-93503557D01*
X140710147Y-93486384D01*
X140823373Y-93452037D01*
X140889557Y-93445519D01*
X140955740Y-93439000D01*
X141044260Y-93439000D01*
X141110443Y-93445519D01*
X141110443Y-93445519D01*
G37*
G36*
X141110443Y-90905519D02*
X141176627Y-90912037D01*
X141289853Y-90946384D01*
X141346467Y-90963557D01*
X141485087Y-91037652D01*
X141502991Y-91047222D01*
X141538729Y-91076552D01*
X141640186Y-91159814D01*
X141723448Y-91261271D01*
X141752778Y-91297009D01*
X141752779Y-91297011D01*
X141836443Y-91453533D01*
X141836443Y-91453534D01*
X141887963Y-91623373D01*
X141905359Y-91800000D01*
X141887963Y-91976627D01*
X141853616Y-92089853D01*
X141836443Y-92146467D01*
X141762348Y-92285087D01*
X141752778Y-92302991D01*
X141723448Y-92338729D01*
X141640186Y-92440186D01*
X141538729Y-92523448D01*
X141502991Y-92552778D01*
X141502989Y-92552779D01*
X141346467Y-92636443D01*
X141289853Y-92653616D01*
X141176627Y-92687963D01*
X141110442Y-92694482D01*
X141044260Y-92701000D01*
X140955740Y-92701000D01*
X140889558Y-92694482D01*
X140823373Y-92687963D01*
X140710147Y-92653616D01*
X140653533Y-92636443D01*
X140497011Y-92552779D01*
X140497009Y-92552778D01*
X140461271Y-92523448D01*
X140359814Y-92440186D01*
X140276552Y-92338729D01*
X140247222Y-92302991D01*
X140237652Y-92285087D01*
X140163557Y-92146467D01*
X140146384Y-92089853D01*
X140112037Y-91976627D01*
X140094641Y-91800000D01*
X140112037Y-91623373D01*
X140163557Y-91453534D01*
X140163557Y-91453533D01*
X140247221Y-91297011D01*
X140247222Y-91297009D01*
X140276552Y-91261271D01*
X140359814Y-91159814D01*
X140461271Y-91076552D01*
X140497009Y-91047222D01*
X140514913Y-91037652D01*
X140653533Y-90963557D01*
X140710147Y-90946384D01*
X140823373Y-90912037D01*
X140889557Y-90905519D01*
X140955740Y-90899000D01*
X141044260Y-90899000D01*
X141110443Y-90905519D01*
X141110443Y-90905519D01*
G37*
G36*
X141110442Y-88365518D02*
X141176627Y-88372037D01*
X141289853Y-88406384D01*
X141346467Y-88423557D01*
X141485087Y-88497652D01*
X141502991Y-88507222D01*
X141507119Y-88510610D01*
X141640186Y-88619814D01*
X141700604Y-88693435D01*
X141752778Y-88757009D01*
X141752779Y-88757011D01*
X141836443Y-88913533D01*
X141836443Y-88913534D01*
X141887963Y-89083373D01*
X141905359Y-89260000D01*
X141887963Y-89436627D01*
X141869396Y-89497834D01*
X141836443Y-89606467D01*
X141802498Y-89669973D01*
X141752778Y-89762991D01*
X141723448Y-89798729D01*
X141640186Y-89900186D01*
X141538729Y-89983448D01*
X141502991Y-90012778D01*
X141502989Y-90012779D01*
X141346467Y-90096443D01*
X141289853Y-90113616D01*
X141176627Y-90147963D01*
X141110442Y-90154482D01*
X141044260Y-90161000D01*
X140955740Y-90161000D01*
X140889558Y-90154482D01*
X140823373Y-90147963D01*
X140710147Y-90113616D01*
X140653533Y-90096443D01*
X140497011Y-90012779D01*
X140497009Y-90012778D01*
X140461271Y-89983448D01*
X140359814Y-89900186D01*
X140276552Y-89798729D01*
X140247222Y-89762991D01*
X140197502Y-89669973D01*
X140163557Y-89606467D01*
X140130604Y-89497834D01*
X140112037Y-89436627D01*
X140094641Y-89260000D01*
X140112037Y-89083373D01*
X140163557Y-88913534D01*
X140163557Y-88913533D01*
X140247221Y-88757011D01*
X140247222Y-88757009D01*
X140299396Y-88693435D01*
X140359814Y-88619814D01*
X140492881Y-88510610D01*
X140497009Y-88507222D01*
X140514913Y-88497652D01*
X140653533Y-88423557D01*
X140710147Y-88406384D01*
X140823373Y-88372037D01*
X140889558Y-88365518D01*
X140955740Y-88359000D01*
X141044260Y-88359000D01*
X141110442Y-88365518D01*
X141110442Y-88365518D01*
G37*
G36*
X129306565Y-87989389D02*
X129497834Y-88068615D01*
X129669976Y-88183637D01*
X129816363Y-88330024D01*
X129931385Y-88502166D01*
X130010611Y-88693435D01*
X130051000Y-88896484D01*
X130051000Y-89103516D01*
X130010611Y-89306565D01*
X129931385Y-89497834D01*
X129816363Y-89669976D01*
X129669976Y-89816363D01*
X129497834Y-89931385D01*
X129306565Y-90010611D01*
X129103516Y-90051000D01*
X128896484Y-90051000D01*
X128693435Y-90010611D01*
X128502166Y-89931385D01*
X128330024Y-89816363D01*
X128183637Y-89669976D01*
X128068615Y-89497834D01*
X127989389Y-89306565D01*
X127949000Y-89103516D01*
X127949000Y-88896484D01*
X127989389Y-88693435D01*
X128068615Y-88502166D01*
X128183637Y-88330024D01*
X128330024Y-88183637D01*
X128502166Y-88068615D01*
X128693435Y-87989389D01*
X128896484Y-87949000D01*
X129103516Y-87949000D01*
X129306565Y-87989389D01*
X129306565Y-87989389D01*
G37*
G36*
X122806565Y-87989389D02*
X122997834Y-88068615D01*
X123169976Y-88183637D01*
X123316363Y-88330024D01*
X123431385Y-88502166D01*
X123510611Y-88693435D01*
X123551000Y-88896484D01*
X123551000Y-89103516D01*
X123510611Y-89306565D01*
X123431385Y-89497834D01*
X123316363Y-89669976D01*
X123169976Y-89816363D01*
X122997834Y-89931385D01*
X122806565Y-90010611D01*
X122603516Y-90051000D01*
X122396484Y-90051000D01*
X122193435Y-90010611D01*
X122002166Y-89931385D01*
X121830024Y-89816363D01*
X121683637Y-89669976D01*
X121568615Y-89497834D01*
X121489389Y-89306565D01*
X121449000Y-89103516D01*
X121449000Y-88896484D01*
X121489389Y-88693435D01*
X121568615Y-88502166D01*
X121683637Y-88330024D01*
X121830024Y-88183637D01*
X122002166Y-88068615D01*
X122193435Y-87989389D01*
X122396484Y-87949000D01*
X122603516Y-87949000D01*
X122806565Y-87989389D01*
X122806565Y-87989389D01*
G37*
G36*
X106306565Y-86489389D02*
X106497834Y-86568615D01*
X106669976Y-86683637D01*
X106816363Y-86830024D01*
X106931385Y-87002166D01*
X107010611Y-87193435D01*
X107051000Y-87396484D01*
X107051000Y-87603516D01*
X107010611Y-87806565D01*
X106931385Y-87997834D01*
X106816363Y-88169976D01*
X106669976Y-88316363D01*
X106497834Y-88431385D01*
X106306565Y-88510611D01*
X106103516Y-88551000D01*
X105896484Y-88551000D01*
X105693435Y-88510611D01*
X105502166Y-88431385D01*
X105330024Y-88316363D01*
X105183637Y-88169976D01*
X105068615Y-87997834D01*
X104989389Y-87806565D01*
X104949000Y-87603516D01*
X104949000Y-87396484D01*
X104989389Y-87193435D01*
X105068615Y-87002166D01*
X105183637Y-86830024D01*
X105330024Y-86683637D01*
X105502166Y-86568615D01*
X105693435Y-86489389D01*
X105896484Y-86449000D01*
X106103516Y-86449000D01*
X106306565Y-86489389D01*
X106306565Y-86489389D01*
G37*
G36*
X101806565Y-86489389D02*
X101997834Y-86568615D01*
X102169976Y-86683637D01*
X102316363Y-86830024D01*
X102431385Y-87002166D01*
X102510611Y-87193435D01*
X102551000Y-87396484D01*
X102551000Y-87603516D01*
X102510611Y-87806565D01*
X102431385Y-87997834D01*
X102316363Y-88169976D01*
X102169976Y-88316363D01*
X101997834Y-88431385D01*
X101806565Y-88510611D01*
X101603516Y-88551000D01*
X101396484Y-88551000D01*
X101193435Y-88510611D01*
X101002166Y-88431385D01*
X100830024Y-88316363D01*
X100683637Y-88169976D01*
X100568615Y-87997834D01*
X100489389Y-87806565D01*
X100449000Y-87603516D01*
X100449000Y-87396484D01*
X100489389Y-87193435D01*
X100568615Y-87002166D01*
X100683637Y-86830024D01*
X100830024Y-86683637D01*
X101002166Y-86568615D01*
X101193435Y-86489389D01*
X101396484Y-86449000D01*
X101603516Y-86449000D01*
X101806565Y-86489389D01*
X101806565Y-86489389D01*
G37*
G36*
X122806565Y-83489389D02*
X122997834Y-83568615D01*
X123169976Y-83683637D01*
X123316363Y-83830024D01*
X123431385Y-84002166D01*
X123510611Y-84193435D01*
X123551000Y-84396484D01*
X123551000Y-84603516D01*
X123510611Y-84806565D01*
X123431385Y-84997834D01*
X123316363Y-85169976D01*
X123169976Y-85316363D01*
X122997834Y-85431385D01*
X122806565Y-85510611D01*
X122603516Y-85551000D01*
X122396484Y-85551000D01*
X122193435Y-85510611D01*
X122002166Y-85431385D01*
X121830024Y-85316363D01*
X121683637Y-85169976D01*
X121568615Y-84997834D01*
X121489389Y-84806565D01*
X121449000Y-84603516D01*
X121449000Y-84396484D01*
X121489389Y-84193435D01*
X121568615Y-84002166D01*
X121683637Y-83830024D01*
X121830024Y-83683637D01*
X122002166Y-83568615D01*
X122193435Y-83489389D01*
X122396484Y-83449000D01*
X122603516Y-83449000D01*
X122806565Y-83489389D01*
X122806565Y-83489389D01*
G37*
G36*
X129306565Y-83489389D02*
X129497834Y-83568615D01*
X129669976Y-83683637D01*
X129816363Y-83830024D01*
X129931385Y-84002166D01*
X130010611Y-84193435D01*
X130051000Y-84396484D01*
X130051000Y-84603516D01*
X130010611Y-84806565D01*
X129931385Y-84997834D01*
X129816363Y-85169976D01*
X129669976Y-85316363D01*
X129497834Y-85431385D01*
X129306565Y-85510611D01*
X129103516Y-85551000D01*
X128896484Y-85551000D01*
X128693435Y-85510611D01*
X128502166Y-85431385D01*
X128330024Y-85316363D01*
X128183637Y-85169976D01*
X128068615Y-84997834D01*
X127989389Y-84806565D01*
X127949000Y-84603516D01*
X127949000Y-84396484D01*
X127989389Y-84193435D01*
X128068615Y-84002166D01*
X128183637Y-83830024D01*
X128330024Y-83683637D01*
X128502166Y-83568615D01*
X128693435Y-83489389D01*
X128896484Y-83449000D01*
X129103516Y-83449000D01*
X129306565Y-83489389D01*
X129306565Y-83489389D01*
G37*
G36*
X101806565Y-79989389D02*
X101997834Y-80068615D01*
X102169976Y-80183637D01*
X102316363Y-80330024D01*
X102431385Y-80502166D01*
X102510611Y-80693435D01*
X102551000Y-80896484D01*
X102551000Y-81103516D01*
X102510611Y-81306565D01*
X102431385Y-81497834D01*
X102316363Y-81669976D01*
X102169976Y-81816363D01*
X101997834Y-81931385D01*
X101806565Y-82010611D01*
X101603516Y-82051000D01*
X101396484Y-82051000D01*
X101193435Y-82010611D01*
X101002166Y-81931385D01*
X100830024Y-81816363D01*
X100683637Y-81669976D01*
X100568615Y-81497834D01*
X100489389Y-81306565D01*
X100449000Y-81103516D01*
X100449000Y-80896484D01*
X100489389Y-80693435D01*
X100568615Y-80502166D01*
X100683637Y-80330024D01*
X100830024Y-80183637D01*
X101002166Y-80068615D01*
X101193435Y-79989389D01*
X101396484Y-79949000D01*
X101603516Y-79949000D01*
X101806565Y-79989389D01*
X101806565Y-79989389D01*
G37*
G36*
X106306565Y-79989389D02*
X106497834Y-80068615D01*
X106669976Y-80183637D01*
X106816363Y-80330024D01*
X106931385Y-80502166D01*
X107010611Y-80693435D01*
X107051000Y-80896484D01*
X107051000Y-81103516D01*
X107010611Y-81306565D01*
X106931385Y-81497834D01*
X106816363Y-81669976D01*
X106669976Y-81816363D01*
X106497834Y-81931385D01*
X106306565Y-82010611D01*
X106103516Y-82051000D01*
X105896484Y-82051000D01*
X105693435Y-82010611D01*
X105502166Y-81931385D01*
X105330024Y-81816363D01*
X105183637Y-81669976D01*
X105068615Y-81497834D01*
X104989389Y-81306565D01*
X104949000Y-81103516D01*
X104949000Y-80896484D01*
X104989389Y-80693435D01*
X105068615Y-80502166D01*
X105183637Y-80330024D01*
X105330024Y-80183637D01*
X105502166Y-80068615D01*
X105693435Y-79989389D01*
X105896484Y-79949000D01*
X106103516Y-79949000D01*
X106306565Y-79989389D01*
X106306565Y-79989389D01*
G37*
G36*
X108910442Y-76605518D02*
X108976627Y-76612037D01*
X109089853Y-76646384D01*
X109146467Y-76663557D01*
X109285087Y-76737652D01*
X109302991Y-76747222D01*
X109338729Y-76776552D01*
X109440186Y-76859814D01*
X109523448Y-76961271D01*
X109552778Y-76997009D01*
X109552779Y-76997011D01*
X109636443Y-77153533D01*
X109636443Y-77153534D01*
X109687963Y-77323373D01*
X109705359Y-77500000D01*
X109687963Y-77676627D01*
X109653616Y-77789853D01*
X109636443Y-77846467D01*
X109562348Y-77985087D01*
X109552778Y-78002991D01*
X109523448Y-78038729D01*
X109440186Y-78140186D01*
X109338729Y-78223448D01*
X109302991Y-78252778D01*
X109302989Y-78252779D01*
X109146467Y-78336443D01*
X109089853Y-78353616D01*
X108976627Y-78387963D01*
X108910443Y-78394481D01*
X108844260Y-78401000D01*
X108755740Y-78401000D01*
X108689557Y-78394481D01*
X108623373Y-78387963D01*
X108510147Y-78353616D01*
X108453533Y-78336443D01*
X108297011Y-78252779D01*
X108297009Y-78252778D01*
X108261271Y-78223448D01*
X108159814Y-78140186D01*
X108076552Y-78038729D01*
X108047222Y-78002991D01*
X108037652Y-77985087D01*
X107963557Y-77846467D01*
X107946384Y-77789853D01*
X107912037Y-77676627D01*
X107894641Y-77500000D01*
X107912037Y-77323373D01*
X107963557Y-77153534D01*
X107963557Y-77153533D01*
X108047221Y-76997011D01*
X108047222Y-76997009D01*
X108076552Y-76961271D01*
X108159814Y-76859814D01*
X108261271Y-76776552D01*
X108297009Y-76747222D01*
X108314913Y-76737652D01*
X108453533Y-76663557D01*
X108510147Y-76646384D01*
X108623373Y-76612037D01*
X108689558Y-76605518D01*
X108755740Y-76599000D01*
X108844260Y-76599000D01*
X108910442Y-76605518D01*
X108910442Y-76605518D01*
G37*
G36*
X122401000Y-78401000D02*
X120599000Y-78401000D01*
X120599000Y-76599000D01*
X122401000Y-76599000D01*
X122401000Y-78401000D01*
X122401000Y-78401000D01*
G37*
G36*
X119070442Y-76605518D02*
X119136627Y-76612037D01*
X119249853Y-76646384D01*
X119306467Y-76663557D01*
X119445087Y-76737652D01*
X119462991Y-76747222D01*
X119498729Y-76776552D01*
X119600186Y-76859814D01*
X119683448Y-76961271D01*
X119712778Y-76997009D01*
X119712779Y-76997011D01*
X119796443Y-77153533D01*
X119796443Y-77153534D01*
X119847963Y-77323373D01*
X119865359Y-77500000D01*
X119847963Y-77676627D01*
X119813616Y-77789853D01*
X119796443Y-77846467D01*
X119722348Y-77985087D01*
X119712778Y-78002991D01*
X119683448Y-78038729D01*
X119600186Y-78140186D01*
X119498729Y-78223448D01*
X119462991Y-78252778D01*
X119462989Y-78252779D01*
X119306467Y-78336443D01*
X119249853Y-78353616D01*
X119136627Y-78387963D01*
X119070443Y-78394481D01*
X119004260Y-78401000D01*
X118915740Y-78401000D01*
X118849557Y-78394481D01*
X118783373Y-78387963D01*
X118670147Y-78353616D01*
X118613533Y-78336443D01*
X118457011Y-78252779D01*
X118457009Y-78252778D01*
X118421271Y-78223448D01*
X118319814Y-78140186D01*
X118236552Y-78038729D01*
X118207222Y-78002991D01*
X118197652Y-77985087D01*
X118123557Y-77846467D01*
X118106384Y-77789853D01*
X118072037Y-77676627D01*
X118054641Y-77500000D01*
X118072037Y-77323373D01*
X118123557Y-77153534D01*
X118123557Y-77153533D01*
X118207221Y-76997011D01*
X118207222Y-76997009D01*
X118236552Y-76961271D01*
X118319814Y-76859814D01*
X118421271Y-76776552D01*
X118457009Y-76747222D01*
X118474913Y-76737652D01*
X118613533Y-76663557D01*
X118670147Y-76646384D01*
X118783373Y-76612037D01*
X118849558Y-76605518D01*
X118915740Y-76599000D01*
X119004260Y-76599000D01*
X119070442Y-76605518D01*
X119070442Y-76605518D01*
G37*
G36*
X111450442Y-76605518D02*
X111516627Y-76612037D01*
X111629853Y-76646384D01*
X111686467Y-76663557D01*
X111825087Y-76737652D01*
X111842991Y-76747222D01*
X111878729Y-76776552D01*
X111980186Y-76859814D01*
X112063448Y-76961271D01*
X112092778Y-76997009D01*
X112092779Y-76997011D01*
X112176443Y-77153533D01*
X112176443Y-77153534D01*
X112227963Y-77323373D01*
X112245359Y-77500000D01*
X112227963Y-77676627D01*
X112193616Y-77789853D01*
X112176443Y-77846467D01*
X112102348Y-77985087D01*
X112092778Y-78002991D01*
X112063448Y-78038729D01*
X111980186Y-78140186D01*
X111878729Y-78223448D01*
X111842991Y-78252778D01*
X111842989Y-78252779D01*
X111686467Y-78336443D01*
X111629853Y-78353616D01*
X111516627Y-78387963D01*
X111450443Y-78394481D01*
X111384260Y-78401000D01*
X111295740Y-78401000D01*
X111229557Y-78394481D01*
X111163373Y-78387963D01*
X111050147Y-78353616D01*
X110993533Y-78336443D01*
X110837011Y-78252779D01*
X110837009Y-78252778D01*
X110801271Y-78223448D01*
X110699814Y-78140186D01*
X110616552Y-78038729D01*
X110587222Y-78002991D01*
X110577652Y-77985087D01*
X110503557Y-77846467D01*
X110486384Y-77789853D01*
X110452037Y-77676627D01*
X110434641Y-77500000D01*
X110452037Y-77323373D01*
X110503557Y-77153534D01*
X110503557Y-77153533D01*
X110587221Y-76997011D01*
X110587222Y-76997009D01*
X110616552Y-76961271D01*
X110699814Y-76859814D01*
X110801271Y-76776552D01*
X110837009Y-76747222D01*
X110854913Y-76737652D01*
X110993533Y-76663557D01*
X111050147Y-76646384D01*
X111163373Y-76612037D01*
X111229558Y-76605518D01*
X111295740Y-76599000D01*
X111384260Y-76599000D01*
X111450442Y-76605518D01*
X111450442Y-76605518D01*
G37*
G36*
X113990442Y-76605518D02*
X114056627Y-76612037D01*
X114169853Y-76646384D01*
X114226467Y-76663557D01*
X114365087Y-76737652D01*
X114382991Y-76747222D01*
X114418729Y-76776552D01*
X114520186Y-76859814D01*
X114603448Y-76961271D01*
X114632778Y-76997009D01*
X114632779Y-76997011D01*
X114716443Y-77153533D01*
X114716443Y-77153534D01*
X114767963Y-77323373D01*
X114785359Y-77500000D01*
X114767963Y-77676627D01*
X114733616Y-77789853D01*
X114716443Y-77846467D01*
X114642348Y-77985087D01*
X114632778Y-78002991D01*
X114603448Y-78038729D01*
X114520186Y-78140186D01*
X114418729Y-78223448D01*
X114382991Y-78252778D01*
X114382989Y-78252779D01*
X114226467Y-78336443D01*
X114169853Y-78353616D01*
X114056627Y-78387963D01*
X113990443Y-78394481D01*
X113924260Y-78401000D01*
X113835740Y-78401000D01*
X113769557Y-78394481D01*
X113703373Y-78387963D01*
X113590147Y-78353616D01*
X113533533Y-78336443D01*
X113377011Y-78252779D01*
X113377009Y-78252778D01*
X113341271Y-78223448D01*
X113239814Y-78140186D01*
X113156552Y-78038729D01*
X113127222Y-78002991D01*
X113117652Y-77985087D01*
X113043557Y-77846467D01*
X113026384Y-77789853D01*
X112992037Y-77676627D01*
X112974641Y-77500000D01*
X112992037Y-77323373D01*
X113043557Y-77153534D01*
X113043557Y-77153533D01*
X113127221Y-76997011D01*
X113127222Y-76997009D01*
X113156552Y-76961271D01*
X113239814Y-76859814D01*
X113341271Y-76776552D01*
X113377009Y-76747222D01*
X113394913Y-76737652D01*
X113533533Y-76663557D01*
X113590147Y-76646384D01*
X113703373Y-76612037D01*
X113769558Y-76605518D01*
X113835740Y-76599000D01*
X113924260Y-76599000D01*
X113990442Y-76605518D01*
X113990442Y-76605518D01*
G37*
G36*
X116530442Y-76605518D02*
X116596627Y-76612037D01*
X116709853Y-76646384D01*
X116766467Y-76663557D01*
X116905087Y-76737652D01*
X116922991Y-76747222D01*
X116958729Y-76776552D01*
X117060186Y-76859814D01*
X117143448Y-76961271D01*
X117172778Y-76997009D01*
X117172779Y-76997011D01*
X117256443Y-77153533D01*
X117256443Y-77153534D01*
X117307963Y-77323373D01*
X117325359Y-77500000D01*
X117307963Y-77676627D01*
X117273616Y-77789853D01*
X117256443Y-77846467D01*
X117182348Y-77985087D01*
X117172778Y-78002991D01*
X117143448Y-78038729D01*
X117060186Y-78140186D01*
X116958729Y-78223448D01*
X116922991Y-78252778D01*
X116922989Y-78252779D01*
X116766467Y-78336443D01*
X116709853Y-78353616D01*
X116596627Y-78387963D01*
X116530443Y-78394481D01*
X116464260Y-78401000D01*
X116375740Y-78401000D01*
X116309557Y-78394481D01*
X116243373Y-78387963D01*
X116130147Y-78353616D01*
X116073533Y-78336443D01*
X115917011Y-78252779D01*
X115917009Y-78252778D01*
X115881271Y-78223448D01*
X115779814Y-78140186D01*
X115696552Y-78038729D01*
X115667222Y-78002991D01*
X115657652Y-77985087D01*
X115583557Y-77846467D01*
X115566384Y-77789853D01*
X115532037Y-77676627D01*
X115514641Y-77500000D01*
X115532037Y-77323373D01*
X115583557Y-77153534D01*
X115583557Y-77153533D01*
X115667221Y-76997011D01*
X115667222Y-76997009D01*
X115696552Y-76961271D01*
X115779814Y-76859814D01*
X115881271Y-76776552D01*
X115917009Y-76747222D01*
X115934913Y-76737652D01*
X116073533Y-76663557D01*
X116130147Y-76646384D01*
X116243373Y-76612037D01*
X116309558Y-76605518D01*
X116375740Y-76599000D01*
X116464260Y-76599000D01*
X116530442Y-76605518D01*
X116530442Y-76605518D01*
G37*
M02*
