M48
;DRILL file {KiCad (5.0.2)-1} date 14/02/2019 14:33:40
;FORMAT={-:-/ absolute / metric / decimal}
FMAT,2
METRIC,TZ
T1C0.400
T2C0.900
T3C1.000
T4C1.100
%
G90
G05
T1
X76.Y-128.5
X79.Y-109.5
X79.5Y-86.5
X79.5Y-98.
X80.Y-74.5
X83.5Y-116.5
X89.5Y-93.
X89.5Y-111.5
X91.Y-79.5
X91.Y-120.5
X93.Y-125.5
X93.Y-136.
X97.Y-113.
X98.5Y-96.5
X99.Y-108.5
X99.5Y-73.5
X104.Y-92.
X105.Y-98.
X105.Y-113.
X105.5Y-106.
X106.5Y-134.5
X107.5Y-93.
X109.5Y-91.05
X111.5Y-90.
X112.Y-101.
X113.5Y-129.5
X114.Y-88.
X114.Y-109.5
X117.5Y-94.5
X118.Y-71.5
X119.Y-106.
X121.Y-106.
X121.5Y-82.
X125.Y-108.5
X127.Y-134.
X128.Y-102.
X128.Y-123.
X129.Y-116.5
X132.Y-108.5
X132.5Y-93.5
X136.Y-124.5
X137.Y-82.5
X137.5Y-73.5
X138.5Y-106.
X145.Y-78.
X146.Y-108.
X146.5Y-120.5
X147.Y-86.
X147.5Y-133.5
X148.Y-96.5
T3
X141.Y-89.26
X141.Y-91.8
X141.Y-94.34
X141.Y-96.88
X141.Y-99.42
X141.Y-101.96
X141.Y-104.5
X108.8Y-77.5
X111.34Y-77.5
X113.88Y-77.5
X116.42Y-77.5
X118.96Y-77.5
X121.5Y-77.5
X142.5Y-111.5
T4
X122.5Y-84.5
X122.5Y-89.
X129.Y-84.5
X129.Y-89.
X101.5Y-81.
X101.5Y-87.5
X106.Y-81.
X106.Y-87.5
T2
X137.1Y-117.15G85X134.9Y-117.15
G05
X137.1Y-130.35G85X134.9Y-130.35
G05
X141.3Y-120.45G85X141.3Y-118.25
G05
T0
M30
