M48
;DRILL file {KiCad (5.0.2)-1} date 14/02/2019 14:41:02
;FORMAT={-:-/ absolute / metric / decimal}
FMAT,2
METRIC,TZ
T1C0.400
T2C0.800
T3C0.900
T4C1.000
%
G90
G05
T1
X128.5Y-148.5
X129.Y-153.
T2
X136.014Y-141.261
X136.014Y-148.881
X138.554Y-141.261
X138.554Y-148.881
X141.094Y-141.261
X141.094Y-148.881
X143.634Y-141.261
X143.634Y-148.881
X146.174Y-141.261
X146.174Y-148.881
X148.714Y-141.261
X148.714Y-148.881
X151.254Y-141.261
X151.254Y-148.881
X153.794Y-141.261
X153.794Y-148.881
X110.137Y-138.886
X110.137Y-146.506
X112.677Y-138.886
X112.677Y-146.506
X115.217Y-138.886
X115.217Y-146.506
X117.757Y-138.886
X117.757Y-146.506
X120.297Y-138.886
X120.297Y-146.506
X122.837Y-138.886
X122.837Y-146.506
X125.377Y-138.886
X125.377Y-146.506
X127.917Y-138.886
X127.917Y-146.506
T3
X141.341Y-122.178
X141.341Y-124.718
X141.341Y-115.178
X141.341Y-117.718
X106.341Y-80.178
X106.341Y-82.718
X134.341Y-101.178
X134.341Y-103.718
X127.341Y-73.178
X127.341Y-75.718
X120.341Y-101.178
X120.341Y-103.718
X113.341Y-87.178
X113.341Y-89.718
X148.341Y-94.178
X148.341Y-96.718
X148.341Y-80.178
X148.341Y-82.718
X127.341Y-115.178
X127.341Y-117.718
X148.341Y-122.178
X148.341Y-124.718
X106.341Y-87.178
X106.341Y-89.718
X155.341Y-87.178
X155.341Y-89.718
X106.341Y-108.178
X106.341Y-110.718
X127.341Y-87.178
X127.341Y-89.718
X113.341Y-115.178
X113.341Y-117.718
X148.341Y-87.178
X148.341Y-89.718
X141.341Y-80.178
X141.341Y-82.718
X134.341Y-108.178
X134.341Y-110.718
X127.341Y-101.178
X127.341Y-103.718
X127.341Y-122.178
X127.341Y-124.718
X155.341Y-101.178
X155.341Y-103.718
X113.341Y-94.178
X113.341Y-96.718
X155.341Y-122.178
X155.341Y-124.718
X113.341Y-80.178
X113.341Y-82.718
X113.341Y-108.178
X113.341Y-110.718
X120.341Y-108.178
X120.341Y-110.718
X134.341Y-115.178
X134.341Y-117.718
X148.341Y-73.178
X148.341Y-75.718
X127.341Y-108.178
X127.341Y-110.718
X134.341Y-87.178
X134.341Y-89.718
X134.341Y-73.178
X134.341Y-75.718
X106.341Y-73.178
X106.341Y-75.718
X127.341Y-94.178
X127.341Y-96.718
X155.341Y-115.178
X155.341Y-117.718
X127.341Y-80.178
X127.341Y-82.718
X155.341Y-73.178
X155.341Y-75.718
X141.341Y-73.178
X141.341Y-75.718
X120.341Y-122.178
X120.341Y-124.718
X134.341Y-80.178
X134.341Y-82.718
X106.341Y-115.178
X106.341Y-117.718
X148.341Y-115.178
X148.341Y-117.718
X106.341Y-94.178
X106.341Y-96.718
X155.341Y-94.178
X155.341Y-96.718
X120.341Y-80.178
X120.341Y-82.718
X155.341Y-80.178
X155.341Y-82.718
X141.341Y-101.178
X141.341Y-103.718
X141.341Y-94.178
X141.341Y-96.718
X120.341Y-73.178
X120.341Y-75.718
X148.341Y-101.178
X148.341Y-103.718
X106.341Y-101.178
X106.341Y-103.718
X113.341Y-101.178
X113.341Y-103.718
X120.341Y-115.178
X120.341Y-117.718
X113.341Y-122.178
X113.341Y-124.718
X148.341Y-108.178
X148.341Y-110.718
X141.341Y-87.178
X141.341Y-89.718
X141.341Y-108.178
X141.341Y-110.718
X120.341Y-87.178
X120.341Y-89.718
X120.341Y-94.178
X120.341Y-96.718
X113.341Y-73.178
X113.341Y-75.718
X134.341Y-94.178
X134.341Y-96.718
X155.434Y-108.178
X155.434Y-110.718
X106.341Y-122.178
X106.341Y-124.718
X134.341Y-122.178
X134.341Y-124.718
T4
X111.297Y-155.886
X113.837Y-155.886
X116.377Y-155.886
X118.917Y-155.886
X121.457Y-155.886
X123.997Y-155.886
X126.537Y-155.886
X134.314Y-133.881
X136.854Y-133.881
X139.394Y-133.881
X141.934Y-133.881
X144.474Y-133.881
X147.014Y-133.881
X149.554Y-133.881
T0
M30
