G04 #@! TF.GenerationSoftware,KiCad,Pcbnew,(5.0.2)-1*
G04 #@! TF.CreationDate,2019-02-14T14:41:14+01:00*
G04 #@! TF.ProjectId,Embedded_matrix,456d6265-6464-4656-945f-6d6174726978,rev?*
G04 #@! TF.SameCoordinates,Original*
G04 #@! TF.FileFunction,Copper,L2,Bot*
G04 #@! TF.FilePolarity,Positive*
%FSLAX46Y46*%
G04 Gerber Fmt 4.6, Leading zero omitted, Abs format (unit mm)*
G04 Created by KiCad (PCBNEW (5.0.2)-1) date 14/02/2019 14:41:14*
%MOMM*%
%LPD*%
G01*
G04 APERTURE LIST*
G04 #@! TA.AperFunction,ComponentPad*
%ADD10C,1.800000*%
G04 #@! TD*
G04 #@! TA.AperFunction,ComponentPad*
%ADD11R,1.800000X1.800000*%
G04 #@! TD*
G04 #@! TA.AperFunction,ComponentPad*
%ADD12O,1.700000X1.700000*%
G04 #@! TD*
G04 #@! TA.AperFunction,ComponentPad*
%ADD13R,1.700000X1.700000*%
G04 #@! TD*
G04 #@! TA.AperFunction,ComponentPad*
%ADD14O,1.600000X1.600000*%
G04 #@! TD*
G04 #@! TA.AperFunction,ComponentPad*
%ADD15R,1.600000X1.600000*%
G04 #@! TD*
G04 #@! TA.AperFunction,ViaPad*
%ADD16C,0.800000*%
G04 #@! TD*
G04 #@! TA.AperFunction,Conductor*
%ADD17C,0.250000*%
G04 #@! TD*
G04 #@! TA.AperFunction,Conductor*
%ADD18C,0.254000*%
G04 #@! TD*
G04 APERTURE END LIST*
D10*
G04 #@! TO.P,D56,2*
G04 #@! TO.N,/R8*
X148341316Y-122177503D03*
D11*
G04 #@! TO.P,D56,1*
G04 #@! TO.N,/C7*
X148341316Y-124717503D03*
G04 #@! TD*
G04 #@! TO.P,D7,1*
G04 #@! TO.N,/C1*
X106341316Y-117717503D03*
D10*
G04 #@! TO.P,D7,2*
G04 #@! TO.N,/R7*
X106341316Y-115177503D03*
G04 #@! TD*
G04 #@! TO.P,D17,2*
G04 #@! TO.N,/R1*
X120341316Y-73177503D03*
D11*
G04 #@! TO.P,D17,1*
G04 #@! TO.N,/C3*
X120341316Y-75717503D03*
G04 #@! TD*
D12*
G04 #@! TO.P,J1,7*
G04 #@! TO.N,GND*
X134313536Y-133881489D03*
G04 #@! TO.P,J1,6*
G04 #@! TO.N,+5V*
X136853536Y-133881489D03*
G04 #@! TO.P,J1,5*
G04 #@! TO.N,Net-(J1-Pad5)*
X139393536Y-133881489D03*
G04 #@! TO.P,J1,4*
G04 #@! TO.N,/OutputEnable*
X141933536Y-133881489D03*
G04 #@! TO.P,J1,3*
G04 #@! TO.N,/STORE*
X144473536Y-133881489D03*
G04 #@! TO.P,J1,2*
G04 #@! TO.N,/CLOCK*
X147013536Y-133881489D03*
D13*
G04 #@! TO.P,J1,1*
G04 #@! TO.N,/DATAIN*
X149553536Y-133881489D03*
G04 #@! TD*
G04 #@! TO.P,J2,1*
G04 #@! TO.N,/OUTCHAIN*
X111297254Y-155886168D03*
D12*
G04 #@! TO.P,J2,2*
G04 #@! TO.N,/CLOCK*
X113837254Y-155886168D03*
G04 #@! TO.P,J2,3*
G04 #@! TO.N,/STORE*
X116377254Y-155886168D03*
G04 #@! TO.P,J2,4*
G04 #@! TO.N,/OutputEnable*
X118917254Y-155886168D03*
G04 #@! TO.P,J2,5*
G04 #@! TO.N,Net-(J2-Pad5)*
X121457254Y-155886168D03*
G04 #@! TO.P,J2,6*
G04 #@! TO.N,+5V*
X123997254Y-155886168D03*
G04 #@! TO.P,J2,7*
G04 #@! TO.N,GND*
X126537254Y-155886168D03*
G04 #@! TD*
D10*
G04 #@! TO.P,D19,2*
G04 #@! TO.N,/R3*
X120341316Y-87177503D03*
D11*
G04 #@! TO.P,D19,1*
G04 #@! TO.N,/C3*
X120341316Y-89717503D03*
G04 #@! TD*
G04 #@! TO.P,D35,1*
G04 #@! TO.N,/C5*
X134341316Y-89717503D03*
D10*
G04 #@! TO.P,D35,2*
G04 #@! TO.N,/R3*
X134341316Y-87177503D03*
G04 #@! TD*
G04 #@! TO.P,D34,2*
G04 #@! TO.N,/R2*
X134341316Y-80177503D03*
D11*
G04 #@! TO.P,D34,1*
G04 #@! TO.N,/C5*
X134341316Y-82717503D03*
G04 #@! TD*
G04 #@! TO.P,D33,1*
G04 #@! TO.N,/C5*
X134341316Y-75717503D03*
D10*
G04 #@! TO.P,D33,2*
G04 #@! TO.N,/R1*
X134341316Y-73177503D03*
G04 #@! TD*
G04 #@! TO.P,D32,2*
G04 #@! TO.N,/R8*
X127341316Y-122177503D03*
D11*
G04 #@! TO.P,D32,1*
G04 #@! TO.N,/C4*
X127341316Y-124717503D03*
G04 #@! TD*
G04 #@! TO.P,D31,1*
G04 #@! TO.N,/C4*
X127341316Y-117717503D03*
D10*
G04 #@! TO.P,D31,2*
G04 #@! TO.N,/R7*
X127341316Y-115177503D03*
G04 #@! TD*
G04 #@! TO.P,D30,2*
G04 #@! TO.N,/R6*
X127341316Y-108177503D03*
D11*
G04 #@! TO.P,D30,1*
G04 #@! TO.N,/C4*
X127341316Y-110717503D03*
G04 #@! TD*
G04 #@! TO.P,D29,1*
G04 #@! TO.N,/C4*
X127341316Y-103717503D03*
D10*
G04 #@! TO.P,D29,2*
G04 #@! TO.N,/R5*
X127341316Y-101177503D03*
G04 #@! TD*
G04 #@! TO.P,D28,2*
G04 #@! TO.N,/R4*
X127341316Y-94177503D03*
D11*
G04 #@! TO.P,D28,1*
G04 #@! TO.N,/C4*
X127341316Y-96717503D03*
G04 #@! TD*
G04 #@! TO.P,D20,1*
G04 #@! TO.N,/C3*
X120341316Y-96717503D03*
D10*
G04 #@! TO.P,D20,2*
G04 #@! TO.N,/R4*
X120341316Y-94177503D03*
G04 #@! TD*
G04 #@! TO.P,D26,2*
G04 #@! TO.N,/R2*
X127341316Y-80177503D03*
D11*
G04 #@! TO.P,D26,1*
G04 #@! TO.N,/C4*
X127341316Y-82717503D03*
G04 #@! TD*
G04 #@! TO.P,D25,1*
G04 #@! TO.N,/C4*
X127341316Y-75717503D03*
D10*
G04 #@! TO.P,D25,2*
G04 #@! TO.N,/R1*
X127341316Y-73177503D03*
G04 #@! TD*
G04 #@! TO.P,D23,2*
G04 #@! TO.N,/R7*
X120341316Y-115177503D03*
D11*
G04 #@! TO.P,D23,1*
G04 #@! TO.N,/C3*
X120341316Y-117717503D03*
G04 #@! TD*
G04 #@! TO.P,D22,1*
G04 #@! TO.N,/C3*
X120341316Y-110717503D03*
D10*
G04 #@! TO.P,D22,2*
G04 #@! TO.N,/R6*
X120341316Y-108177503D03*
G04 #@! TD*
G04 #@! TO.P,D15,2*
G04 #@! TO.N,/R7*
X113341316Y-115177503D03*
D11*
G04 #@! TO.P,D15,1*
G04 #@! TO.N,/C2*
X113341316Y-117717503D03*
G04 #@! TD*
G04 #@! TO.P,D36,1*
G04 #@! TO.N,/C5*
X134341316Y-96717503D03*
D10*
G04 #@! TO.P,D36,2*
G04 #@! TO.N,/R4*
X134341316Y-94177503D03*
G04 #@! TD*
G04 #@! TO.P,D12,2*
G04 #@! TO.N,/R4*
X113341316Y-94177503D03*
D11*
G04 #@! TO.P,D12,1*
G04 #@! TO.N,/C2*
X113341316Y-96717503D03*
G04 #@! TD*
G04 #@! TO.P,D11,1*
G04 #@! TO.N,/C2*
X113341316Y-89717503D03*
D10*
G04 #@! TO.P,D11,2*
G04 #@! TO.N,/R3*
X113341316Y-87177503D03*
G04 #@! TD*
G04 #@! TO.P,D10,2*
G04 #@! TO.N,/R2*
X113341316Y-80177503D03*
D11*
G04 #@! TO.P,D10,1*
G04 #@! TO.N,/C2*
X113341316Y-82717503D03*
G04 #@! TD*
G04 #@! TO.P,D18,1*
G04 #@! TO.N,/C3*
X120341316Y-82717503D03*
D10*
G04 #@! TO.P,D18,2*
G04 #@! TO.N,/R2*
X120341316Y-80177503D03*
G04 #@! TD*
G04 #@! TO.P,D8,2*
G04 #@! TO.N,/R8*
X106341316Y-122177503D03*
D11*
G04 #@! TO.P,D8,1*
G04 #@! TO.N,/C1*
X106341316Y-124717503D03*
G04 #@! TD*
D10*
G04 #@! TO.P,D6,2*
G04 #@! TO.N,/R6*
X106341316Y-108177503D03*
D11*
G04 #@! TO.P,D6,1*
G04 #@! TO.N,/C1*
X106341316Y-110717503D03*
G04 #@! TD*
G04 #@! TO.P,D5,1*
G04 #@! TO.N,/C1*
X106341316Y-103717503D03*
D10*
G04 #@! TO.P,D5,2*
G04 #@! TO.N,/R5*
X106341316Y-101177503D03*
G04 #@! TD*
G04 #@! TO.P,D4,2*
G04 #@! TO.N,/R4*
X106341316Y-94177503D03*
D11*
G04 #@! TO.P,D4,1*
G04 #@! TO.N,/C1*
X106341316Y-96717503D03*
G04 #@! TD*
G04 #@! TO.P,D3,1*
G04 #@! TO.N,/C1*
X106341316Y-89717503D03*
D10*
G04 #@! TO.P,D3,2*
G04 #@! TO.N,/R3*
X106341316Y-87177503D03*
G04 #@! TD*
G04 #@! TO.P,D2,2*
G04 #@! TO.N,/R2*
X106341316Y-80177503D03*
D11*
G04 #@! TO.P,D2,1*
G04 #@! TO.N,/C1*
X106341316Y-82717503D03*
G04 #@! TD*
G04 #@! TO.P,D37,1*
G04 #@! TO.N,/C5*
X134341316Y-103717503D03*
D10*
G04 #@! TO.P,D37,2*
G04 #@! TO.N,/R5*
X134341316Y-101177503D03*
G04 #@! TD*
G04 #@! TO.P,D1,2*
G04 #@! TO.N,/R1*
X106341316Y-73177503D03*
D11*
G04 #@! TO.P,D1,1*
G04 #@! TO.N,/C1*
X106341316Y-75717503D03*
G04 #@! TD*
G04 #@! TO.P,D27,1*
G04 #@! TO.N,/C4*
X127341316Y-89717503D03*
D10*
G04 #@! TO.P,D27,2*
G04 #@! TO.N,/R3*
X127341316Y-87177503D03*
G04 #@! TD*
G04 #@! TO.P,D13,2*
G04 #@! TO.N,/R5*
X113341316Y-101177503D03*
D11*
G04 #@! TO.P,D13,1*
G04 #@! TO.N,/C2*
X113341316Y-103717503D03*
G04 #@! TD*
G04 #@! TO.P,D21,1*
G04 #@! TO.N,/C3*
X120341316Y-103717503D03*
D10*
G04 #@! TO.P,D21,2*
G04 #@! TO.N,/R5*
X120341316Y-101177503D03*
G04 #@! TD*
G04 #@! TO.P,D53,2*
G04 #@! TO.N,/R5*
X148341316Y-101177503D03*
D11*
G04 #@! TO.P,D53,1*
G04 #@! TO.N,/C7*
X148341316Y-103717503D03*
G04 #@! TD*
G04 #@! TO.P,D55,1*
G04 #@! TO.N,/C7*
X148341316Y-117717503D03*
D10*
G04 #@! TO.P,D55,2*
G04 #@! TO.N,/R7*
X148341316Y-115177503D03*
G04 #@! TD*
D11*
G04 #@! TO.P,D57,1*
G04 #@! TO.N,/C8*
X155341316Y-75717503D03*
D10*
G04 #@! TO.P,D57,2*
G04 #@! TO.N,/R1*
X155341316Y-73177503D03*
G04 #@! TD*
G04 #@! TO.P,D58,2*
G04 #@! TO.N,/R2*
X155341316Y-80177503D03*
D11*
G04 #@! TO.P,D58,1*
G04 #@! TO.N,/C8*
X155341316Y-82717503D03*
G04 #@! TD*
G04 #@! TO.P,D59,1*
G04 #@! TO.N,/C8*
X155341316Y-89717503D03*
D10*
G04 #@! TO.P,D59,2*
G04 #@! TO.N,/R3*
X155341316Y-87177503D03*
G04 #@! TD*
G04 #@! TO.P,D60,2*
G04 #@! TO.N,/R4*
X155341316Y-94177503D03*
D11*
G04 #@! TO.P,D60,1*
G04 #@! TO.N,/C8*
X155341316Y-96717503D03*
G04 #@! TD*
G04 #@! TO.P,D61,1*
G04 #@! TO.N,/C8*
X155341316Y-103717503D03*
D10*
G04 #@! TO.P,D61,2*
G04 #@! TO.N,/R5*
X155341316Y-101177503D03*
G04 #@! TD*
G04 #@! TO.P,D62,2*
G04 #@! TO.N,/R6*
X155433695Y-108177503D03*
D11*
G04 #@! TO.P,D62,1*
G04 #@! TO.N,/C8*
X155433695Y-110717503D03*
G04 #@! TD*
G04 #@! TO.P,D63,1*
G04 #@! TO.N,/C8*
X155341316Y-117717503D03*
D10*
G04 #@! TO.P,D63,2*
G04 #@! TO.N,/R7*
X155341316Y-115177503D03*
G04 #@! TD*
G04 #@! TO.P,D64,2*
G04 #@! TO.N,/R8*
X155341316Y-122177503D03*
D11*
G04 #@! TO.P,D64,1*
G04 #@! TO.N,/C8*
X155341316Y-124717503D03*
G04 #@! TD*
G04 #@! TO.P,D9,1*
G04 #@! TO.N,/C2*
X113341316Y-75717503D03*
D10*
G04 #@! TO.P,D9,2*
G04 #@! TO.N,/R1*
X113341316Y-73177503D03*
G04 #@! TD*
D11*
G04 #@! TO.P,D16,1*
G04 #@! TO.N,/C2*
X113341316Y-124717503D03*
D10*
G04 #@! TO.P,D16,2*
G04 #@! TO.N,/R8*
X113341316Y-122177503D03*
G04 #@! TD*
G04 #@! TO.P,D14,2*
G04 #@! TO.N,/R6*
X113341316Y-108177503D03*
D11*
G04 #@! TO.P,D14,1*
G04 #@! TO.N,/C2*
X113341316Y-110717503D03*
G04 #@! TD*
G04 #@! TO.P,D54,1*
G04 #@! TO.N,/C7*
X148341316Y-110717503D03*
D10*
G04 #@! TO.P,D54,2*
G04 #@! TO.N,/R6*
X148341316Y-108177503D03*
G04 #@! TD*
G04 #@! TO.P,D24,2*
G04 #@! TO.N,/R8*
X120341316Y-122177503D03*
D11*
G04 #@! TO.P,D24,1*
G04 #@! TO.N,/C3*
X120341316Y-124717503D03*
G04 #@! TD*
G04 #@! TO.P,D38,1*
G04 #@! TO.N,/C5*
X134341316Y-110717503D03*
D10*
G04 #@! TO.P,D38,2*
G04 #@! TO.N,/R6*
X134341316Y-108177503D03*
G04 #@! TD*
G04 #@! TO.P,D50,2*
G04 #@! TO.N,/R2*
X148341316Y-80177503D03*
D11*
G04 #@! TO.P,D50,1*
G04 #@! TO.N,/C7*
X148341316Y-82717503D03*
G04 #@! TD*
G04 #@! TO.P,D49,1*
G04 #@! TO.N,/C7*
X148341316Y-75717503D03*
D10*
G04 #@! TO.P,D49,2*
G04 #@! TO.N,/R1*
X148341316Y-73177503D03*
G04 #@! TD*
G04 #@! TO.P,D48,2*
G04 #@! TO.N,/R8*
X141341316Y-122177503D03*
D11*
G04 #@! TO.P,D48,1*
G04 #@! TO.N,/C6*
X141341316Y-124717503D03*
G04 #@! TD*
G04 #@! TO.P,D47,1*
G04 #@! TO.N,/C6*
X141341316Y-117717503D03*
D10*
G04 #@! TO.P,D47,2*
G04 #@! TO.N,/R7*
X141341316Y-115177503D03*
G04 #@! TD*
G04 #@! TO.P,D46,2*
G04 #@! TO.N,/R6*
X141341316Y-108177503D03*
D11*
G04 #@! TO.P,D46,1*
G04 #@! TO.N,/C6*
X141341316Y-110717503D03*
G04 #@! TD*
G04 #@! TO.P,D45,1*
G04 #@! TO.N,/C6*
X141341316Y-103717503D03*
D10*
G04 #@! TO.P,D45,2*
G04 #@! TO.N,/R5*
X141341316Y-101177503D03*
G04 #@! TD*
G04 #@! TO.P,D44,2*
G04 #@! TO.N,/R4*
X141341316Y-94177503D03*
D11*
G04 #@! TO.P,D44,1*
G04 #@! TO.N,/C6*
X141341316Y-96717503D03*
G04 #@! TD*
G04 #@! TO.P,D43,1*
G04 #@! TO.N,/C6*
X141341316Y-89717503D03*
D10*
G04 #@! TO.P,D43,2*
G04 #@! TO.N,/R3*
X141341316Y-87177503D03*
G04 #@! TD*
G04 #@! TO.P,D42,2*
G04 #@! TO.N,/R2*
X141341316Y-80177503D03*
D11*
G04 #@! TO.P,D42,1*
G04 #@! TO.N,/C6*
X141341316Y-82717503D03*
G04 #@! TD*
G04 #@! TO.P,D41,1*
G04 #@! TO.N,/C6*
X141341316Y-75717503D03*
D10*
G04 #@! TO.P,D41,2*
G04 #@! TO.N,/R1*
X141341316Y-73177503D03*
G04 #@! TD*
G04 #@! TO.P,D52,2*
G04 #@! TO.N,/R4*
X148341316Y-94177503D03*
D11*
G04 #@! TO.P,D52,1*
G04 #@! TO.N,/C7*
X148341316Y-96717503D03*
G04 #@! TD*
G04 #@! TO.P,D40,1*
G04 #@! TO.N,/C5*
X134341316Y-124717503D03*
D10*
G04 #@! TO.P,D40,2*
G04 #@! TO.N,/R8*
X134341316Y-122177503D03*
G04 #@! TD*
G04 #@! TO.P,D39,2*
G04 #@! TO.N,/R7*
X134341316Y-115177503D03*
D11*
G04 #@! TO.P,D39,1*
G04 #@! TO.N,/C5*
X134341316Y-117717503D03*
G04 #@! TD*
G04 #@! TO.P,D51,1*
G04 #@! TO.N,/C7*
X148341316Y-89717503D03*
D10*
G04 #@! TO.P,D51,2*
G04 #@! TO.N,/R3*
X148341316Y-87177503D03*
G04 #@! TD*
D14*
G04 #@! TO.P,U1,16*
G04 #@! TO.N,+5V*
X127917254Y-146506168D03*
G04 #@! TO.P,U1,8*
G04 #@! TO.N,GND*
X110137254Y-138886168D03*
G04 #@! TO.P,U1,15*
G04 #@! TO.N,Net-(R3-Pad2)*
X125377254Y-146506168D03*
G04 #@! TO.P,U1,7*
G04 #@! TO.N,Net-(R10-Pad2)*
X112677254Y-138886168D03*
G04 #@! TO.P,U1,14*
G04 #@! TO.N,/CHAIN*
X122837254Y-146506168D03*
G04 #@! TO.P,U1,6*
G04 #@! TO.N,Net-(R9-Pad2)*
X115217254Y-138886168D03*
G04 #@! TO.P,U1,13*
G04 #@! TO.N,/OutputEnable*
X120297254Y-146506168D03*
G04 #@! TO.P,U1,5*
G04 #@! TO.N,Net-(R8-Pad2)*
X117757254Y-138886168D03*
G04 #@! TO.P,U1,12*
G04 #@! TO.N,/STORE*
X117757254Y-146506168D03*
G04 #@! TO.P,U1,4*
G04 #@! TO.N,Net-(R7-Pad2)*
X120297254Y-138886168D03*
G04 #@! TO.P,U1,11*
G04 #@! TO.N,/CLOCK*
X115217254Y-146506168D03*
G04 #@! TO.P,U1,3*
G04 #@! TO.N,Net-(R6-Pad2)*
X122837254Y-138886168D03*
G04 #@! TO.P,U1,10*
G04 #@! TO.N,Net-(R1-Pad2)*
X112677254Y-146506168D03*
G04 #@! TO.P,U1,2*
G04 #@! TO.N,Net-(R5-Pad2)*
X125377254Y-138886168D03*
G04 #@! TO.P,U1,9*
G04 #@! TO.N,/OUTCHAIN*
X110137254Y-146506168D03*
D15*
G04 #@! TO.P,U1,1*
G04 #@! TO.N,Net-(R4-Pad2)*
X127917254Y-138886168D03*
G04 #@! TD*
G04 #@! TO.P,U2,1*
G04 #@! TO.N,/C2*
X136013536Y-148881489D03*
D14*
G04 #@! TO.P,U2,9*
G04 #@! TO.N,/CHAIN*
X153793536Y-141261489D03*
G04 #@! TO.P,U2,2*
G04 #@! TO.N,/C3*
X138553536Y-148881489D03*
G04 #@! TO.P,U2,10*
G04 #@! TO.N,Net-(R2-Pad2)*
X151253536Y-141261489D03*
G04 #@! TO.P,U2,3*
G04 #@! TO.N,/C4*
X141093536Y-148881489D03*
G04 #@! TO.P,U2,11*
G04 #@! TO.N,/CLOCK*
X148713536Y-141261489D03*
G04 #@! TO.P,U2,4*
G04 #@! TO.N,/C5*
X143633536Y-148881489D03*
G04 #@! TO.P,U2,12*
G04 #@! TO.N,/STORE*
X146173536Y-141261489D03*
G04 #@! TO.P,U2,5*
G04 #@! TO.N,/C6*
X146173536Y-148881489D03*
G04 #@! TO.P,U2,13*
G04 #@! TO.N,/OutputEnable*
X143633536Y-141261489D03*
G04 #@! TO.P,U2,6*
G04 #@! TO.N,/C7*
X148713536Y-148881489D03*
G04 #@! TO.P,U2,14*
G04 #@! TO.N,/DATAIN*
X141093536Y-141261489D03*
G04 #@! TO.P,U2,7*
G04 #@! TO.N,/C8*
X151253536Y-148881489D03*
G04 #@! TO.P,U2,15*
G04 #@! TO.N,/C1*
X138553536Y-141261489D03*
G04 #@! TO.P,U2,8*
G04 #@! TO.N,GND*
X153793536Y-148881489D03*
G04 #@! TO.P,U2,16*
G04 #@! TO.N,+5V*
X136013536Y-141261489D03*
G04 #@! TD*
D16*
G04 #@! TO.N,GND*
X129000000Y-153000000D03*
X128500000Y-148500000D03*
G04 #@! TD*
D17*
G04 #@! TO.N,/C2*
X113341316Y-76867503D02*
X113341316Y-75717503D01*
X114566317Y-78092504D02*
X113341316Y-76867503D01*
X114566317Y-80765504D02*
X114566317Y-78092504D01*
X113341316Y-81990505D02*
X114566317Y-80765504D01*
X113341316Y-82717503D02*
X113341316Y-81990505D01*
X113341316Y-83867503D02*
X113341316Y-82717503D01*
X114566317Y-85092504D02*
X113341316Y-83867503D01*
X114566317Y-87765504D02*
X114566317Y-85092504D01*
X113341316Y-88990505D02*
X114566317Y-87765504D01*
X113341316Y-89717503D02*
X113341316Y-88990505D01*
X113341316Y-90867503D02*
X113341316Y-89717503D01*
X114566317Y-92092504D02*
X113341316Y-90867503D01*
X114566317Y-94765504D02*
X114566317Y-92092504D01*
X113341316Y-95990505D02*
X114566317Y-94765504D01*
X113341316Y-96717503D02*
X113341316Y-95990505D01*
X113341316Y-97867503D02*
X113341316Y-96717503D01*
X114566317Y-99092504D02*
X113341316Y-97867503D01*
X114566317Y-101765504D02*
X114566317Y-99092504D01*
X113341316Y-102990505D02*
X114566317Y-101765504D01*
X113341316Y-103717503D02*
X113341316Y-102990505D01*
X113341316Y-104867503D02*
X113341316Y-103717503D01*
X114566317Y-106092504D02*
X113341316Y-104867503D01*
X114566317Y-108765504D02*
X114566317Y-106092504D01*
X113341316Y-109990505D02*
X114566317Y-108765504D01*
X113341316Y-110717503D02*
X113341316Y-109990505D01*
X113341316Y-111867503D02*
X113341316Y-110717503D01*
X114566317Y-113092504D02*
X113341316Y-111867503D01*
X114566317Y-115765504D02*
X114566317Y-113092504D01*
X113341316Y-116990505D02*
X114566317Y-115765504D01*
X113341316Y-117717503D02*
X113341316Y-116990505D01*
X113341316Y-118867503D02*
X113341316Y-117717503D01*
X114566317Y-120092504D02*
X113341316Y-118867503D01*
X114566317Y-122765504D02*
X114566317Y-120092504D01*
X113341316Y-123990505D02*
X114566317Y-122765504D01*
X113341316Y-124717503D02*
X113341316Y-123990505D01*
X114491316Y-124717503D02*
X113341316Y-124717503D01*
X124830303Y-135056490D02*
X114491316Y-124717503D01*
X134013539Y-135056490D02*
X124830303Y-135056490D01*
X139678537Y-140721488D02*
X134013539Y-135056490D01*
X139678537Y-141801490D02*
X139678537Y-140721488D01*
X136013536Y-145466491D02*
X139678537Y-141801490D01*
X136013536Y-148881489D02*
X136013536Y-145466491D01*
G04 #@! TO.N,/C3*
X120341316Y-76867503D02*
X120341316Y-75717503D01*
X121566317Y-78092504D02*
X120341316Y-76867503D01*
X121566317Y-80765504D02*
X121566317Y-78092504D01*
X120341316Y-81990505D02*
X121566317Y-80765504D01*
X120341316Y-82717503D02*
X120341316Y-81990505D01*
X120341316Y-83867503D02*
X120341316Y-82717503D01*
X121566317Y-85092504D02*
X120341316Y-83867503D01*
X121566317Y-87765504D02*
X121566317Y-85092504D01*
X120341316Y-88990505D02*
X121566317Y-87765504D01*
X120341316Y-89717503D02*
X120341316Y-88990505D01*
X120341316Y-90867503D02*
X120341316Y-89717503D01*
X121566317Y-92092504D02*
X120341316Y-90867503D01*
X121566317Y-94765504D02*
X121566317Y-92092504D01*
X120341316Y-95990505D02*
X121566317Y-94765504D01*
X120341316Y-96717503D02*
X120341316Y-95990505D01*
X120341316Y-97867503D02*
X120341316Y-96717503D01*
X121566317Y-99092504D02*
X120341316Y-97867503D01*
X121566317Y-101765504D02*
X121566317Y-99092504D01*
X120341316Y-102990505D02*
X121566317Y-101765504D01*
X120341316Y-103717503D02*
X120341316Y-102990505D01*
X120341316Y-104867503D02*
X120341316Y-103717503D01*
X121566317Y-106092504D02*
X120341316Y-104867503D01*
X121566317Y-108765504D02*
X121566317Y-106092504D01*
X120341316Y-109990505D02*
X121566317Y-108765504D01*
X120341316Y-110717503D02*
X120341316Y-109990505D01*
X120341316Y-111867503D02*
X120341316Y-110717503D01*
X121566317Y-113092504D02*
X120341316Y-111867503D01*
X121566317Y-115765504D02*
X121566317Y-113092504D01*
X120341316Y-116990505D02*
X121566317Y-115765504D01*
X120341316Y-117717503D02*
X120341316Y-116990505D01*
X120341316Y-118867503D02*
X120341316Y-117717503D01*
X121566317Y-120092504D02*
X120341316Y-118867503D01*
X121566317Y-122765504D02*
X121566317Y-120092504D01*
X120341316Y-123990505D02*
X121566317Y-122765504D01*
X120341316Y-124717503D02*
X120341316Y-123990505D01*
X139353535Y-148081490D02*
X138553536Y-148881489D01*
X142218537Y-145216488D02*
X139353535Y-148081490D01*
X142218537Y-140721488D02*
X142218537Y-145216488D01*
X138028537Y-136531488D02*
X142218537Y-140721488D01*
X138028537Y-133317488D02*
X138028537Y-136531488D01*
X137417537Y-132706488D02*
X138028537Y-133317488D01*
X127180301Y-132706488D02*
X137417537Y-132706488D01*
X120341316Y-125867503D02*
X127180301Y-132706488D01*
X120341316Y-124717503D02*
X120341316Y-125867503D01*
G04 #@! TO.N,/C4*
X127341316Y-76867503D02*
X127341316Y-75717503D01*
X128566317Y-78092504D02*
X127341316Y-76867503D01*
X128566317Y-80765504D02*
X128566317Y-78092504D01*
X127341316Y-81990505D02*
X128566317Y-80765504D01*
X127341316Y-82717503D02*
X127341316Y-81990505D01*
X127341316Y-83867503D02*
X127341316Y-82717503D01*
X128566317Y-85092504D02*
X127341316Y-83867503D01*
X128566317Y-87765504D02*
X128566317Y-85092504D01*
X127341316Y-88990505D02*
X128566317Y-87765504D01*
X127341316Y-89717503D02*
X127341316Y-88990505D01*
X127341316Y-90867503D02*
X127341316Y-89717503D01*
X128566317Y-92092504D02*
X127341316Y-90867503D01*
X128566317Y-94765504D02*
X128566317Y-92092504D01*
X127341316Y-95990505D02*
X128566317Y-94765504D01*
X127341316Y-96717503D02*
X127341316Y-95990505D01*
X127341316Y-97867503D02*
X127341316Y-96717503D01*
X128566317Y-99092504D02*
X127341316Y-97867503D01*
X128566317Y-101765504D02*
X128566317Y-99092504D01*
X127341316Y-102990505D02*
X128566317Y-101765504D01*
X127341316Y-103717503D02*
X127341316Y-102990505D01*
X127341316Y-104867503D02*
X127341316Y-103717503D01*
X128566317Y-106092504D02*
X127341316Y-104867503D01*
X128566317Y-108765504D02*
X128566317Y-106092504D01*
X127341316Y-109990505D02*
X128566317Y-108765504D01*
X127341316Y-110717503D02*
X127341316Y-109990505D01*
X127341316Y-111867503D02*
X127341316Y-110717503D01*
X128566317Y-113092504D02*
X127341316Y-111867503D01*
X128566317Y-115765504D02*
X128566317Y-113092504D01*
X127341316Y-116990505D02*
X128566317Y-115765504D01*
X127341316Y-117717503D02*
X127341316Y-116990505D01*
X127341316Y-118867503D02*
X127341316Y-117717503D01*
X128566317Y-120092504D02*
X127341316Y-118867503D01*
X128566317Y-122765504D02*
X128566317Y-120092504D01*
X127341316Y-123990505D02*
X128566317Y-122765504D01*
X127341316Y-124717503D02*
X127341316Y-123990505D01*
X141893535Y-148081490D02*
X141093536Y-148881489D01*
X144758537Y-145216488D02*
X141893535Y-148081490D01*
X144758537Y-140721488D02*
X144758537Y-145216488D01*
X140758535Y-136721486D02*
X144758537Y-140721488D01*
X140758535Y-133507486D02*
X140758535Y-136721486D01*
X131968552Y-124717503D02*
X140758535Y-133507486D01*
X127341316Y-124717503D02*
X131968552Y-124717503D01*
G04 #@! TO.N,/C5*
X134341316Y-76867503D02*
X134341316Y-75717503D01*
X135566317Y-78092504D02*
X134341316Y-76867503D01*
X135566317Y-80765504D02*
X135566317Y-78092504D01*
X134341316Y-81990505D02*
X135566317Y-80765504D01*
X134341316Y-82717503D02*
X134341316Y-81990505D01*
X134341316Y-83867503D02*
X134341316Y-82717503D01*
X135566317Y-85092504D02*
X134341316Y-83867503D01*
X135566317Y-87765504D02*
X135566317Y-85092504D01*
X134341316Y-88990505D02*
X135566317Y-87765504D01*
X134341316Y-89717503D02*
X134341316Y-88990505D01*
X134341316Y-90867503D02*
X134341316Y-89717503D01*
X135566317Y-92092504D02*
X134341316Y-90867503D01*
X135566317Y-94765504D02*
X135566317Y-92092504D01*
X134341316Y-95990505D02*
X135566317Y-94765504D01*
X134341316Y-96717503D02*
X134341316Y-95990505D01*
X134341316Y-97867503D02*
X134341316Y-96717503D01*
X135566317Y-99092504D02*
X134341316Y-97867503D01*
X135566317Y-101765504D02*
X135566317Y-99092504D01*
X134341316Y-102990505D02*
X135566317Y-101765504D01*
X134341316Y-103717503D02*
X134341316Y-102990505D01*
X134341316Y-104867503D02*
X134341316Y-103717503D01*
X135566317Y-106092504D02*
X134341316Y-104867503D01*
X135566317Y-108765504D02*
X135566317Y-106092504D01*
X134341316Y-109990505D02*
X135566317Y-108765504D01*
X134341316Y-110717503D02*
X134341316Y-109990505D01*
X134341316Y-111867503D02*
X134341316Y-110717503D01*
X135566317Y-113092504D02*
X134341316Y-111867503D01*
X135566317Y-115765504D02*
X135566317Y-113092504D01*
X134341316Y-116990505D02*
X135566317Y-115765504D01*
X134341316Y-117717503D02*
X134341316Y-116990505D01*
X134341316Y-118867503D02*
X134341316Y-117717503D01*
X135566317Y-120092504D02*
X134341316Y-118867503D01*
X135566317Y-122765504D02*
X135566317Y-120092504D01*
X134341316Y-123990505D02*
X135566317Y-122765504D01*
X134341316Y-124717503D02*
X134341316Y-123990505D01*
X135491316Y-124717503D02*
X134341316Y-124717503D01*
X143108537Y-132334724D02*
X135491316Y-124717503D01*
X143108537Y-136108537D02*
X143108537Y-132334724D01*
X147500000Y-140500000D02*
X143108537Y-136108537D01*
X147500000Y-145015025D02*
X147500000Y-140500000D01*
X143633536Y-148881489D02*
X147500000Y-145015025D01*
G04 #@! TO.N,/C6*
X141341316Y-76867503D02*
X141341316Y-75717503D01*
X142566317Y-78092504D02*
X141341316Y-76867503D01*
X142566317Y-80765504D02*
X142566317Y-78092504D01*
X141341316Y-81990505D02*
X142566317Y-80765504D01*
X141341316Y-82717503D02*
X141341316Y-81990505D01*
X141341316Y-90867503D02*
X141341316Y-89717503D01*
X142566317Y-92092504D02*
X141341316Y-90867503D01*
X142566317Y-94765504D02*
X142566317Y-92092504D01*
X141341316Y-95990505D02*
X142566317Y-94765504D01*
X141341316Y-96717503D02*
X141341316Y-95990505D01*
X141341316Y-97867503D02*
X141341316Y-96717503D01*
X142566317Y-99092504D02*
X141341316Y-97867503D01*
X142566317Y-101765504D02*
X142566317Y-99092504D01*
X141341316Y-102990505D02*
X142566317Y-101765504D01*
X141341316Y-103717503D02*
X141341316Y-102990505D01*
X141341316Y-104867503D02*
X141341316Y-103717503D01*
X142566317Y-106092504D02*
X141341316Y-104867503D01*
X142566317Y-108765504D02*
X142566317Y-106092504D01*
X141341316Y-109990505D02*
X142566317Y-108765504D01*
X141341316Y-110717503D02*
X141341316Y-109990505D01*
X141341316Y-111867503D02*
X141341316Y-110717503D01*
X142566317Y-113092504D02*
X141341316Y-111867503D01*
X142566317Y-115765504D02*
X142566317Y-113092504D01*
X141341316Y-116990505D02*
X142566317Y-115765504D01*
X141341316Y-117717503D02*
X141341316Y-116990505D01*
X141341316Y-118867503D02*
X141341316Y-117717503D01*
X142566317Y-120092504D02*
X141341316Y-118867503D01*
X142566317Y-122765504D02*
X142566317Y-120092504D01*
X141341316Y-123990505D02*
X142566317Y-122765504D01*
X141341316Y-124717503D02*
X141341316Y-123990505D01*
X141341316Y-125867503D02*
X141341316Y-124717503D01*
X145648537Y-130174724D02*
X141341316Y-125867503D01*
X145648537Y-134445490D02*
X145648537Y-130174724D01*
X149838537Y-138635490D02*
X145648537Y-134445490D01*
X149838537Y-145216488D02*
X149838537Y-138635490D01*
X146173536Y-148881489D02*
X149838537Y-145216488D01*
X141341316Y-83867503D02*
X141341316Y-82717503D01*
X142566317Y-85092504D02*
X141341316Y-83867503D01*
X142566317Y-87765504D02*
X142566317Y-85092504D01*
X141341316Y-88990505D02*
X142566317Y-87765504D01*
X141341316Y-89717503D02*
X141341316Y-88990505D01*
G04 #@! TO.N,/C7*
X148341316Y-76867503D02*
X148341316Y-75717503D01*
X149566317Y-78092504D02*
X148341316Y-76867503D01*
X149566317Y-80765504D02*
X149566317Y-78092504D01*
X148341316Y-81990505D02*
X149566317Y-80765504D01*
X148341316Y-82717503D02*
X148341316Y-81990505D01*
X148341316Y-83867503D02*
X148341316Y-82717503D01*
X149566317Y-85092504D02*
X148341316Y-83867503D01*
X149566317Y-87765504D02*
X149566317Y-85092504D01*
X148341316Y-88990505D02*
X149566317Y-87765504D01*
X148341316Y-89717503D02*
X148341316Y-88990505D01*
X148341316Y-90867503D02*
X148341316Y-89717503D01*
X149566317Y-92092504D02*
X148341316Y-90867503D01*
X149566317Y-94765504D02*
X149566317Y-92092504D01*
X148341316Y-95990505D02*
X149566317Y-94765504D01*
X148341316Y-96717503D02*
X148341316Y-95990505D01*
X148341316Y-97867503D02*
X148341316Y-96717503D01*
X149566317Y-99092504D02*
X148341316Y-97867503D01*
X149566317Y-101765504D02*
X149566317Y-99092504D01*
X148341316Y-102990505D02*
X149566317Y-101765504D01*
X148341316Y-103717503D02*
X148341316Y-102990505D01*
X148341316Y-104867503D02*
X148341316Y-103717503D01*
X149566317Y-106092504D02*
X148341316Y-104867503D01*
X149566317Y-108765504D02*
X149566317Y-106092504D01*
X148341316Y-109990505D02*
X149566317Y-108765504D01*
X148341316Y-110717503D02*
X148341316Y-109990505D01*
X148341316Y-111867503D02*
X148341316Y-110717503D01*
X149566317Y-113092504D02*
X148341316Y-111867503D01*
X149566317Y-115765504D02*
X149566317Y-113092504D01*
X148341316Y-116990505D02*
X149566317Y-115765504D01*
X148341316Y-117717503D02*
X148341316Y-116990505D01*
X148341316Y-118867503D02*
X148341316Y-117717503D01*
X149566317Y-120092504D02*
X148341316Y-118867503D01*
X149566317Y-122765504D02*
X149566317Y-120092504D01*
X148341316Y-123990505D02*
X149566317Y-122765504D01*
X148341316Y-124717503D02*
X148341316Y-123990505D01*
X148341316Y-125867503D02*
X148341316Y-124717503D01*
X152378537Y-129904724D02*
X148341316Y-125867503D01*
X152378537Y-145216488D02*
X152378537Y-129904724D01*
X148713536Y-148881489D02*
X152378537Y-145216488D01*
G04 #@! TO.N,/C8*
X155341316Y-76867503D02*
X155341316Y-75717503D01*
X156566317Y-78092504D02*
X155341316Y-76867503D01*
X156566317Y-80765504D02*
X156566317Y-78092504D01*
X155341316Y-81990505D02*
X156566317Y-80765504D01*
X155341316Y-82717503D02*
X155341316Y-81990505D01*
X155341316Y-83867503D02*
X155341316Y-82717503D01*
X156566317Y-85092504D02*
X155341316Y-83867503D01*
X156566317Y-87765504D02*
X156566317Y-85092504D01*
X155341316Y-88990505D02*
X156566317Y-87765504D01*
X155341316Y-89717503D02*
X155341316Y-88990505D01*
X155341316Y-90867503D02*
X155341316Y-89717503D01*
X156566317Y-92092504D02*
X155341316Y-90867503D01*
X156566317Y-94765504D02*
X156566317Y-92092504D01*
X155341316Y-95990505D02*
X156566317Y-94765504D01*
X155341316Y-96717503D02*
X155341316Y-95990505D01*
X155341316Y-97867503D02*
X155341316Y-96717503D01*
X156566317Y-99092504D02*
X155341316Y-97867503D01*
X156566317Y-101765504D02*
X156566317Y-99092504D01*
X155341316Y-102990505D02*
X156566317Y-101765504D01*
X155341316Y-103717503D02*
X155341316Y-102990505D01*
X155341316Y-104867503D02*
X155341316Y-103717503D01*
X156658696Y-106184883D02*
X155341316Y-104867503D01*
X156658696Y-108765504D02*
X156658696Y-106184883D01*
X155433695Y-109990505D02*
X156658696Y-108765504D01*
X155433695Y-110717503D02*
X155433695Y-109990505D01*
X155433695Y-111867503D02*
X155433695Y-110717503D01*
X156566317Y-113000125D02*
X155433695Y-111867503D01*
X156566317Y-115765504D02*
X156566317Y-113000125D01*
X155341316Y-116990505D02*
X156566317Y-115765504D01*
X155341316Y-117717503D02*
X155341316Y-116990505D01*
X155341316Y-118867503D02*
X155341316Y-117717503D01*
X156566317Y-120092504D02*
X155341316Y-118867503D01*
X156566317Y-122765504D02*
X156566317Y-120092504D01*
X155341316Y-123990505D02*
X156566317Y-122765504D01*
X155341316Y-124717503D02*
X155341316Y-123990505D01*
X155341316Y-144793709D02*
X155341316Y-124717503D01*
X151253536Y-148881489D02*
X155341316Y-144793709D01*
G04 #@! TO.N,/C1*
X106341316Y-76867503D02*
X106341316Y-75717503D01*
X107566317Y-78092504D02*
X106341316Y-76867503D01*
X107566317Y-80765504D02*
X107566317Y-78092504D01*
X106341316Y-81990505D02*
X107566317Y-80765504D01*
X106341316Y-82717503D02*
X106341316Y-81990505D01*
X106341316Y-83867503D02*
X106341316Y-82717503D01*
X107566317Y-85092504D02*
X106341316Y-83867503D01*
X107566317Y-87765504D02*
X107566317Y-85092504D01*
X106341316Y-88990505D02*
X107566317Y-87765504D01*
X106341316Y-89717503D02*
X106341316Y-88990505D01*
X106341316Y-90867503D02*
X106341316Y-89717503D01*
X107566317Y-92092504D02*
X106341316Y-90867503D01*
X107566317Y-94765504D02*
X107566317Y-92092504D01*
X106341316Y-95990505D02*
X107566317Y-94765504D01*
X106341316Y-96717503D02*
X106341316Y-95990505D01*
X106341316Y-97867503D02*
X106341316Y-96717503D01*
X107566317Y-99092504D02*
X106341316Y-97867503D01*
X107566317Y-101765504D02*
X107566317Y-99092504D01*
X106341316Y-102990505D02*
X107566317Y-101765504D01*
X106341316Y-103717503D02*
X106341316Y-102990505D01*
X106341316Y-104867503D02*
X106341316Y-103717503D01*
X107566317Y-106092504D02*
X106341316Y-104867503D01*
X107566317Y-108765504D02*
X107566317Y-106092504D01*
X106341316Y-109990505D02*
X107566317Y-108765504D01*
X106341316Y-110717503D02*
X106341316Y-109990505D01*
X106341316Y-111867503D02*
X106341316Y-110717503D01*
X107566317Y-113092504D02*
X106341316Y-111867503D01*
X107566317Y-115765504D02*
X107566317Y-113092504D01*
X106341316Y-116990505D02*
X107566317Y-115765504D01*
X106341316Y-117717503D02*
X106341316Y-116990505D01*
X106341316Y-118867503D02*
X106341316Y-117717503D01*
X107566317Y-120092504D02*
X106341316Y-118867503D01*
X107566317Y-122765504D02*
X107566317Y-120092504D01*
X106341316Y-123990505D02*
X107566317Y-122765504D01*
X106341316Y-124717503D02*
X106341316Y-123990505D01*
X137753537Y-140461490D02*
X138553536Y-141261489D01*
X135053214Y-137761167D02*
X137753537Y-140461490D01*
X120534980Y-137761167D02*
X135053214Y-137761167D01*
X107491316Y-124717503D02*
X120534980Y-137761167D01*
X106341316Y-124717503D02*
X107491316Y-124717503D01*
G04 #@! TD*
D18*
G04 #@! TO.N,GND*
G36*
X159290000Y-159290000D02*
X100710000Y-159290000D01*
X100710000Y-155036168D01*
X109799814Y-155036168D01*
X109799814Y-156736168D01*
X109849097Y-156983933D01*
X109989445Y-157193977D01*
X110199489Y-157334325D01*
X110447254Y-157383608D01*
X112147254Y-157383608D01*
X112395019Y-157334325D01*
X112605063Y-157193977D01*
X112745411Y-156983933D01*
X112754438Y-156938549D01*
X112766629Y-156956793D01*
X113257836Y-157285007D01*
X113690998Y-157371168D01*
X113983510Y-157371168D01*
X114416672Y-157285007D01*
X114907879Y-156956793D01*
X115107254Y-156658407D01*
X115306629Y-156956793D01*
X115797836Y-157285007D01*
X116230998Y-157371168D01*
X116523510Y-157371168D01*
X116956672Y-157285007D01*
X117447879Y-156956793D01*
X117647254Y-156658407D01*
X117846629Y-156956793D01*
X118337836Y-157285007D01*
X118770998Y-157371168D01*
X119063510Y-157371168D01*
X119496672Y-157285007D01*
X119987879Y-156956793D01*
X120187254Y-156658407D01*
X120386629Y-156956793D01*
X120877836Y-157285007D01*
X121310998Y-157371168D01*
X121603510Y-157371168D01*
X122036672Y-157285007D01*
X122527879Y-156956793D01*
X122727254Y-156658407D01*
X122926629Y-156956793D01*
X123417836Y-157285007D01*
X123850998Y-157371168D01*
X124143510Y-157371168D01*
X124576672Y-157285007D01*
X125067879Y-156956793D01*
X125281097Y-156637690D01*
X125342071Y-156767526D01*
X125770330Y-157157813D01*
X126180364Y-157327644D01*
X126410254Y-157206323D01*
X126410254Y-156013168D01*
X126664254Y-156013168D01*
X126664254Y-157206323D01*
X126894144Y-157327644D01*
X127304178Y-157157813D01*
X127732437Y-156767526D01*
X127978740Y-156243060D01*
X127858073Y-156013168D01*
X126664254Y-156013168D01*
X126410254Y-156013168D01*
X126390254Y-156013168D01*
X126390254Y-155759168D01*
X126410254Y-155759168D01*
X126410254Y-154566013D01*
X126664254Y-154566013D01*
X126664254Y-155759168D01*
X127858073Y-155759168D01*
X127978740Y-155529276D01*
X127732437Y-155004810D01*
X127304178Y-154614523D01*
X126894144Y-154444692D01*
X126664254Y-154566013D01*
X126410254Y-154566013D01*
X126180364Y-154444692D01*
X125770330Y-154614523D01*
X125342071Y-155004810D01*
X125281097Y-155134646D01*
X125067879Y-154815543D01*
X124576672Y-154487329D01*
X124143510Y-154401168D01*
X123850998Y-154401168D01*
X123417836Y-154487329D01*
X122926629Y-154815543D01*
X122727254Y-155113929D01*
X122527879Y-154815543D01*
X122036672Y-154487329D01*
X121603510Y-154401168D01*
X121310998Y-154401168D01*
X120877836Y-154487329D01*
X120386629Y-154815543D01*
X120187254Y-155113929D01*
X119987879Y-154815543D01*
X119496672Y-154487329D01*
X119063510Y-154401168D01*
X118770998Y-154401168D01*
X118337836Y-154487329D01*
X117846629Y-154815543D01*
X117647254Y-155113929D01*
X117447879Y-154815543D01*
X116956672Y-154487329D01*
X116523510Y-154401168D01*
X116230998Y-154401168D01*
X115797836Y-154487329D01*
X115306629Y-154815543D01*
X115107254Y-155113929D01*
X114907879Y-154815543D01*
X114416672Y-154487329D01*
X113983510Y-154401168D01*
X113690998Y-154401168D01*
X113257836Y-154487329D01*
X112766629Y-154815543D01*
X112754438Y-154833787D01*
X112745411Y-154788403D01*
X112605063Y-154578359D01*
X112395019Y-154438011D01*
X112147254Y-154388728D01*
X110447254Y-154388728D01*
X110199489Y-154438011D01*
X109989445Y-154578359D01*
X109849097Y-154788403D01*
X109799814Y-155036168D01*
X100710000Y-155036168D01*
X100710000Y-146506168D01*
X108674141Y-146506168D01*
X108785514Y-147066077D01*
X109102677Y-147540745D01*
X109577345Y-147857908D01*
X109995921Y-147941168D01*
X110278587Y-147941168D01*
X110697163Y-147857908D01*
X111171831Y-147540745D01*
X111407254Y-147188410D01*
X111642677Y-147540745D01*
X112117345Y-147857908D01*
X112535921Y-147941168D01*
X112818587Y-147941168D01*
X113237163Y-147857908D01*
X113711831Y-147540745D01*
X113947254Y-147188410D01*
X114182677Y-147540745D01*
X114657345Y-147857908D01*
X115075921Y-147941168D01*
X115358587Y-147941168D01*
X115777163Y-147857908D01*
X116251831Y-147540745D01*
X116487254Y-147188410D01*
X116722677Y-147540745D01*
X117197345Y-147857908D01*
X117615921Y-147941168D01*
X117898587Y-147941168D01*
X118317163Y-147857908D01*
X118791831Y-147540745D01*
X119027254Y-147188410D01*
X119262677Y-147540745D01*
X119737345Y-147857908D01*
X120155921Y-147941168D01*
X120438587Y-147941168D01*
X120857163Y-147857908D01*
X121331831Y-147540745D01*
X121567254Y-147188410D01*
X121802677Y-147540745D01*
X122277345Y-147857908D01*
X122695921Y-147941168D01*
X122978587Y-147941168D01*
X123397163Y-147857908D01*
X123871831Y-147540745D01*
X124107254Y-147188410D01*
X124342677Y-147540745D01*
X124817345Y-147857908D01*
X125235921Y-147941168D01*
X125518587Y-147941168D01*
X125937163Y-147857908D01*
X126411831Y-147540745D01*
X126647254Y-147188410D01*
X126882677Y-147540745D01*
X127357345Y-147857908D01*
X127775921Y-147941168D01*
X128058587Y-147941168D01*
X128477163Y-147857908D01*
X128951831Y-147540745D01*
X129268994Y-147066077D01*
X129380367Y-146506168D01*
X129268994Y-145946259D01*
X128951831Y-145471591D01*
X128477163Y-145154428D01*
X128058587Y-145071168D01*
X127775921Y-145071168D01*
X127357345Y-145154428D01*
X126882677Y-145471591D01*
X126647254Y-145823926D01*
X126411831Y-145471591D01*
X125937163Y-145154428D01*
X125518587Y-145071168D01*
X125235921Y-145071168D01*
X124817345Y-145154428D01*
X124342677Y-145471591D01*
X124107254Y-145823926D01*
X123871831Y-145471591D01*
X123397163Y-145154428D01*
X122978587Y-145071168D01*
X122695921Y-145071168D01*
X122277345Y-145154428D01*
X121802677Y-145471591D01*
X121567254Y-145823926D01*
X121331831Y-145471591D01*
X120857163Y-145154428D01*
X120438587Y-145071168D01*
X120155921Y-145071168D01*
X119737345Y-145154428D01*
X119262677Y-145471591D01*
X119027254Y-145823926D01*
X118791831Y-145471591D01*
X118317163Y-145154428D01*
X117898587Y-145071168D01*
X117615921Y-145071168D01*
X117197345Y-145154428D01*
X116722677Y-145471591D01*
X116487254Y-145823926D01*
X116251831Y-145471591D01*
X115777163Y-145154428D01*
X115358587Y-145071168D01*
X115075921Y-145071168D01*
X114657345Y-145154428D01*
X114182677Y-145471591D01*
X113947254Y-145823926D01*
X113711831Y-145471591D01*
X113237163Y-145154428D01*
X112818587Y-145071168D01*
X112535921Y-145071168D01*
X112117345Y-145154428D01*
X111642677Y-145471591D01*
X111407254Y-145823926D01*
X111171831Y-145471591D01*
X110697163Y-145154428D01*
X110278587Y-145071168D01*
X109995921Y-145071168D01*
X109577345Y-145154428D01*
X109102677Y-145471591D01*
X108785514Y-145946259D01*
X108674141Y-146506168D01*
X100710000Y-146506168D01*
X100710000Y-139235209D01*
X108745340Y-139235209D01*
X108984865Y-139741302D01*
X109399831Y-140117209D01*
X109788215Y-140278072D01*
X110010254Y-140156083D01*
X110010254Y-139013168D01*
X108866625Y-139013168D01*
X108745340Y-139235209D01*
X100710000Y-139235209D01*
X100710000Y-138537127D01*
X108745340Y-138537127D01*
X108866625Y-138759168D01*
X110010254Y-138759168D01*
X110010254Y-137616253D01*
X109788215Y-137494264D01*
X109399831Y-137655127D01*
X108984865Y-138031034D01*
X108745340Y-138537127D01*
X100710000Y-138537127D01*
X100710000Y-74817503D01*
X104793876Y-74817503D01*
X104793876Y-76617503D01*
X104843159Y-76865268D01*
X104983507Y-77075312D01*
X105193551Y-77215660D01*
X105441316Y-77264943D01*
X105692834Y-77264943D01*
X105793387Y-77415432D01*
X105856846Y-77457834D01*
X106806318Y-78407307D01*
X106806318Y-78708641D01*
X106646646Y-78642503D01*
X106035986Y-78642503D01*
X105471809Y-78876193D01*
X105040006Y-79307996D01*
X104806316Y-79872173D01*
X104806316Y-80482833D01*
X105040006Y-81047010D01*
X105209224Y-81216228D01*
X105193551Y-81219346D01*
X104983507Y-81359694D01*
X104843159Y-81569738D01*
X104793876Y-81817503D01*
X104793876Y-83617503D01*
X104843159Y-83865268D01*
X104983507Y-84075312D01*
X105193551Y-84215660D01*
X105441316Y-84264943D01*
X105692834Y-84264943D01*
X105793387Y-84415432D01*
X105856846Y-84457834D01*
X106806318Y-85407307D01*
X106806318Y-85708641D01*
X106646646Y-85642503D01*
X106035986Y-85642503D01*
X105471809Y-85876193D01*
X105040006Y-86307996D01*
X104806316Y-86872173D01*
X104806316Y-87482833D01*
X105040006Y-88047010D01*
X105209224Y-88216228D01*
X105193551Y-88219346D01*
X104983507Y-88359694D01*
X104843159Y-88569738D01*
X104793876Y-88817503D01*
X104793876Y-90617503D01*
X104843159Y-90865268D01*
X104983507Y-91075312D01*
X105193551Y-91215660D01*
X105441316Y-91264943D01*
X105692834Y-91264943D01*
X105793387Y-91415432D01*
X105856846Y-91457834D01*
X106806318Y-92407307D01*
X106806318Y-92708641D01*
X106646646Y-92642503D01*
X106035986Y-92642503D01*
X105471809Y-92876193D01*
X105040006Y-93307996D01*
X104806316Y-93872173D01*
X104806316Y-94482833D01*
X105040006Y-95047010D01*
X105209224Y-95216228D01*
X105193551Y-95219346D01*
X104983507Y-95359694D01*
X104843159Y-95569738D01*
X104793876Y-95817503D01*
X104793876Y-97617503D01*
X104843159Y-97865268D01*
X104983507Y-98075312D01*
X105193551Y-98215660D01*
X105441316Y-98264943D01*
X105692834Y-98264943D01*
X105793387Y-98415432D01*
X105856846Y-98457834D01*
X106806318Y-99407307D01*
X106806318Y-99708641D01*
X106646646Y-99642503D01*
X106035986Y-99642503D01*
X105471809Y-99876193D01*
X105040006Y-100307996D01*
X104806316Y-100872173D01*
X104806316Y-101482833D01*
X105040006Y-102047010D01*
X105209224Y-102216228D01*
X105193551Y-102219346D01*
X104983507Y-102359694D01*
X104843159Y-102569738D01*
X104793876Y-102817503D01*
X104793876Y-104617503D01*
X104843159Y-104865268D01*
X104983507Y-105075312D01*
X105193551Y-105215660D01*
X105441316Y-105264943D01*
X105692834Y-105264943D01*
X105793387Y-105415432D01*
X105856846Y-105457834D01*
X106806318Y-106407307D01*
X106806318Y-106708641D01*
X106646646Y-106642503D01*
X106035986Y-106642503D01*
X105471809Y-106876193D01*
X105040006Y-107307996D01*
X104806316Y-107872173D01*
X104806316Y-108482833D01*
X105040006Y-109047010D01*
X105209224Y-109216228D01*
X105193551Y-109219346D01*
X104983507Y-109359694D01*
X104843159Y-109569738D01*
X104793876Y-109817503D01*
X104793876Y-111617503D01*
X104843159Y-111865268D01*
X104983507Y-112075312D01*
X105193551Y-112215660D01*
X105441316Y-112264943D01*
X105692834Y-112264943D01*
X105793387Y-112415432D01*
X105856846Y-112457834D01*
X106806318Y-113407307D01*
X106806318Y-113708641D01*
X106646646Y-113642503D01*
X106035986Y-113642503D01*
X105471809Y-113876193D01*
X105040006Y-114307996D01*
X104806316Y-114872173D01*
X104806316Y-115482833D01*
X105040006Y-116047010D01*
X105209224Y-116216228D01*
X105193551Y-116219346D01*
X104983507Y-116359694D01*
X104843159Y-116569738D01*
X104793876Y-116817503D01*
X104793876Y-118617503D01*
X104843159Y-118865268D01*
X104983507Y-119075312D01*
X105193551Y-119215660D01*
X105441316Y-119264943D01*
X105692834Y-119264943D01*
X105793387Y-119415432D01*
X105856846Y-119457834D01*
X106806318Y-120407307D01*
X106806318Y-120708641D01*
X106646646Y-120642503D01*
X106035986Y-120642503D01*
X105471809Y-120876193D01*
X105040006Y-121307996D01*
X104806316Y-121872173D01*
X104806316Y-122482833D01*
X105040006Y-123047010D01*
X105209224Y-123216228D01*
X105193551Y-123219346D01*
X104983507Y-123359694D01*
X104843159Y-123569738D01*
X104793876Y-123817503D01*
X104793876Y-125617503D01*
X104843159Y-125865268D01*
X104983507Y-126075312D01*
X105193551Y-126215660D01*
X105441316Y-126264943D01*
X107241316Y-126264943D01*
X107489081Y-126215660D01*
X107699125Y-126075312D01*
X107729246Y-126030234D01*
X119435275Y-137736264D01*
X119262677Y-137851591D01*
X119027254Y-138203926D01*
X118791831Y-137851591D01*
X118317163Y-137534428D01*
X117898587Y-137451168D01*
X117615921Y-137451168D01*
X117197345Y-137534428D01*
X116722677Y-137851591D01*
X116487254Y-138203926D01*
X116251831Y-137851591D01*
X115777163Y-137534428D01*
X115358587Y-137451168D01*
X115075921Y-137451168D01*
X114657345Y-137534428D01*
X114182677Y-137851591D01*
X113947254Y-138203926D01*
X113711831Y-137851591D01*
X113237163Y-137534428D01*
X112818587Y-137451168D01*
X112535921Y-137451168D01*
X112117345Y-137534428D01*
X111642677Y-137851591D01*
X111386307Y-138235276D01*
X111289643Y-138031034D01*
X110874677Y-137655127D01*
X110486293Y-137494264D01*
X110264254Y-137616253D01*
X110264254Y-138759168D01*
X110284254Y-138759168D01*
X110284254Y-139013168D01*
X110264254Y-139013168D01*
X110264254Y-140156083D01*
X110486293Y-140278072D01*
X110874677Y-140117209D01*
X111289643Y-139741302D01*
X111386307Y-139537060D01*
X111642677Y-139920745D01*
X112117345Y-140237908D01*
X112535921Y-140321168D01*
X112818587Y-140321168D01*
X113237163Y-140237908D01*
X113711831Y-139920745D01*
X113947254Y-139568410D01*
X114182677Y-139920745D01*
X114657345Y-140237908D01*
X115075921Y-140321168D01*
X115358587Y-140321168D01*
X115777163Y-140237908D01*
X116251831Y-139920745D01*
X116487254Y-139568410D01*
X116722677Y-139920745D01*
X117197345Y-140237908D01*
X117615921Y-140321168D01*
X117898587Y-140321168D01*
X118317163Y-140237908D01*
X118791831Y-139920745D01*
X119027254Y-139568410D01*
X119262677Y-139920745D01*
X119737345Y-140237908D01*
X120155921Y-140321168D01*
X120438587Y-140321168D01*
X120857163Y-140237908D01*
X121331831Y-139920745D01*
X121567254Y-139568410D01*
X121802677Y-139920745D01*
X122277345Y-140237908D01*
X122695921Y-140321168D01*
X122978587Y-140321168D01*
X123397163Y-140237908D01*
X123871831Y-139920745D01*
X124107254Y-139568410D01*
X124342677Y-139920745D01*
X124817345Y-140237908D01*
X125235921Y-140321168D01*
X125518587Y-140321168D01*
X125937163Y-140237908D01*
X126411831Y-139920745D01*
X126492469Y-139800062D01*
X126519097Y-139933933D01*
X126659445Y-140143977D01*
X126869489Y-140284325D01*
X127117254Y-140333608D01*
X128717254Y-140333608D01*
X128965019Y-140284325D01*
X129175063Y-140143977D01*
X129315411Y-139933933D01*
X129364694Y-139686168D01*
X129364694Y-138521167D01*
X134738413Y-138521167D01*
X136043734Y-139826489D01*
X135872203Y-139826489D01*
X135453627Y-139909749D01*
X134978959Y-140226912D01*
X134661796Y-140701580D01*
X134550423Y-141261489D01*
X134661796Y-141821398D01*
X134978959Y-142296066D01*
X135453627Y-142613229D01*
X135872203Y-142696489D01*
X136154869Y-142696489D01*
X136573445Y-142613229D01*
X137048113Y-142296066D01*
X137283536Y-141943731D01*
X137518959Y-142296066D01*
X137872758Y-142532467D01*
X135529064Y-144876162D01*
X135465608Y-144918562D01*
X135423208Y-144982018D01*
X135423207Y-144982019D01*
X135297633Y-145169954D01*
X135238648Y-145466491D01*
X135253537Y-145541343D01*
X135253536Y-147434049D01*
X135213536Y-147434049D01*
X134965771Y-147483332D01*
X134755727Y-147623680D01*
X134615379Y-147833724D01*
X134566096Y-148081489D01*
X134566096Y-149681489D01*
X134615379Y-149929254D01*
X134755727Y-150139298D01*
X134965771Y-150279646D01*
X135213536Y-150328929D01*
X136813536Y-150328929D01*
X137061301Y-150279646D01*
X137271345Y-150139298D01*
X137411693Y-149929254D01*
X137438321Y-149795383D01*
X137518959Y-149916066D01*
X137993627Y-150233229D01*
X138412203Y-150316489D01*
X138694869Y-150316489D01*
X139113445Y-150233229D01*
X139588113Y-149916066D01*
X139823536Y-149563731D01*
X140058959Y-149916066D01*
X140533627Y-150233229D01*
X140952203Y-150316489D01*
X141234869Y-150316489D01*
X141653445Y-150233229D01*
X142128113Y-149916066D01*
X142363536Y-149563731D01*
X142598959Y-149916066D01*
X143073627Y-150233229D01*
X143492203Y-150316489D01*
X143774869Y-150316489D01*
X144193445Y-150233229D01*
X144668113Y-149916066D01*
X144903536Y-149563731D01*
X145138959Y-149916066D01*
X145613627Y-150233229D01*
X146032203Y-150316489D01*
X146314869Y-150316489D01*
X146733445Y-150233229D01*
X147208113Y-149916066D01*
X147443536Y-149563731D01*
X147678959Y-149916066D01*
X148153627Y-150233229D01*
X148572203Y-150316489D01*
X148854869Y-150316489D01*
X149273445Y-150233229D01*
X149748113Y-149916066D01*
X149983536Y-149563731D01*
X150218959Y-149916066D01*
X150693627Y-150233229D01*
X151112203Y-150316489D01*
X151394869Y-150316489D01*
X151813445Y-150233229D01*
X152288113Y-149916066D01*
X152544483Y-149532381D01*
X152641147Y-149736623D01*
X153056113Y-150112530D01*
X153444497Y-150273393D01*
X153666536Y-150151404D01*
X153666536Y-149008489D01*
X153920536Y-149008489D01*
X153920536Y-150151404D01*
X154142575Y-150273393D01*
X154530959Y-150112530D01*
X154945925Y-149736623D01*
X155185450Y-149230530D01*
X155064165Y-149008489D01*
X153920536Y-149008489D01*
X153666536Y-149008489D01*
X153646536Y-149008489D01*
X153646536Y-148754489D01*
X153666536Y-148754489D01*
X153666536Y-147611574D01*
X153920536Y-147611574D01*
X153920536Y-148754489D01*
X155064165Y-148754489D01*
X155185450Y-148532448D01*
X154945925Y-148026355D01*
X154530959Y-147650448D01*
X154142575Y-147489585D01*
X153920536Y-147611574D01*
X153666536Y-147611574D01*
X153622465Y-147587361D01*
X155825789Y-145384038D01*
X155889245Y-145341638D01*
X156057220Y-145090246D01*
X156101316Y-144868561D01*
X156101316Y-144868556D01*
X156116204Y-144793709D01*
X156101316Y-144718862D01*
X156101316Y-126264943D01*
X156241316Y-126264943D01*
X156489081Y-126215660D01*
X156699125Y-126075312D01*
X156839473Y-125865268D01*
X156888756Y-125617503D01*
X156888756Y-123817503D01*
X156839473Y-123569738D01*
X156838436Y-123568186D01*
X157050790Y-123355833D01*
X157114246Y-123313433D01*
X157282221Y-123062041D01*
X157326317Y-122840356D01*
X157326317Y-122840352D01*
X157341205Y-122765505D01*
X157326317Y-122690658D01*
X157326317Y-120167350D01*
X157341205Y-120092503D01*
X157326317Y-120017656D01*
X157326317Y-120017652D01*
X157282221Y-119795967D01*
X157114246Y-119544575D01*
X157050790Y-119502175D01*
X156654047Y-119105432D01*
X156699125Y-119075312D01*
X156839473Y-118865268D01*
X156888756Y-118617503D01*
X156888756Y-116817503D01*
X156839473Y-116569738D01*
X156838436Y-116568186D01*
X157050790Y-116355833D01*
X157114246Y-116313433D01*
X157282221Y-116062041D01*
X157326317Y-115840356D01*
X157326317Y-115840352D01*
X157341205Y-115765505D01*
X157326317Y-115690658D01*
X157326317Y-113074971D01*
X157341205Y-113000124D01*
X157326317Y-112925277D01*
X157326317Y-112925273D01*
X157282221Y-112703588D01*
X157175972Y-112544575D01*
X157156646Y-112515651D01*
X157156644Y-112515649D01*
X157114246Y-112452196D01*
X157050792Y-112409798D01*
X156746426Y-112105432D01*
X156791504Y-112075312D01*
X156931852Y-111865268D01*
X156981135Y-111617503D01*
X156981135Y-109817503D01*
X156931852Y-109569738D01*
X156930815Y-109568186D01*
X157143169Y-109355833D01*
X157206625Y-109313433D01*
X157374600Y-109062041D01*
X157418696Y-108840356D01*
X157418696Y-108840352D01*
X157433584Y-108765505D01*
X157418696Y-108690658D01*
X157418696Y-106259731D01*
X157433584Y-106184883D01*
X157418696Y-106110035D01*
X157418696Y-106110031D01*
X157374600Y-105888346D01*
X157374600Y-105888345D01*
X157249025Y-105700410D01*
X157206625Y-105636954D01*
X157143169Y-105594554D01*
X156654047Y-105105432D01*
X156699125Y-105075312D01*
X156839473Y-104865268D01*
X156888756Y-104617503D01*
X156888756Y-102817503D01*
X156839473Y-102569738D01*
X156838436Y-102568186D01*
X157050790Y-102355833D01*
X157114246Y-102313433D01*
X157282221Y-102062041D01*
X157326317Y-101840356D01*
X157326317Y-101840352D01*
X157341205Y-101765505D01*
X157326317Y-101690658D01*
X157326317Y-99167350D01*
X157341205Y-99092503D01*
X157326317Y-99017656D01*
X157326317Y-99017652D01*
X157282221Y-98795967D01*
X157114246Y-98544575D01*
X157050790Y-98502175D01*
X156654047Y-98105432D01*
X156699125Y-98075312D01*
X156839473Y-97865268D01*
X156888756Y-97617503D01*
X156888756Y-95817503D01*
X156839473Y-95569738D01*
X156838436Y-95568186D01*
X157050790Y-95355833D01*
X157114246Y-95313433D01*
X157282221Y-95062041D01*
X157326317Y-94840356D01*
X157326317Y-94840352D01*
X157341205Y-94765505D01*
X157326317Y-94690658D01*
X157326317Y-92167350D01*
X157341205Y-92092503D01*
X157326317Y-92017656D01*
X157326317Y-92017652D01*
X157282221Y-91795967D01*
X157114246Y-91544575D01*
X157050790Y-91502175D01*
X156654047Y-91105432D01*
X156699125Y-91075312D01*
X156839473Y-90865268D01*
X156888756Y-90617503D01*
X156888756Y-88817503D01*
X156839473Y-88569738D01*
X156838436Y-88568186D01*
X157050790Y-88355833D01*
X157114246Y-88313433D01*
X157282221Y-88062041D01*
X157326317Y-87840356D01*
X157326317Y-87840352D01*
X157341205Y-87765505D01*
X157326317Y-87690658D01*
X157326317Y-85167350D01*
X157341205Y-85092503D01*
X157326317Y-85017656D01*
X157326317Y-85017652D01*
X157282221Y-84795967D01*
X157114246Y-84544575D01*
X157050790Y-84502175D01*
X156654047Y-84105432D01*
X156699125Y-84075312D01*
X156839473Y-83865268D01*
X156888756Y-83617503D01*
X156888756Y-81817503D01*
X156839473Y-81569738D01*
X156838436Y-81568186D01*
X157050790Y-81355833D01*
X157114246Y-81313433D01*
X157282221Y-81062041D01*
X157326317Y-80840356D01*
X157326317Y-80840352D01*
X157341205Y-80765505D01*
X157326317Y-80690658D01*
X157326317Y-78167350D01*
X157341205Y-78092503D01*
X157326317Y-78017656D01*
X157326317Y-78017652D01*
X157282221Y-77795967D01*
X157114246Y-77544575D01*
X157050790Y-77502175D01*
X156654047Y-77105432D01*
X156699125Y-77075312D01*
X156839473Y-76865268D01*
X156888756Y-76617503D01*
X156888756Y-74817503D01*
X156839473Y-74569738D01*
X156699125Y-74359694D01*
X156489081Y-74219346D01*
X156473408Y-74216228D01*
X156642626Y-74047010D01*
X156876316Y-73482833D01*
X156876316Y-72872173D01*
X156642626Y-72307996D01*
X156210823Y-71876193D01*
X155646646Y-71642503D01*
X155035986Y-71642503D01*
X154471809Y-71876193D01*
X154040006Y-72307996D01*
X153806316Y-72872173D01*
X153806316Y-73482833D01*
X154040006Y-74047010D01*
X154209224Y-74216228D01*
X154193551Y-74219346D01*
X153983507Y-74359694D01*
X153843159Y-74569738D01*
X153793876Y-74817503D01*
X153793876Y-76617503D01*
X153843159Y-76865268D01*
X153983507Y-77075312D01*
X154193551Y-77215660D01*
X154441316Y-77264943D01*
X154692834Y-77264943D01*
X154793387Y-77415432D01*
X154856846Y-77457834D01*
X155806318Y-78407307D01*
X155806318Y-78708641D01*
X155646646Y-78642503D01*
X155035986Y-78642503D01*
X154471809Y-78876193D01*
X154040006Y-79307996D01*
X153806316Y-79872173D01*
X153806316Y-80482833D01*
X154040006Y-81047010D01*
X154209224Y-81216228D01*
X154193551Y-81219346D01*
X153983507Y-81359694D01*
X153843159Y-81569738D01*
X153793876Y-81817503D01*
X153793876Y-83617503D01*
X153843159Y-83865268D01*
X153983507Y-84075312D01*
X154193551Y-84215660D01*
X154441316Y-84264943D01*
X154692834Y-84264943D01*
X154793387Y-84415432D01*
X154856846Y-84457834D01*
X155806318Y-85407307D01*
X155806318Y-85708641D01*
X155646646Y-85642503D01*
X155035986Y-85642503D01*
X154471809Y-85876193D01*
X154040006Y-86307996D01*
X153806316Y-86872173D01*
X153806316Y-87482833D01*
X154040006Y-88047010D01*
X154209224Y-88216228D01*
X154193551Y-88219346D01*
X153983507Y-88359694D01*
X153843159Y-88569738D01*
X153793876Y-88817503D01*
X153793876Y-90617503D01*
X153843159Y-90865268D01*
X153983507Y-91075312D01*
X154193551Y-91215660D01*
X154441316Y-91264943D01*
X154692834Y-91264943D01*
X154793387Y-91415432D01*
X154856846Y-91457834D01*
X155806318Y-92407307D01*
X155806318Y-92708641D01*
X155646646Y-92642503D01*
X155035986Y-92642503D01*
X154471809Y-92876193D01*
X154040006Y-93307996D01*
X153806316Y-93872173D01*
X153806316Y-94482833D01*
X154040006Y-95047010D01*
X154209224Y-95216228D01*
X154193551Y-95219346D01*
X153983507Y-95359694D01*
X153843159Y-95569738D01*
X153793876Y-95817503D01*
X153793876Y-97617503D01*
X153843159Y-97865268D01*
X153983507Y-98075312D01*
X154193551Y-98215660D01*
X154441316Y-98264943D01*
X154692834Y-98264943D01*
X154793387Y-98415432D01*
X154856846Y-98457834D01*
X155806318Y-99407307D01*
X155806318Y-99708641D01*
X155646646Y-99642503D01*
X155035986Y-99642503D01*
X154471809Y-99876193D01*
X154040006Y-100307996D01*
X153806316Y-100872173D01*
X153806316Y-101482833D01*
X154040006Y-102047010D01*
X154209224Y-102216228D01*
X154193551Y-102219346D01*
X153983507Y-102359694D01*
X153843159Y-102569738D01*
X153793876Y-102817503D01*
X153793876Y-104617503D01*
X153843159Y-104865268D01*
X153983507Y-105075312D01*
X154193551Y-105215660D01*
X154441316Y-105264943D01*
X154692834Y-105264943D01*
X154793387Y-105415432D01*
X154856846Y-105457834D01*
X155898697Y-106499686D01*
X155898697Y-106708641D01*
X155739025Y-106642503D01*
X155128365Y-106642503D01*
X154564188Y-106876193D01*
X154132385Y-107307996D01*
X153898695Y-107872173D01*
X153898695Y-108482833D01*
X154132385Y-109047010D01*
X154301603Y-109216228D01*
X154285930Y-109219346D01*
X154075886Y-109359694D01*
X153935538Y-109569738D01*
X153886255Y-109817503D01*
X153886255Y-111617503D01*
X153935538Y-111865268D01*
X154075886Y-112075312D01*
X154285930Y-112215660D01*
X154533695Y-112264943D01*
X154785213Y-112264943D01*
X154885766Y-112415432D01*
X154949225Y-112457834D01*
X155806318Y-113314928D01*
X155806318Y-113708641D01*
X155646646Y-113642503D01*
X155035986Y-113642503D01*
X154471809Y-113876193D01*
X154040006Y-114307996D01*
X153806316Y-114872173D01*
X153806316Y-115482833D01*
X154040006Y-116047010D01*
X154209224Y-116216228D01*
X154193551Y-116219346D01*
X153983507Y-116359694D01*
X153843159Y-116569738D01*
X153793876Y-116817503D01*
X153793876Y-118617503D01*
X153843159Y-118865268D01*
X153983507Y-119075312D01*
X154193551Y-119215660D01*
X154441316Y-119264943D01*
X154692834Y-119264943D01*
X154793387Y-119415432D01*
X154856846Y-119457834D01*
X155806318Y-120407307D01*
X155806318Y-120708641D01*
X155646646Y-120642503D01*
X155035986Y-120642503D01*
X154471809Y-120876193D01*
X154040006Y-121307996D01*
X153806316Y-121872173D01*
X153806316Y-122482833D01*
X154040006Y-123047010D01*
X154209224Y-123216228D01*
X154193551Y-123219346D01*
X153983507Y-123359694D01*
X153843159Y-123569738D01*
X153793876Y-123817503D01*
X153793876Y-125617503D01*
X153843159Y-125865268D01*
X153983507Y-126075312D01*
X154193551Y-126215660D01*
X154441316Y-126264943D01*
X154581317Y-126264943D01*
X154581316Y-140062008D01*
X154353445Y-139909749D01*
X153934869Y-139826489D01*
X153652203Y-139826489D01*
X153233627Y-139909749D01*
X153138537Y-139973286D01*
X153138537Y-129979572D01*
X153153425Y-129904724D01*
X153138537Y-129829876D01*
X153138537Y-129829872D01*
X153094441Y-129608187D01*
X153094441Y-129608186D01*
X152968866Y-129420251D01*
X152926466Y-129356795D01*
X152863010Y-129314395D01*
X149654047Y-126105433D01*
X149699125Y-126075312D01*
X149839473Y-125865268D01*
X149888756Y-125617503D01*
X149888756Y-123817503D01*
X149839473Y-123569738D01*
X149838436Y-123568186D01*
X150050790Y-123355833D01*
X150114246Y-123313433D01*
X150282221Y-123062041D01*
X150326317Y-122840356D01*
X150326317Y-122840352D01*
X150341205Y-122765505D01*
X150326317Y-122690658D01*
X150326317Y-120167350D01*
X150341205Y-120092503D01*
X150326317Y-120017656D01*
X150326317Y-120017652D01*
X150282221Y-119795967D01*
X150114246Y-119544575D01*
X150050790Y-119502175D01*
X149654047Y-119105432D01*
X149699125Y-119075312D01*
X149839473Y-118865268D01*
X149888756Y-118617503D01*
X149888756Y-116817503D01*
X149839473Y-116569738D01*
X149838436Y-116568186D01*
X150050790Y-116355833D01*
X150114246Y-116313433D01*
X150282221Y-116062041D01*
X150326317Y-115840356D01*
X150326317Y-115840352D01*
X150341205Y-115765505D01*
X150326317Y-115690658D01*
X150326317Y-113167350D01*
X150341205Y-113092503D01*
X150326317Y-113017656D01*
X150326317Y-113017652D01*
X150282221Y-112795967D01*
X150114246Y-112544575D01*
X150050790Y-112502175D01*
X149654047Y-112105432D01*
X149699125Y-112075312D01*
X149839473Y-111865268D01*
X149888756Y-111617503D01*
X149888756Y-109817503D01*
X149839473Y-109569738D01*
X149838436Y-109568186D01*
X150050790Y-109355833D01*
X150114246Y-109313433D01*
X150282221Y-109062041D01*
X150326317Y-108840356D01*
X150326317Y-108840352D01*
X150341205Y-108765505D01*
X150326317Y-108690658D01*
X150326317Y-106167350D01*
X150341205Y-106092503D01*
X150326317Y-106017656D01*
X150326317Y-106017652D01*
X150282221Y-105795967D01*
X150114246Y-105544575D01*
X150050790Y-105502175D01*
X149654047Y-105105432D01*
X149699125Y-105075312D01*
X149839473Y-104865268D01*
X149888756Y-104617503D01*
X149888756Y-102817503D01*
X149839473Y-102569738D01*
X149838436Y-102568186D01*
X150050790Y-102355833D01*
X150114246Y-102313433D01*
X150282221Y-102062041D01*
X150326317Y-101840356D01*
X150326317Y-101840352D01*
X150341205Y-101765505D01*
X150326317Y-101690658D01*
X150326317Y-99167350D01*
X150341205Y-99092503D01*
X150326317Y-99017656D01*
X150326317Y-99017652D01*
X150282221Y-98795967D01*
X150114246Y-98544575D01*
X150050790Y-98502175D01*
X149654047Y-98105432D01*
X149699125Y-98075312D01*
X149839473Y-97865268D01*
X149888756Y-97617503D01*
X149888756Y-95817503D01*
X149839473Y-95569738D01*
X149838436Y-95568186D01*
X150050790Y-95355833D01*
X150114246Y-95313433D01*
X150282221Y-95062041D01*
X150326317Y-94840356D01*
X150326317Y-94840352D01*
X150341205Y-94765505D01*
X150326317Y-94690658D01*
X150326317Y-92167350D01*
X150341205Y-92092503D01*
X150326317Y-92017656D01*
X150326317Y-92017652D01*
X150282221Y-91795967D01*
X150114246Y-91544575D01*
X150050790Y-91502175D01*
X149654047Y-91105432D01*
X149699125Y-91075312D01*
X149839473Y-90865268D01*
X149888756Y-90617503D01*
X149888756Y-88817503D01*
X149839473Y-88569738D01*
X149838436Y-88568186D01*
X150050790Y-88355833D01*
X150114246Y-88313433D01*
X150282221Y-88062041D01*
X150326317Y-87840356D01*
X150326317Y-87840352D01*
X150341205Y-87765505D01*
X150326317Y-87690658D01*
X150326317Y-85167350D01*
X150341205Y-85092503D01*
X150326317Y-85017656D01*
X150326317Y-85017652D01*
X150282221Y-84795967D01*
X150114246Y-84544575D01*
X150050790Y-84502175D01*
X149654047Y-84105432D01*
X149699125Y-84075312D01*
X149839473Y-83865268D01*
X149888756Y-83617503D01*
X149888756Y-81817503D01*
X149839473Y-81569738D01*
X149838436Y-81568186D01*
X150050790Y-81355833D01*
X150114246Y-81313433D01*
X150282221Y-81062041D01*
X150326317Y-80840356D01*
X150326317Y-80840352D01*
X150341205Y-80765505D01*
X150326317Y-80690658D01*
X150326317Y-78167350D01*
X150341205Y-78092503D01*
X150326317Y-78017656D01*
X150326317Y-78017652D01*
X150282221Y-77795967D01*
X150114246Y-77544575D01*
X150050790Y-77502175D01*
X149654047Y-77105432D01*
X149699125Y-77075312D01*
X149839473Y-76865268D01*
X149888756Y-76617503D01*
X149888756Y-74817503D01*
X149839473Y-74569738D01*
X149699125Y-74359694D01*
X149489081Y-74219346D01*
X149473408Y-74216228D01*
X149642626Y-74047010D01*
X149876316Y-73482833D01*
X149876316Y-72872173D01*
X149642626Y-72307996D01*
X149210823Y-71876193D01*
X148646646Y-71642503D01*
X148035986Y-71642503D01*
X147471809Y-71876193D01*
X147040006Y-72307996D01*
X146806316Y-72872173D01*
X146806316Y-73482833D01*
X147040006Y-74047010D01*
X147209224Y-74216228D01*
X147193551Y-74219346D01*
X146983507Y-74359694D01*
X146843159Y-74569738D01*
X146793876Y-74817503D01*
X146793876Y-76617503D01*
X146843159Y-76865268D01*
X146983507Y-77075312D01*
X147193551Y-77215660D01*
X147441316Y-77264943D01*
X147692834Y-77264943D01*
X147793387Y-77415432D01*
X147856846Y-77457834D01*
X148806318Y-78407307D01*
X148806318Y-78708641D01*
X148646646Y-78642503D01*
X148035986Y-78642503D01*
X147471809Y-78876193D01*
X147040006Y-79307996D01*
X146806316Y-79872173D01*
X146806316Y-80482833D01*
X147040006Y-81047010D01*
X147209224Y-81216228D01*
X147193551Y-81219346D01*
X146983507Y-81359694D01*
X146843159Y-81569738D01*
X146793876Y-81817503D01*
X146793876Y-83617503D01*
X146843159Y-83865268D01*
X146983507Y-84075312D01*
X147193551Y-84215660D01*
X147441316Y-84264943D01*
X147692834Y-84264943D01*
X147793387Y-84415432D01*
X147856846Y-84457834D01*
X148806318Y-85407307D01*
X148806318Y-85708641D01*
X148646646Y-85642503D01*
X148035986Y-85642503D01*
X147471809Y-85876193D01*
X147040006Y-86307996D01*
X146806316Y-86872173D01*
X146806316Y-87482833D01*
X147040006Y-88047010D01*
X147209224Y-88216228D01*
X147193551Y-88219346D01*
X146983507Y-88359694D01*
X146843159Y-88569738D01*
X146793876Y-88817503D01*
X146793876Y-90617503D01*
X146843159Y-90865268D01*
X146983507Y-91075312D01*
X147193551Y-91215660D01*
X147441316Y-91264943D01*
X147692834Y-91264943D01*
X147793387Y-91415432D01*
X147856846Y-91457834D01*
X148806318Y-92407307D01*
X148806318Y-92708641D01*
X148646646Y-92642503D01*
X148035986Y-92642503D01*
X147471809Y-92876193D01*
X147040006Y-93307996D01*
X146806316Y-93872173D01*
X146806316Y-94482833D01*
X147040006Y-95047010D01*
X147209224Y-95216228D01*
X147193551Y-95219346D01*
X146983507Y-95359694D01*
X146843159Y-95569738D01*
X146793876Y-95817503D01*
X146793876Y-97617503D01*
X146843159Y-97865268D01*
X146983507Y-98075312D01*
X147193551Y-98215660D01*
X147441316Y-98264943D01*
X147692834Y-98264943D01*
X147793387Y-98415432D01*
X147856846Y-98457834D01*
X148806318Y-99407307D01*
X148806318Y-99708641D01*
X148646646Y-99642503D01*
X148035986Y-99642503D01*
X147471809Y-99876193D01*
X147040006Y-100307996D01*
X146806316Y-100872173D01*
X146806316Y-101482833D01*
X147040006Y-102047010D01*
X147209224Y-102216228D01*
X147193551Y-102219346D01*
X146983507Y-102359694D01*
X146843159Y-102569738D01*
X146793876Y-102817503D01*
X146793876Y-104617503D01*
X146843159Y-104865268D01*
X146983507Y-105075312D01*
X147193551Y-105215660D01*
X147441316Y-105264943D01*
X147692834Y-105264943D01*
X147793387Y-105415432D01*
X147856846Y-105457834D01*
X148806318Y-106407307D01*
X148806318Y-106708641D01*
X148646646Y-106642503D01*
X148035986Y-106642503D01*
X147471809Y-106876193D01*
X147040006Y-107307996D01*
X146806316Y-107872173D01*
X146806316Y-108482833D01*
X147040006Y-109047010D01*
X147209224Y-109216228D01*
X147193551Y-109219346D01*
X146983507Y-109359694D01*
X146843159Y-109569738D01*
X146793876Y-109817503D01*
X146793876Y-111617503D01*
X146843159Y-111865268D01*
X146983507Y-112075312D01*
X147193551Y-112215660D01*
X147441316Y-112264943D01*
X147692834Y-112264943D01*
X147793387Y-112415432D01*
X147856846Y-112457834D01*
X148806318Y-113407307D01*
X148806318Y-113708641D01*
X148646646Y-113642503D01*
X148035986Y-113642503D01*
X147471809Y-113876193D01*
X147040006Y-114307996D01*
X146806316Y-114872173D01*
X146806316Y-115482833D01*
X147040006Y-116047010D01*
X147209224Y-116216228D01*
X147193551Y-116219346D01*
X146983507Y-116359694D01*
X146843159Y-116569738D01*
X146793876Y-116817503D01*
X146793876Y-118617503D01*
X146843159Y-118865268D01*
X146983507Y-119075312D01*
X147193551Y-119215660D01*
X147441316Y-119264943D01*
X147692834Y-119264943D01*
X147793387Y-119415432D01*
X147856846Y-119457834D01*
X148806318Y-120407307D01*
X148806318Y-120708641D01*
X148646646Y-120642503D01*
X148035986Y-120642503D01*
X147471809Y-120876193D01*
X147040006Y-121307996D01*
X146806316Y-121872173D01*
X146806316Y-122482833D01*
X147040006Y-123047010D01*
X147209224Y-123216228D01*
X147193551Y-123219346D01*
X146983507Y-123359694D01*
X146843159Y-123569738D01*
X146793876Y-123817503D01*
X146793876Y-125617503D01*
X146843159Y-125865268D01*
X146983507Y-126075312D01*
X147193551Y-126215660D01*
X147441316Y-126264943D01*
X147692834Y-126264943D01*
X147793387Y-126415432D01*
X147856846Y-126457834D01*
X151618538Y-130219527D01*
X151618537Y-139870979D01*
X151394869Y-139826489D01*
X151112203Y-139826489D01*
X150693627Y-139909749D01*
X150598537Y-139973286D01*
X150598537Y-138710338D01*
X150613425Y-138635490D01*
X150598537Y-138560642D01*
X150598537Y-138560638D01*
X150554441Y-138338953D01*
X150554441Y-138338952D01*
X150428866Y-138151017D01*
X150386466Y-138087561D01*
X150323010Y-138045161D01*
X147563946Y-135286098D01*
X147592954Y-135280328D01*
X148084161Y-134952114D01*
X148096352Y-134933870D01*
X148105379Y-134979254D01*
X148245727Y-135189298D01*
X148455771Y-135329646D01*
X148703536Y-135378929D01*
X150403536Y-135378929D01*
X150651301Y-135329646D01*
X150861345Y-135189298D01*
X151001693Y-134979254D01*
X151050976Y-134731489D01*
X151050976Y-133031489D01*
X151001693Y-132783724D01*
X150861345Y-132573680D01*
X150651301Y-132433332D01*
X150403536Y-132384049D01*
X148703536Y-132384049D01*
X148455771Y-132433332D01*
X148245727Y-132573680D01*
X148105379Y-132783724D01*
X148096352Y-132829108D01*
X148084161Y-132810864D01*
X147592954Y-132482650D01*
X147159792Y-132396489D01*
X146867280Y-132396489D01*
X146434118Y-132482650D01*
X146408537Y-132499743D01*
X146408537Y-130249570D01*
X146423425Y-130174723D01*
X146408537Y-130099876D01*
X146408537Y-130099872D01*
X146364441Y-129878187D01*
X146322639Y-129815626D01*
X146238866Y-129690250D01*
X146238864Y-129690248D01*
X146196466Y-129626795D01*
X146133013Y-129584397D01*
X142654047Y-126105432D01*
X142699125Y-126075312D01*
X142839473Y-125865268D01*
X142888756Y-125617503D01*
X142888756Y-123817503D01*
X142839473Y-123569738D01*
X142838436Y-123568186D01*
X143050790Y-123355833D01*
X143114246Y-123313433D01*
X143282221Y-123062041D01*
X143326317Y-122840356D01*
X143326317Y-122840352D01*
X143341205Y-122765505D01*
X143326317Y-122690658D01*
X143326317Y-120167350D01*
X143341205Y-120092503D01*
X143326317Y-120017656D01*
X143326317Y-120017652D01*
X143282221Y-119795967D01*
X143114246Y-119544575D01*
X143050790Y-119502175D01*
X142654047Y-119105432D01*
X142699125Y-119075312D01*
X142839473Y-118865268D01*
X142888756Y-118617503D01*
X142888756Y-116817503D01*
X142839473Y-116569738D01*
X142838436Y-116568186D01*
X143050790Y-116355833D01*
X143114246Y-116313433D01*
X143282221Y-116062041D01*
X143326317Y-115840356D01*
X143326317Y-115840352D01*
X143341205Y-115765505D01*
X143326317Y-115690658D01*
X143326317Y-113167350D01*
X143341205Y-113092503D01*
X143326317Y-113017656D01*
X143326317Y-113017652D01*
X143282221Y-112795967D01*
X143114246Y-112544575D01*
X143050790Y-112502175D01*
X142654047Y-112105432D01*
X142699125Y-112075312D01*
X142839473Y-111865268D01*
X142888756Y-111617503D01*
X142888756Y-109817503D01*
X142839473Y-109569738D01*
X142838436Y-109568186D01*
X143050790Y-109355833D01*
X143114246Y-109313433D01*
X143282221Y-109062041D01*
X143326317Y-108840356D01*
X143326317Y-108840352D01*
X143341205Y-108765505D01*
X143326317Y-108690658D01*
X143326317Y-106167350D01*
X143341205Y-106092503D01*
X143326317Y-106017656D01*
X143326317Y-106017652D01*
X143282221Y-105795967D01*
X143114246Y-105544575D01*
X143050790Y-105502175D01*
X142654047Y-105105432D01*
X142699125Y-105075312D01*
X142839473Y-104865268D01*
X142888756Y-104617503D01*
X142888756Y-102817503D01*
X142839473Y-102569738D01*
X142838436Y-102568186D01*
X143050790Y-102355833D01*
X143114246Y-102313433D01*
X143282221Y-102062041D01*
X143326317Y-101840356D01*
X143326317Y-101840352D01*
X143341205Y-101765505D01*
X143326317Y-101690658D01*
X143326317Y-99167350D01*
X143341205Y-99092503D01*
X143326317Y-99017656D01*
X143326317Y-99017652D01*
X143282221Y-98795967D01*
X143114246Y-98544575D01*
X143050790Y-98502175D01*
X142654047Y-98105432D01*
X142699125Y-98075312D01*
X142839473Y-97865268D01*
X142888756Y-97617503D01*
X142888756Y-95817503D01*
X142839473Y-95569738D01*
X142838436Y-95568186D01*
X143050790Y-95355833D01*
X143114246Y-95313433D01*
X143282221Y-95062041D01*
X143326317Y-94840356D01*
X143326317Y-94840352D01*
X143341205Y-94765505D01*
X143326317Y-94690658D01*
X143326317Y-92167350D01*
X143341205Y-92092503D01*
X143326317Y-92017656D01*
X143326317Y-92017652D01*
X143282221Y-91795967D01*
X143114246Y-91544575D01*
X143050790Y-91502175D01*
X142654047Y-91105432D01*
X142699125Y-91075312D01*
X142839473Y-90865268D01*
X142888756Y-90617503D01*
X142888756Y-88817503D01*
X142839473Y-88569738D01*
X142838436Y-88568186D01*
X143050790Y-88355833D01*
X143114246Y-88313433D01*
X143282221Y-88062041D01*
X143326317Y-87840356D01*
X143326317Y-87840352D01*
X143341205Y-87765505D01*
X143326317Y-87690658D01*
X143326317Y-85167350D01*
X143341205Y-85092503D01*
X143326317Y-85017656D01*
X143326317Y-85017652D01*
X143282221Y-84795967D01*
X143114246Y-84544575D01*
X143050790Y-84502175D01*
X142654047Y-84105432D01*
X142699125Y-84075312D01*
X142839473Y-83865268D01*
X142888756Y-83617503D01*
X142888756Y-81817503D01*
X142839473Y-81569738D01*
X142838436Y-81568186D01*
X143050790Y-81355833D01*
X143114246Y-81313433D01*
X143282221Y-81062041D01*
X143326317Y-80840356D01*
X143326317Y-80840352D01*
X143341205Y-80765505D01*
X143326317Y-80690658D01*
X143326317Y-78167350D01*
X143341205Y-78092503D01*
X143326317Y-78017656D01*
X143326317Y-78017652D01*
X143282221Y-77795967D01*
X143114246Y-77544575D01*
X143050790Y-77502175D01*
X142654047Y-77105432D01*
X142699125Y-77075312D01*
X142839473Y-76865268D01*
X142888756Y-76617503D01*
X142888756Y-74817503D01*
X142839473Y-74569738D01*
X142699125Y-74359694D01*
X142489081Y-74219346D01*
X142473408Y-74216228D01*
X142642626Y-74047010D01*
X142876316Y-73482833D01*
X142876316Y-72872173D01*
X142642626Y-72307996D01*
X142210823Y-71876193D01*
X141646646Y-71642503D01*
X141035986Y-71642503D01*
X140471809Y-71876193D01*
X140040006Y-72307996D01*
X139806316Y-72872173D01*
X139806316Y-73482833D01*
X140040006Y-74047010D01*
X140209224Y-74216228D01*
X140193551Y-74219346D01*
X139983507Y-74359694D01*
X139843159Y-74569738D01*
X139793876Y-74817503D01*
X139793876Y-76617503D01*
X139843159Y-76865268D01*
X139983507Y-77075312D01*
X140193551Y-77215660D01*
X140441316Y-77264943D01*
X140692834Y-77264943D01*
X140793387Y-77415432D01*
X140856846Y-77457834D01*
X141806318Y-78407307D01*
X141806318Y-78708641D01*
X141646646Y-78642503D01*
X141035986Y-78642503D01*
X140471809Y-78876193D01*
X140040006Y-79307996D01*
X139806316Y-79872173D01*
X139806316Y-80482833D01*
X140040006Y-81047010D01*
X140209224Y-81216228D01*
X140193551Y-81219346D01*
X139983507Y-81359694D01*
X139843159Y-81569738D01*
X139793876Y-81817503D01*
X139793876Y-83617503D01*
X139843159Y-83865268D01*
X139983507Y-84075312D01*
X140193551Y-84215660D01*
X140441316Y-84264943D01*
X140692834Y-84264943D01*
X140793387Y-84415432D01*
X140856846Y-84457834D01*
X141806318Y-85407307D01*
X141806318Y-85708641D01*
X141646646Y-85642503D01*
X141035986Y-85642503D01*
X140471809Y-85876193D01*
X140040006Y-86307996D01*
X139806316Y-86872173D01*
X139806316Y-87482833D01*
X140040006Y-88047010D01*
X140209224Y-88216228D01*
X140193551Y-88219346D01*
X139983507Y-88359694D01*
X139843159Y-88569738D01*
X139793876Y-88817503D01*
X139793876Y-90617503D01*
X139843159Y-90865268D01*
X139983507Y-91075312D01*
X140193551Y-91215660D01*
X140441316Y-91264943D01*
X140692834Y-91264943D01*
X140793387Y-91415432D01*
X140856846Y-91457834D01*
X141806318Y-92407307D01*
X141806318Y-92708641D01*
X141646646Y-92642503D01*
X141035986Y-92642503D01*
X140471809Y-92876193D01*
X140040006Y-93307996D01*
X139806316Y-93872173D01*
X139806316Y-94482833D01*
X140040006Y-95047010D01*
X140209224Y-95216228D01*
X140193551Y-95219346D01*
X139983507Y-95359694D01*
X139843159Y-95569738D01*
X139793876Y-95817503D01*
X139793876Y-97617503D01*
X139843159Y-97865268D01*
X139983507Y-98075312D01*
X140193551Y-98215660D01*
X140441316Y-98264943D01*
X140692834Y-98264943D01*
X140793387Y-98415432D01*
X140856846Y-98457834D01*
X141806318Y-99407307D01*
X141806318Y-99708641D01*
X141646646Y-99642503D01*
X141035986Y-99642503D01*
X140471809Y-99876193D01*
X140040006Y-100307996D01*
X139806316Y-100872173D01*
X139806316Y-101482833D01*
X140040006Y-102047010D01*
X140209224Y-102216228D01*
X140193551Y-102219346D01*
X139983507Y-102359694D01*
X139843159Y-102569738D01*
X139793876Y-102817503D01*
X139793876Y-104617503D01*
X139843159Y-104865268D01*
X139983507Y-105075312D01*
X140193551Y-105215660D01*
X140441316Y-105264943D01*
X140692834Y-105264943D01*
X140793387Y-105415432D01*
X140856846Y-105457834D01*
X141806318Y-106407307D01*
X141806318Y-106708641D01*
X141646646Y-106642503D01*
X141035986Y-106642503D01*
X140471809Y-106876193D01*
X140040006Y-107307996D01*
X139806316Y-107872173D01*
X139806316Y-108482833D01*
X140040006Y-109047010D01*
X140209224Y-109216228D01*
X140193551Y-109219346D01*
X139983507Y-109359694D01*
X139843159Y-109569738D01*
X139793876Y-109817503D01*
X139793876Y-111617503D01*
X139843159Y-111865268D01*
X139983507Y-112075312D01*
X140193551Y-112215660D01*
X140441316Y-112264943D01*
X140692834Y-112264943D01*
X140793387Y-112415432D01*
X140856846Y-112457834D01*
X141806318Y-113407307D01*
X141806318Y-113708641D01*
X141646646Y-113642503D01*
X141035986Y-113642503D01*
X140471809Y-113876193D01*
X140040006Y-114307996D01*
X139806316Y-114872173D01*
X139806316Y-115482833D01*
X140040006Y-116047010D01*
X140209224Y-116216228D01*
X140193551Y-116219346D01*
X139983507Y-116359694D01*
X139843159Y-116569738D01*
X139793876Y-116817503D01*
X139793876Y-118617503D01*
X139843159Y-118865268D01*
X139983507Y-119075312D01*
X140193551Y-119215660D01*
X140441316Y-119264943D01*
X140692834Y-119264943D01*
X140793387Y-119415432D01*
X140856846Y-119457834D01*
X141806318Y-120407307D01*
X141806318Y-120708641D01*
X141646646Y-120642503D01*
X141035986Y-120642503D01*
X140471809Y-120876193D01*
X140040006Y-121307996D01*
X139806316Y-121872173D01*
X139806316Y-122482833D01*
X140040006Y-123047010D01*
X140209224Y-123216228D01*
X140193551Y-123219346D01*
X139983507Y-123359694D01*
X139843159Y-123569738D01*
X139793876Y-123817503D01*
X139793876Y-125617503D01*
X139843159Y-125865268D01*
X139983507Y-126075312D01*
X140193551Y-126215660D01*
X140441316Y-126264943D01*
X140692834Y-126264943D01*
X140793387Y-126415432D01*
X140856846Y-126457834D01*
X144888538Y-130489528D01*
X144888537Y-132449946D01*
X144619792Y-132396489D01*
X144327280Y-132396489D01*
X143894118Y-132482650D01*
X143868537Y-132499743D01*
X143868537Y-132409570D01*
X143883425Y-132334723D01*
X143868537Y-132259876D01*
X143868537Y-132259872D01*
X143824441Y-132038187D01*
X143656466Y-131786795D01*
X143593010Y-131744395D01*
X136081647Y-124233033D01*
X136039245Y-124169574D01*
X135888756Y-124069020D01*
X135888756Y-123817503D01*
X135839473Y-123569738D01*
X135838436Y-123568186D01*
X136050790Y-123355833D01*
X136114246Y-123313433D01*
X136282221Y-123062041D01*
X136326317Y-122840356D01*
X136326317Y-122840352D01*
X136341205Y-122765505D01*
X136326317Y-122690658D01*
X136326317Y-120167350D01*
X136341205Y-120092503D01*
X136326317Y-120017656D01*
X136326317Y-120017652D01*
X136282221Y-119795967D01*
X136114246Y-119544575D01*
X136050790Y-119502175D01*
X135654047Y-119105432D01*
X135699125Y-119075312D01*
X135839473Y-118865268D01*
X135888756Y-118617503D01*
X135888756Y-116817503D01*
X135839473Y-116569738D01*
X135838436Y-116568186D01*
X136050790Y-116355833D01*
X136114246Y-116313433D01*
X136282221Y-116062041D01*
X136326317Y-115840356D01*
X136326317Y-115840352D01*
X136341205Y-115765505D01*
X136326317Y-115690658D01*
X136326317Y-113167350D01*
X136341205Y-113092503D01*
X136326317Y-113017656D01*
X136326317Y-113017652D01*
X136282221Y-112795967D01*
X136114246Y-112544575D01*
X136050790Y-112502175D01*
X135654047Y-112105432D01*
X135699125Y-112075312D01*
X135839473Y-111865268D01*
X135888756Y-111617503D01*
X135888756Y-109817503D01*
X135839473Y-109569738D01*
X135838436Y-109568186D01*
X136050790Y-109355833D01*
X136114246Y-109313433D01*
X136282221Y-109062041D01*
X136326317Y-108840356D01*
X136326317Y-108840352D01*
X136341205Y-108765505D01*
X136326317Y-108690658D01*
X136326317Y-106167350D01*
X136341205Y-106092503D01*
X136326317Y-106017656D01*
X136326317Y-106017652D01*
X136282221Y-105795967D01*
X136114246Y-105544575D01*
X136050790Y-105502175D01*
X135654047Y-105105432D01*
X135699125Y-105075312D01*
X135839473Y-104865268D01*
X135888756Y-104617503D01*
X135888756Y-102817503D01*
X135839473Y-102569738D01*
X135838436Y-102568186D01*
X136050790Y-102355833D01*
X136114246Y-102313433D01*
X136282221Y-102062041D01*
X136326317Y-101840356D01*
X136326317Y-101840352D01*
X136341205Y-101765505D01*
X136326317Y-101690658D01*
X136326317Y-99167350D01*
X136341205Y-99092503D01*
X136326317Y-99017656D01*
X136326317Y-99017652D01*
X136282221Y-98795967D01*
X136114246Y-98544575D01*
X136050790Y-98502175D01*
X135654047Y-98105432D01*
X135699125Y-98075312D01*
X135839473Y-97865268D01*
X135888756Y-97617503D01*
X135888756Y-95817503D01*
X135839473Y-95569738D01*
X135838436Y-95568186D01*
X136050790Y-95355833D01*
X136114246Y-95313433D01*
X136282221Y-95062041D01*
X136326317Y-94840356D01*
X136326317Y-94840352D01*
X136341205Y-94765505D01*
X136326317Y-94690658D01*
X136326317Y-92167350D01*
X136341205Y-92092503D01*
X136326317Y-92017656D01*
X136326317Y-92017652D01*
X136282221Y-91795967D01*
X136114246Y-91544575D01*
X136050790Y-91502175D01*
X135654047Y-91105432D01*
X135699125Y-91075312D01*
X135839473Y-90865268D01*
X135888756Y-90617503D01*
X135888756Y-88817503D01*
X135839473Y-88569738D01*
X135838436Y-88568186D01*
X136050790Y-88355833D01*
X136114246Y-88313433D01*
X136282221Y-88062041D01*
X136326317Y-87840356D01*
X136326317Y-87840352D01*
X136341205Y-87765505D01*
X136326317Y-87690658D01*
X136326317Y-85167350D01*
X136341205Y-85092503D01*
X136326317Y-85017656D01*
X136326317Y-85017652D01*
X136282221Y-84795967D01*
X136114246Y-84544575D01*
X136050790Y-84502175D01*
X135654047Y-84105432D01*
X135699125Y-84075312D01*
X135839473Y-83865268D01*
X135888756Y-83617503D01*
X135888756Y-81817503D01*
X135839473Y-81569738D01*
X135838436Y-81568186D01*
X136050790Y-81355833D01*
X136114246Y-81313433D01*
X136282221Y-81062041D01*
X136326317Y-80840356D01*
X136326317Y-80840352D01*
X136341205Y-80765505D01*
X136326317Y-80690658D01*
X136326317Y-78167350D01*
X136341205Y-78092503D01*
X136326317Y-78017656D01*
X136326317Y-78017652D01*
X136282221Y-77795967D01*
X136114246Y-77544575D01*
X136050790Y-77502175D01*
X135654047Y-77105432D01*
X135699125Y-77075312D01*
X135839473Y-76865268D01*
X135888756Y-76617503D01*
X135888756Y-74817503D01*
X135839473Y-74569738D01*
X135699125Y-74359694D01*
X135489081Y-74219346D01*
X135473408Y-74216228D01*
X135642626Y-74047010D01*
X135876316Y-73482833D01*
X135876316Y-72872173D01*
X135642626Y-72307996D01*
X135210823Y-71876193D01*
X134646646Y-71642503D01*
X134035986Y-71642503D01*
X133471809Y-71876193D01*
X133040006Y-72307996D01*
X132806316Y-72872173D01*
X132806316Y-73482833D01*
X133040006Y-74047010D01*
X133209224Y-74216228D01*
X133193551Y-74219346D01*
X132983507Y-74359694D01*
X132843159Y-74569738D01*
X132793876Y-74817503D01*
X132793876Y-76617503D01*
X132843159Y-76865268D01*
X132983507Y-77075312D01*
X133193551Y-77215660D01*
X133441316Y-77264943D01*
X133692834Y-77264943D01*
X133793387Y-77415432D01*
X133856846Y-77457834D01*
X134806318Y-78407307D01*
X134806318Y-78708641D01*
X134646646Y-78642503D01*
X134035986Y-78642503D01*
X133471809Y-78876193D01*
X133040006Y-79307996D01*
X132806316Y-79872173D01*
X132806316Y-80482833D01*
X133040006Y-81047010D01*
X133209224Y-81216228D01*
X133193551Y-81219346D01*
X132983507Y-81359694D01*
X132843159Y-81569738D01*
X132793876Y-81817503D01*
X132793876Y-83617503D01*
X132843159Y-83865268D01*
X132983507Y-84075312D01*
X133193551Y-84215660D01*
X133441316Y-84264943D01*
X133692834Y-84264943D01*
X133793387Y-84415432D01*
X133856846Y-84457834D01*
X134806318Y-85407307D01*
X134806318Y-85708641D01*
X134646646Y-85642503D01*
X134035986Y-85642503D01*
X133471809Y-85876193D01*
X133040006Y-86307996D01*
X132806316Y-86872173D01*
X132806316Y-87482833D01*
X133040006Y-88047010D01*
X133209224Y-88216228D01*
X133193551Y-88219346D01*
X132983507Y-88359694D01*
X132843159Y-88569738D01*
X132793876Y-88817503D01*
X132793876Y-90617503D01*
X132843159Y-90865268D01*
X132983507Y-91075312D01*
X133193551Y-91215660D01*
X133441316Y-91264943D01*
X133692834Y-91264943D01*
X133793387Y-91415432D01*
X133856846Y-91457834D01*
X134806318Y-92407307D01*
X134806318Y-92708641D01*
X134646646Y-92642503D01*
X134035986Y-92642503D01*
X133471809Y-92876193D01*
X133040006Y-93307996D01*
X132806316Y-93872173D01*
X132806316Y-94482833D01*
X133040006Y-95047010D01*
X133209224Y-95216228D01*
X133193551Y-95219346D01*
X132983507Y-95359694D01*
X132843159Y-95569738D01*
X132793876Y-95817503D01*
X132793876Y-97617503D01*
X132843159Y-97865268D01*
X132983507Y-98075312D01*
X133193551Y-98215660D01*
X133441316Y-98264943D01*
X133692834Y-98264943D01*
X133793387Y-98415432D01*
X133856846Y-98457834D01*
X134806318Y-99407307D01*
X134806318Y-99708641D01*
X134646646Y-99642503D01*
X134035986Y-99642503D01*
X133471809Y-99876193D01*
X133040006Y-100307996D01*
X132806316Y-100872173D01*
X132806316Y-101482833D01*
X133040006Y-102047010D01*
X133209224Y-102216228D01*
X133193551Y-102219346D01*
X132983507Y-102359694D01*
X132843159Y-102569738D01*
X132793876Y-102817503D01*
X132793876Y-104617503D01*
X132843159Y-104865268D01*
X132983507Y-105075312D01*
X133193551Y-105215660D01*
X133441316Y-105264943D01*
X133692834Y-105264943D01*
X133793387Y-105415432D01*
X133856846Y-105457834D01*
X134806318Y-106407307D01*
X134806318Y-106708641D01*
X134646646Y-106642503D01*
X134035986Y-106642503D01*
X133471809Y-106876193D01*
X133040006Y-107307996D01*
X132806316Y-107872173D01*
X132806316Y-108482833D01*
X133040006Y-109047010D01*
X133209224Y-109216228D01*
X133193551Y-109219346D01*
X132983507Y-109359694D01*
X132843159Y-109569738D01*
X132793876Y-109817503D01*
X132793876Y-111617503D01*
X132843159Y-111865268D01*
X132983507Y-112075312D01*
X133193551Y-112215660D01*
X133441316Y-112264943D01*
X133692834Y-112264943D01*
X133793387Y-112415432D01*
X133856846Y-112457834D01*
X134806318Y-113407307D01*
X134806318Y-113708641D01*
X134646646Y-113642503D01*
X134035986Y-113642503D01*
X133471809Y-113876193D01*
X133040006Y-114307996D01*
X132806316Y-114872173D01*
X132806316Y-115482833D01*
X133040006Y-116047010D01*
X133209224Y-116216228D01*
X133193551Y-116219346D01*
X132983507Y-116359694D01*
X132843159Y-116569738D01*
X132793876Y-116817503D01*
X132793876Y-118617503D01*
X132843159Y-118865268D01*
X132983507Y-119075312D01*
X133193551Y-119215660D01*
X133441316Y-119264943D01*
X133692834Y-119264943D01*
X133793387Y-119415432D01*
X133856846Y-119457834D01*
X134806318Y-120407307D01*
X134806318Y-120708641D01*
X134646646Y-120642503D01*
X134035986Y-120642503D01*
X133471809Y-120876193D01*
X133040006Y-121307996D01*
X132806316Y-121872173D01*
X132806316Y-122482833D01*
X133040006Y-123047010D01*
X133209224Y-123216228D01*
X133193551Y-123219346D01*
X132983507Y-123359694D01*
X132843159Y-123569738D01*
X132793876Y-123817503D01*
X132793876Y-124468026D01*
X132558883Y-124233033D01*
X132516481Y-124169574D01*
X132265089Y-124001599D01*
X132043404Y-123957503D01*
X132043399Y-123957503D01*
X131968552Y-123942615D01*
X131893705Y-123957503D01*
X128888756Y-123957503D01*
X128888756Y-123817503D01*
X128839473Y-123569738D01*
X128838436Y-123568186D01*
X129050790Y-123355833D01*
X129114246Y-123313433D01*
X129282221Y-123062041D01*
X129326317Y-122840356D01*
X129326317Y-122840352D01*
X129341205Y-122765505D01*
X129326317Y-122690658D01*
X129326317Y-120167350D01*
X129341205Y-120092503D01*
X129326317Y-120017656D01*
X129326317Y-120017652D01*
X129282221Y-119795967D01*
X129114246Y-119544575D01*
X129050790Y-119502175D01*
X128654047Y-119105432D01*
X128699125Y-119075312D01*
X128839473Y-118865268D01*
X128888756Y-118617503D01*
X128888756Y-116817503D01*
X128839473Y-116569738D01*
X128838436Y-116568186D01*
X129050790Y-116355833D01*
X129114246Y-116313433D01*
X129282221Y-116062041D01*
X129326317Y-115840356D01*
X129326317Y-115840352D01*
X129341205Y-115765505D01*
X129326317Y-115690658D01*
X129326317Y-113167350D01*
X129341205Y-113092503D01*
X129326317Y-113017656D01*
X129326317Y-113017652D01*
X129282221Y-112795967D01*
X129114246Y-112544575D01*
X129050790Y-112502175D01*
X128654047Y-112105432D01*
X128699125Y-112075312D01*
X128839473Y-111865268D01*
X128888756Y-111617503D01*
X128888756Y-109817503D01*
X128839473Y-109569738D01*
X128838436Y-109568186D01*
X129050790Y-109355833D01*
X129114246Y-109313433D01*
X129282221Y-109062041D01*
X129326317Y-108840356D01*
X129326317Y-108840352D01*
X129341205Y-108765505D01*
X129326317Y-108690658D01*
X129326317Y-106167350D01*
X129341205Y-106092503D01*
X129326317Y-106017656D01*
X129326317Y-106017652D01*
X129282221Y-105795967D01*
X129114246Y-105544575D01*
X129050790Y-105502175D01*
X128654047Y-105105432D01*
X128699125Y-105075312D01*
X128839473Y-104865268D01*
X128888756Y-104617503D01*
X128888756Y-102817503D01*
X128839473Y-102569738D01*
X128838436Y-102568186D01*
X129050790Y-102355833D01*
X129114246Y-102313433D01*
X129282221Y-102062041D01*
X129326317Y-101840356D01*
X129326317Y-101840352D01*
X129341205Y-101765505D01*
X129326317Y-101690658D01*
X129326317Y-99167350D01*
X129341205Y-99092503D01*
X129326317Y-99017656D01*
X129326317Y-99017652D01*
X129282221Y-98795967D01*
X129114246Y-98544575D01*
X129050790Y-98502175D01*
X128654047Y-98105432D01*
X128699125Y-98075312D01*
X128839473Y-97865268D01*
X128888756Y-97617503D01*
X128888756Y-95817503D01*
X128839473Y-95569738D01*
X128838436Y-95568186D01*
X129050790Y-95355833D01*
X129114246Y-95313433D01*
X129282221Y-95062041D01*
X129326317Y-94840356D01*
X129326317Y-94840352D01*
X129341205Y-94765505D01*
X129326317Y-94690658D01*
X129326317Y-92167350D01*
X129341205Y-92092503D01*
X129326317Y-92017656D01*
X129326317Y-92017652D01*
X129282221Y-91795967D01*
X129114246Y-91544575D01*
X129050790Y-91502175D01*
X128654047Y-91105432D01*
X128699125Y-91075312D01*
X128839473Y-90865268D01*
X128888756Y-90617503D01*
X128888756Y-88817503D01*
X128839473Y-88569738D01*
X128838436Y-88568186D01*
X129050790Y-88355833D01*
X129114246Y-88313433D01*
X129282221Y-88062041D01*
X129326317Y-87840356D01*
X129326317Y-87840352D01*
X129341205Y-87765505D01*
X129326317Y-87690658D01*
X129326317Y-85167350D01*
X129341205Y-85092503D01*
X129326317Y-85017656D01*
X129326317Y-85017652D01*
X129282221Y-84795967D01*
X129114246Y-84544575D01*
X129050790Y-84502175D01*
X128654047Y-84105432D01*
X128699125Y-84075312D01*
X128839473Y-83865268D01*
X128888756Y-83617503D01*
X128888756Y-81817503D01*
X128839473Y-81569738D01*
X128838436Y-81568186D01*
X129050790Y-81355833D01*
X129114246Y-81313433D01*
X129282221Y-81062041D01*
X129326317Y-80840356D01*
X129326317Y-80840352D01*
X129341205Y-80765505D01*
X129326317Y-80690658D01*
X129326317Y-78167350D01*
X129341205Y-78092503D01*
X129326317Y-78017656D01*
X129326317Y-78017652D01*
X129282221Y-77795967D01*
X129114246Y-77544575D01*
X129050790Y-77502175D01*
X128654047Y-77105432D01*
X128699125Y-77075312D01*
X128839473Y-76865268D01*
X128888756Y-76617503D01*
X128888756Y-74817503D01*
X128839473Y-74569738D01*
X128699125Y-74359694D01*
X128489081Y-74219346D01*
X128473408Y-74216228D01*
X128642626Y-74047010D01*
X128876316Y-73482833D01*
X128876316Y-72872173D01*
X128642626Y-72307996D01*
X128210823Y-71876193D01*
X127646646Y-71642503D01*
X127035986Y-71642503D01*
X126471809Y-71876193D01*
X126040006Y-72307996D01*
X125806316Y-72872173D01*
X125806316Y-73482833D01*
X126040006Y-74047010D01*
X126209224Y-74216228D01*
X126193551Y-74219346D01*
X125983507Y-74359694D01*
X125843159Y-74569738D01*
X125793876Y-74817503D01*
X125793876Y-76617503D01*
X125843159Y-76865268D01*
X125983507Y-77075312D01*
X126193551Y-77215660D01*
X126441316Y-77264943D01*
X126692834Y-77264943D01*
X126793387Y-77415432D01*
X126856846Y-77457834D01*
X127806318Y-78407307D01*
X127806318Y-78708641D01*
X127646646Y-78642503D01*
X127035986Y-78642503D01*
X126471809Y-78876193D01*
X126040006Y-79307996D01*
X125806316Y-79872173D01*
X125806316Y-80482833D01*
X126040006Y-81047010D01*
X126209224Y-81216228D01*
X126193551Y-81219346D01*
X125983507Y-81359694D01*
X125843159Y-81569738D01*
X125793876Y-81817503D01*
X125793876Y-83617503D01*
X125843159Y-83865268D01*
X125983507Y-84075312D01*
X126193551Y-84215660D01*
X126441316Y-84264943D01*
X126692834Y-84264943D01*
X126793387Y-84415432D01*
X126856846Y-84457834D01*
X127806318Y-85407307D01*
X127806318Y-85708641D01*
X127646646Y-85642503D01*
X127035986Y-85642503D01*
X126471809Y-85876193D01*
X126040006Y-86307996D01*
X125806316Y-86872173D01*
X125806316Y-87482833D01*
X126040006Y-88047010D01*
X126209224Y-88216228D01*
X126193551Y-88219346D01*
X125983507Y-88359694D01*
X125843159Y-88569738D01*
X125793876Y-88817503D01*
X125793876Y-90617503D01*
X125843159Y-90865268D01*
X125983507Y-91075312D01*
X126193551Y-91215660D01*
X126441316Y-91264943D01*
X126692834Y-91264943D01*
X126793387Y-91415432D01*
X126856846Y-91457834D01*
X127806318Y-92407307D01*
X127806318Y-92708641D01*
X127646646Y-92642503D01*
X127035986Y-92642503D01*
X126471809Y-92876193D01*
X126040006Y-93307996D01*
X125806316Y-93872173D01*
X125806316Y-94482833D01*
X126040006Y-95047010D01*
X126209224Y-95216228D01*
X126193551Y-95219346D01*
X125983507Y-95359694D01*
X125843159Y-95569738D01*
X125793876Y-95817503D01*
X125793876Y-97617503D01*
X125843159Y-97865268D01*
X125983507Y-98075312D01*
X126193551Y-98215660D01*
X126441316Y-98264943D01*
X126692834Y-98264943D01*
X126793387Y-98415432D01*
X126856846Y-98457834D01*
X127806318Y-99407307D01*
X127806318Y-99708641D01*
X127646646Y-99642503D01*
X127035986Y-99642503D01*
X126471809Y-99876193D01*
X126040006Y-100307996D01*
X125806316Y-100872173D01*
X125806316Y-101482833D01*
X126040006Y-102047010D01*
X126209224Y-102216228D01*
X126193551Y-102219346D01*
X125983507Y-102359694D01*
X125843159Y-102569738D01*
X125793876Y-102817503D01*
X125793876Y-104617503D01*
X125843159Y-104865268D01*
X125983507Y-105075312D01*
X126193551Y-105215660D01*
X126441316Y-105264943D01*
X126692834Y-105264943D01*
X126793387Y-105415432D01*
X126856846Y-105457834D01*
X127806318Y-106407307D01*
X127806318Y-106708641D01*
X127646646Y-106642503D01*
X127035986Y-106642503D01*
X126471809Y-106876193D01*
X126040006Y-107307996D01*
X125806316Y-107872173D01*
X125806316Y-108482833D01*
X126040006Y-109047010D01*
X126209224Y-109216228D01*
X126193551Y-109219346D01*
X125983507Y-109359694D01*
X125843159Y-109569738D01*
X125793876Y-109817503D01*
X125793876Y-111617503D01*
X125843159Y-111865268D01*
X125983507Y-112075312D01*
X126193551Y-112215660D01*
X126441316Y-112264943D01*
X126692834Y-112264943D01*
X126793387Y-112415432D01*
X126856846Y-112457834D01*
X127806318Y-113407307D01*
X127806318Y-113708641D01*
X127646646Y-113642503D01*
X127035986Y-113642503D01*
X126471809Y-113876193D01*
X126040006Y-114307996D01*
X125806316Y-114872173D01*
X125806316Y-115482833D01*
X126040006Y-116047010D01*
X126209224Y-116216228D01*
X126193551Y-116219346D01*
X125983507Y-116359694D01*
X125843159Y-116569738D01*
X125793876Y-116817503D01*
X125793876Y-118617503D01*
X125843159Y-118865268D01*
X125983507Y-119075312D01*
X126193551Y-119215660D01*
X126441316Y-119264943D01*
X126692834Y-119264943D01*
X126793387Y-119415432D01*
X126856846Y-119457834D01*
X127806318Y-120407307D01*
X127806318Y-120708641D01*
X127646646Y-120642503D01*
X127035986Y-120642503D01*
X126471809Y-120876193D01*
X126040006Y-121307996D01*
X125806316Y-121872173D01*
X125806316Y-122482833D01*
X126040006Y-123047010D01*
X126209224Y-123216228D01*
X126193551Y-123219346D01*
X125983507Y-123359694D01*
X125843159Y-123569738D01*
X125793876Y-123817503D01*
X125793876Y-125617503D01*
X125843159Y-125865268D01*
X125983507Y-126075312D01*
X126193551Y-126215660D01*
X126441316Y-126264943D01*
X128241316Y-126264943D01*
X128489081Y-126215660D01*
X128699125Y-126075312D01*
X128839473Y-125865268D01*
X128888756Y-125617503D01*
X128888756Y-125477503D01*
X131653751Y-125477503D01*
X138721070Y-132544823D01*
X138487045Y-132701193D01*
X138007867Y-132222017D01*
X137965466Y-132158559D01*
X137714074Y-131990584D01*
X137492389Y-131946488D01*
X137492384Y-131946488D01*
X137417537Y-131931600D01*
X137342690Y-131946488D01*
X127495104Y-131946488D01*
X121654047Y-126105433D01*
X121699125Y-126075312D01*
X121839473Y-125865268D01*
X121888756Y-125617503D01*
X121888756Y-123817503D01*
X121839473Y-123569738D01*
X121838436Y-123568186D01*
X122050790Y-123355833D01*
X122114246Y-123313433D01*
X122282221Y-123062041D01*
X122326317Y-122840356D01*
X122326317Y-122840352D01*
X122341205Y-122765505D01*
X122326317Y-122690658D01*
X122326317Y-120167350D01*
X122341205Y-120092503D01*
X122326317Y-120017656D01*
X122326317Y-120017652D01*
X122282221Y-119795967D01*
X122114246Y-119544575D01*
X122050790Y-119502175D01*
X121654047Y-119105432D01*
X121699125Y-119075312D01*
X121839473Y-118865268D01*
X121888756Y-118617503D01*
X121888756Y-116817503D01*
X121839473Y-116569738D01*
X121838436Y-116568186D01*
X122050790Y-116355833D01*
X122114246Y-116313433D01*
X122282221Y-116062041D01*
X122326317Y-115840356D01*
X122326317Y-115840352D01*
X122341205Y-115765505D01*
X122326317Y-115690658D01*
X122326317Y-113167350D01*
X122341205Y-113092503D01*
X122326317Y-113017656D01*
X122326317Y-113017652D01*
X122282221Y-112795967D01*
X122114246Y-112544575D01*
X122050790Y-112502175D01*
X121654047Y-112105432D01*
X121699125Y-112075312D01*
X121839473Y-111865268D01*
X121888756Y-111617503D01*
X121888756Y-109817503D01*
X121839473Y-109569738D01*
X121838436Y-109568186D01*
X122050790Y-109355833D01*
X122114246Y-109313433D01*
X122282221Y-109062041D01*
X122326317Y-108840356D01*
X122326317Y-108840352D01*
X122341205Y-108765505D01*
X122326317Y-108690658D01*
X122326317Y-106167350D01*
X122341205Y-106092503D01*
X122326317Y-106017656D01*
X122326317Y-106017652D01*
X122282221Y-105795967D01*
X122114246Y-105544575D01*
X122050790Y-105502175D01*
X121654047Y-105105432D01*
X121699125Y-105075312D01*
X121839473Y-104865268D01*
X121888756Y-104617503D01*
X121888756Y-102817503D01*
X121839473Y-102569738D01*
X121838436Y-102568186D01*
X122050790Y-102355833D01*
X122114246Y-102313433D01*
X122282221Y-102062041D01*
X122326317Y-101840356D01*
X122326317Y-101840352D01*
X122341205Y-101765505D01*
X122326317Y-101690658D01*
X122326317Y-99167350D01*
X122341205Y-99092503D01*
X122326317Y-99017656D01*
X122326317Y-99017652D01*
X122282221Y-98795967D01*
X122114246Y-98544575D01*
X122050790Y-98502175D01*
X121654047Y-98105432D01*
X121699125Y-98075312D01*
X121839473Y-97865268D01*
X121888756Y-97617503D01*
X121888756Y-95817503D01*
X121839473Y-95569738D01*
X121838436Y-95568186D01*
X122050790Y-95355833D01*
X122114246Y-95313433D01*
X122282221Y-95062041D01*
X122326317Y-94840356D01*
X122326317Y-94840352D01*
X122341205Y-94765505D01*
X122326317Y-94690658D01*
X122326317Y-92167350D01*
X122341205Y-92092503D01*
X122326317Y-92017656D01*
X122326317Y-92017652D01*
X122282221Y-91795967D01*
X122114246Y-91544575D01*
X122050790Y-91502175D01*
X121654047Y-91105432D01*
X121699125Y-91075312D01*
X121839473Y-90865268D01*
X121888756Y-90617503D01*
X121888756Y-88817503D01*
X121839473Y-88569738D01*
X121838436Y-88568186D01*
X122050790Y-88355833D01*
X122114246Y-88313433D01*
X122282221Y-88062041D01*
X122326317Y-87840356D01*
X122326317Y-87840352D01*
X122341205Y-87765505D01*
X122326317Y-87690658D01*
X122326317Y-85167350D01*
X122341205Y-85092503D01*
X122326317Y-85017656D01*
X122326317Y-85017652D01*
X122282221Y-84795967D01*
X122114246Y-84544575D01*
X122050790Y-84502175D01*
X121654047Y-84105432D01*
X121699125Y-84075312D01*
X121839473Y-83865268D01*
X121888756Y-83617503D01*
X121888756Y-81817503D01*
X121839473Y-81569738D01*
X121838436Y-81568186D01*
X122050790Y-81355833D01*
X122114246Y-81313433D01*
X122282221Y-81062041D01*
X122326317Y-80840356D01*
X122326317Y-80840352D01*
X122341205Y-80765505D01*
X122326317Y-80690658D01*
X122326317Y-78167350D01*
X122341205Y-78092503D01*
X122326317Y-78017656D01*
X122326317Y-78017652D01*
X122282221Y-77795967D01*
X122114246Y-77544575D01*
X122050790Y-77502175D01*
X121654047Y-77105432D01*
X121699125Y-77075312D01*
X121839473Y-76865268D01*
X121888756Y-76617503D01*
X121888756Y-74817503D01*
X121839473Y-74569738D01*
X121699125Y-74359694D01*
X121489081Y-74219346D01*
X121473408Y-74216228D01*
X121642626Y-74047010D01*
X121876316Y-73482833D01*
X121876316Y-72872173D01*
X121642626Y-72307996D01*
X121210823Y-71876193D01*
X120646646Y-71642503D01*
X120035986Y-71642503D01*
X119471809Y-71876193D01*
X119040006Y-72307996D01*
X118806316Y-72872173D01*
X118806316Y-73482833D01*
X119040006Y-74047010D01*
X119209224Y-74216228D01*
X119193551Y-74219346D01*
X118983507Y-74359694D01*
X118843159Y-74569738D01*
X118793876Y-74817503D01*
X118793876Y-76617503D01*
X118843159Y-76865268D01*
X118983507Y-77075312D01*
X119193551Y-77215660D01*
X119441316Y-77264943D01*
X119692834Y-77264943D01*
X119793387Y-77415432D01*
X119856846Y-77457834D01*
X120806318Y-78407307D01*
X120806318Y-78708641D01*
X120646646Y-78642503D01*
X120035986Y-78642503D01*
X119471809Y-78876193D01*
X119040006Y-79307996D01*
X118806316Y-79872173D01*
X118806316Y-80482833D01*
X119040006Y-81047010D01*
X119209224Y-81216228D01*
X119193551Y-81219346D01*
X118983507Y-81359694D01*
X118843159Y-81569738D01*
X118793876Y-81817503D01*
X118793876Y-83617503D01*
X118843159Y-83865268D01*
X118983507Y-84075312D01*
X119193551Y-84215660D01*
X119441316Y-84264943D01*
X119692834Y-84264943D01*
X119793387Y-84415432D01*
X119856846Y-84457834D01*
X120806318Y-85407307D01*
X120806318Y-85708641D01*
X120646646Y-85642503D01*
X120035986Y-85642503D01*
X119471809Y-85876193D01*
X119040006Y-86307996D01*
X118806316Y-86872173D01*
X118806316Y-87482833D01*
X119040006Y-88047010D01*
X119209224Y-88216228D01*
X119193551Y-88219346D01*
X118983507Y-88359694D01*
X118843159Y-88569738D01*
X118793876Y-88817503D01*
X118793876Y-90617503D01*
X118843159Y-90865268D01*
X118983507Y-91075312D01*
X119193551Y-91215660D01*
X119441316Y-91264943D01*
X119692834Y-91264943D01*
X119793387Y-91415432D01*
X119856846Y-91457834D01*
X120806318Y-92407307D01*
X120806318Y-92708641D01*
X120646646Y-92642503D01*
X120035986Y-92642503D01*
X119471809Y-92876193D01*
X119040006Y-93307996D01*
X118806316Y-93872173D01*
X118806316Y-94482833D01*
X119040006Y-95047010D01*
X119209224Y-95216228D01*
X119193551Y-95219346D01*
X118983507Y-95359694D01*
X118843159Y-95569738D01*
X118793876Y-95817503D01*
X118793876Y-97617503D01*
X118843159Y-97865268D01*
X118983507Y-98075312D01*
X119193551Y-98215660D01*
X119441316Y-98264943D01*
X119692834Y-98264943D01*
X119793387Y-98415432D01*
X119856846Y-98457834D01*
X120806318Y-99407307D01*
X120806318Y-99708641D01*
X120646646Y-99642503D01*
X120035986Y-99642503D01*
X119471809Y-99876193D01*
X119040006Y-100307996D01*
X118806316Y-100872173D01*
X118806316Y-101482833D01*
X119040006Y-102047010D01*
X119209224Y-102216228D01*
X119193551Y-102219346D01*
X118983507Y-102359694D01*
X118843159Y-102569738D01*
X118793876Y-102817503D01*
X118793876Y-104617503D01*
X118843159Y-104865268D01*
X118983507Y-105075312D01*
X119193551Y-105215660D01*
X119441316Y-105264943D01*
X119692834Y-105264943D01*
X119793387Y-105415432D01*
X119856846Y-105457834D01*
X120806318Y-106407307D01*
X120806318Y-106708641D01*
X120646646Y-106642503D01*
X120035986Y-106642503D01*
X119471809Y-106876193D01*
X119040006Y-107307996D01*
X118806316Y-107872173D01*
X118806316Y-108482833D01*
X119040006Y-109047010D01*
X119209224Y-109216228D01*
X119193551Y-109219346D01*
X118983507Y-109359694D01*
X118843159Y-109569738D01*
X118793876Y-109817503D01*
X118793876Y-111617503D01*
X118843159Y-111865268D01*
X118983507Y-112075312D01*
X119193551Y-112215660D01*
X119441316Y-112264943D01*
X119692834Y-112264943D01*
X119793387Y-112415432D01*
X119856846Y-112457834D01*
X120806318Y-113407307D01*
X120806318Y-113708641D01*
X120646646Y-113642503D01*
X120035986Y-113642503D01*
X119471809Y-113876193D01*
X119040006Y-114307996D01*
X118806316Y-114872173D01*
X118806316Y-115482833D01*
X119040006Y-116047010D01*
X119209224Y-116216228D01*
X119193551Y-116219346D01*
X118983507Y-116359694D01*
X118843159Y-116569738D01*
X118793876Y-116817503D01*
X118793876Y-118617503D01*
X118843159Y-118865268D01*
X118983507Y-119075312D01*
X119193551Y-119215660D01*
X119441316Y-119264943D01*
X119692834Y-119264943D01*
X119793387Y-119415432D01*
X119856846Y-119457834D01*
X120806318Y-120407307D01*
X120806318Y-120708641D01*
X120646646Y-120642503D01*
X120035986Y-120642503D01*
X119471809Y-120876193D01*
X119040006Y-121307996D01*
X118806316Y-121872173D01*
X118806316Y-122482833D01*
X119040006Y-123047010D01*
X119209224Y-123216228D01*
X119193551Y-123219346D01*
X118983507Y-123359694D01*
X118843159Y-123569738D01*
X118793876Y-123817503D01*
X118793876Y-125617503D01*
X118843159Y-125865268D01*
X118983507Y-126075312D01*
X119193551Y-126215660D01*
X119441316Y-126264943D01*
X119692834Y-126264943D01*
X119793388Y-126415432D01*
X119856844Y-126457832D01*
X126589974Y-133190964D01*
X126632372Y-133254417D01*
X126695825Y-133296815D01*
X126695827Y-133296817D01*
X126821203Y-133380590D01*
X126883764Y-133422392D01*
X127105449Y-133466488D01*
X127105453Y-133466488D01*
X127180300Y-133481376D01*
X127255147Y-133466488D01*
X132899340Y-133466488D01*
X132872050Y-133524597D01*
X132992717Y-133754489D01*
X134186536Y-133754489D01*
X134186536Y-133734489D01*
X134440536Y-133734489D01*
X134440536Y-133754489D01*
X134460536Y-133754489D01*
X134460536Y-134008489D01*
X134440536Y-134008489D01*
X134440536Y-134028489D01*
X134186536Y-134028489D01*
X134186536Y-134008489D01*
X132992717Y-134008489D01*
X132872050Y-134238381D01*
X132899340Y-134296490D01*
X125145105Y-134296490D01*
X115081647Y-124233033D01*
X115039245Y-124169574D01*
X114888756Y-124069020D01*
X114888756Y-123817503D01*
X114839473Y-123569738D01*
X114838436Y-123568186D01*
X115050790Y-123355833D01*
X115114246Y-123313433D01*
X115282221Y-123062041D01*
X115326317Y-122840356D01*
X115326317Y-122840352D01*
X115341205Y-122765505D01*
X115326317Y-122690658D01*
X115326317Y-120167350D01*
X115341205Y-120092503D01*
X115326317Y-120017656D01*
X115326317Y-120017652D01*
X115282221Y-119795967D01*
X115114246Y-119544575D01*
X115050790Y-119502175D01*
X114654047Y-119105432D01*
X114699125Y-119075312D01*
X114839473Y-118865268D01*
X114888756Y-118617503D01*
X114888756Y-116817503D01*
X114839473Y-116569738D01*
X114838436Y-116568186D01*
X115050790Y-116355833D01*
X115114246Y-116313433D01*
X115282221Y-116062041D01*
X115326317Y-115840356D01*
X115326317Y-115840352D01*
X115341205Y-115765505D01*
X115326317Y-115690658D01*
X115326317Y-113167350D01*
X115341205Y-113092503D01*
X115326317Y-113017656D01*
X115326317Y-113017652D01*
X115282221Y-112795967D01*
X115114246Y-112544575D01*
X115050790Y-112502175D01*
X114654047Y-112105432D01*
X114699125Y-112075312D01*
X114839473Y-111865268D01*
X114888756Y-111617503D01*
X114888756Y-109817503D01*
X114839473Y-109569738D01*
X114838436Y-109568186D01*
X115050790Y-109355833D01*
X115114246Y-109313433D01*
X115282221Y-109062041D01*
X115326317Y-108840356D01*
X115326317Y-108840352D01*
X115341205Y-108765505D01*
X115326317Y-108690658D01*
X115326317Y-106167350D01*
X115341205Y-106092503D01*
X115326317Y-106017656D01*
X115326317Y-106017652D01*
X115282221Y-105795967D01*
X115114246Y-105544575D01*
X115050790Y-105502175D01*
X114654047Y-105105432D01*
X114699125Y-105075312D01*
X114839473Y-104865268D01*
X114888756Y-104617503D01*
X114888756Y-102817503D01*
X114839473Y-102569738D01*
X114838436Y-102568186D01*
X115050790Y-102355833D01*
X115114246Y-102313433D01*
X115282221Y-102062041D01*
X115326317Y-101840356D01*
X115326317Y-101840352D01*
X115341205Y-101765505D01*
X115326317Y-101690658D01*
X115326317Y-99167350D01*
X115341205Y-99092503D01*
X115326317Y-99017656D01*
X115326317Y-99017652D01*
X115282221Y-98795967D01*
X115114246Y-98544575D01*
X115050790Y-98502175D01*
X114654047Y-98105432D01*
X114699125Y-98075312D01*
X114839473Y-97865268D01*
X114888756Y-97617503D01*
X114888756Y-95817503D01*
X114839473Y-95569738D01*
X114838436Y-95568186D01*
X115050790Y-95355833D01*
X115114246Y-95313433D01*
X115282221Y-95062041D01*
X115326317Y-94840356D01*
X115326317Y-94840352D01*
X115341205Y-94765505D01*
X115326317Y-94690658D01*
X115326317Y-92167350D01*
X115341205Y-92092503D01*
X115326317Y-92017656D01*
X115326317Y-92017652D01*
X115282221Y-91795967D01*
X115114246Y-91544575D01*
X115050790Y-91502175D01*
X114654047Y-91105432D01*
X114699125Y-91075312D01*
X114839473Y-90865268D01*
X114888756Y-90617503D01*
X114888756Y-88817503D01*
X114839473Y-88569738D01*
X114838436Y-88568186D01*
X115050790Y-88355833D01*
X115114246Y-88313433D01*
X115282221Y-88062041D01*
X115326317Y-87840356D01*
X115326317Y-87840352D01*
X115341205Y-87765505D01*
X115326317Y-87690658D01*
X115326317Y-85167350D01*
X115341205Y-85092503D01*
X115326317Y-85017656D01*
X115326317Y-85017652D01*
X115282221Y-84795967D01*
X115114246Y-84544575D01*
X115050790Y-84502175D01*
X114654047Y-84105432D01*
X114699125Y-84075312D01*
X114839473Y-83865268D01*
X114888756Y-83617503D01*
X114888756Y-81817503D01*
X114839473Y-81569738D01*
X114838436Y-81568186D01*
X115050790Y-81355833D01*
X115114246Y-81313433D01*
X115282221Y-81062041D01*
X115326317Y-80840356D01*
X115326317Y-80840352D01*
X115341205Y-80765505D01*
X115326317Y-80690658D01*
X115326317Y-78167350D01*
X115341205Y-78092503D01*
X115326317Y-78017656D01*
X115326317Y-78017652D01*
X115282221Y-77795967D01*
X115114246Y-77544575D01*
X115050790Y-77502175D01*
X114654047Y-77105432D01*
X114699125Y-77075312D01*
X114839473Y-76865268D01*
X114888756Y-76617503D01*
X114888756Y-74817503D01*
X114839473Y-74569738D01*
X114699125Y-74359694D01*
X114489081Y-74219346D01*
X114473408Y-74216228D01*
X114642626Y-74047010D01*
X114876316Y-73482833D01*
X114876316Y-72872173D01*
X114642626Y-72307996D01*
X114210823Y-71876193D01*
X113646646Y-71642503D01*
X113035986Y-71642503D01*
X112471809Y-71876193D01*
X112040006Y-72307996D01*
X111806316Y-72872173D01*
X111806316Y-73482833D01*
X112040006Y-74047010D01*
X112209224Y-74216228D01*
X112193551Y-74219346D01*
X111983507Y-74359694D01*
X111843159Y-74569738D01*
X111793876Y-74817503D01*
X111793876Y-76617503D01*
X111843159Y-76865268D01*
X111983507Y-77075312D01*
X112193551Y-77215660D01*
X112441316Y-77264943D01*
X112692834Y-77264943D01*
X112793387Y-77415432D01*
X112856846Y-77457834D01*
X113806318Y-78407307D01*
X113806318Y-78708641D01*
X113646646Y-78642503D01*
X113035986Y-78642503D01*
X112471809Y-78876193D01*
X112040006Y-79307996D01*
X111806316Y-79872173D01*
X111806316Y-80482833D01*
X112040006Y-81047010D01*
X112209224Y-81216228D01*
X112193551Y-81219346D01*
X111983507Y-81359694D01*
X111843159Y-81569738D01*
X111793876Y-81817503D01*
X111793876Y-83617503D01*
X111843159Y-83865268D01*
X111983507Y-84075312D01*
X112193551Y-84215660D01*
X112441316Y-84264943D01*
X112692834Y-84264943D01*
X112793387Y-84415432D01*
X112856846Y-84457834D01*
X113806318Y-85407307D01*
X113806318Y-85708641D01*
X113646646Y-85642503D01*
X113035986Y-85642503D01*
X112471809Y-85876193D01*
X112040006Y-86307996D01*
X111806316Y-86872173D01*
X111806316Y-87482833D01*
X112040006Y-88047010D01*
X112209224Y-88216228D01*
X112193551Y-88219346D01*
X111983507Y-88359694D01*
X111843159Y-88569738D01*
X111793876Y-88817503D01*
X111793876Y-90617503D01*
X111843159Y-90865268D01*
X111983507Y-91075312D01*
X112193551Y-91215660D01*
X112441316Y-91264943D01*
X112692834Y-91264943D01*
X112793387Y-91415432D01*
X112856846Y-91457834D01*
X113806318Y-92407307D01*
X113806318Y-92708641D01*
X113646646Y-92642503D01*
X113035986Y-92642503D01*
X112471809Y-92876193D01*
X112040006Y-93307996D01*
X111806316Y-93872173D01*
X111806316Y-94482833D01*
X112040006Y-95047010D01*
X112209224Y-95216228D01*
X112193551Y-95219346D01*
X111983507Y-95359694D01*
X111843159Y-95569738D01*
X111793876Y-95817503D01*
X111793876Y-97617503D01*
X111843159Y-97865268D01*
X111983507Y-98075312D01*
X112193551Y-98215660D01*
X112441316Y-98264943D01*
X112692834Y-98264943D01*
X112793387Y-98415432D01*
X112856846Y-98457834D01*
X113806318Y-99407307D01*
X113806318Y-99708641D01*
X113646646Y-99642503D01*
X113035986Y-99642503D01*
X112471809Y-99876193D01*
X112040006Y-100307996D01*
X111806316Y-100872173D01*
X111806316Y-101482833D01*
X112040006Y-102047010D01*
X112209224Y-102216228D01*
X112193551Y-102219346D01*
X111983507Y-102359694D01*
X111843159Y-102569738D01*
X111793876Y-102817503D01*
X111793876Y-104617503D01*
X111843159Y-104865268D01*
X111983507Y-105075312D01*
X112193551Y-105215660D01*
X112441316Y-105264943D01*
X112692834Y-105264943D01*
X112793387Y-105415432D01*
X112856846Y-105457834D01*
X113806318Y-106407307D01*
X113806318Y-106708641D01*
X113646646Y-106642503D01*
X113035986Y-106642503D01*
X112471809Y-106876193D01*
X112040006Y-107307996D01*
X111806316Y-107872173D01*
X111806316Y-108482833D01*
X112040006Y-109047010D01*
X112209224Y-109216228D01*
X112193551Y-109219346D01*
X111983507Y-109359694D01*
X111843159Y-109569738D01*
X111793876Y-109817503D01*
X111793876Y-111617503D01*
X111843159Y-111865268D01*
X111983507Y-112075312D01*
X112193551Y-112215660D01*
X112441316Y-112264943D01*
X112692834Y-112264943D01*
X112793387Y-112415432D01*
X112856846Y-112457834D01*
X113806318Y-113407307D01*
X113806318Y-113708641D01*
X113646646Y-113642503D01*
X113035986Y-113642503D01*
X112471809Y-113876193D01*
X112040006Y-114307996D01*
X111806316Y-114872173D01*
X111806316Y-115482833D01*
X112040006Y-116047010D01*
X112209224Y-116216228D01*
X112193551Y-116219346D01*
X111983507Y-116359694D01*
X111843159Y-116569738D01*
X111793876Y-116817503D01*
X111793876Y-118617503D01*
X111843159Y-118865268D01*
X111983507Y-119075312D01*
X112193551Y-119215660D01*
X112441316Y-119264943D01*
X112692834Y-119264943D01*
X112793387Y-119415432D01*
X112856846Y-119457834D01*
X113806318Y-120407307D01*
X113806318Y-120708641D01*
X113646646Y-120642503D01*
X113035986Y-120642503D01*
X112471809Y-120876193D01*
X112040006Y-121307996D01*
X111806316Y-121872173D01*
X111806316Y-122482833D01*
X112040006Y-123047010D01*
X112209224Y-123216228D01*
X112193551Y-123219346D01*
X111983507Y-123359694D01*
X111843159Y-123569738D01*
X111793876Y-123817503D01*
X111793876Y-125617503D01*
X111843159Y-125865268D01*
X111983507Y-126075312D01*
X112193551Y-126215660D01*
X112441316Y-126264943D01*
X114241316Y-126264943D01*
X114489081Y-126215660D01*
X114699125Y-126075312D01*
X114729246Y-126030234D01*
X124239973Y-135540962D01*
X124282374Y-135604419D01*
X124533766Y-135772394D01*
X124755451Y-135816490D01*
X124755455Y-135816490D01*
X124830303Y-135831378D01*
X124905151Y-135816490D01*
X133698738Y-135816490D01*
X134883415Y-137001167D01*
X120849782Y-137001167D01*
X108081647Y-124233033D01*
X108039245Y-124169574D01*
X107888756Y-124069020D01*
X107888756Y-123817503D01*
X107839473Y-123569738D01*
X107838436Y-123568186D01*
X108050790Y-123355833D01*
X108114246Y-123313433D01*
X108282221Y-123062041D01*
X108326317Y-122840356D01*
X108326317Y-122840352D01*
X108341205Y-122765505D01*
X108326317Y-122690658D01*
X108326317Y-120167350D01*
X108341205Y-120092503D01*
X108326317Y-120017656D01*
X108326317Y-120017652D01*
X108282221Y-119795967D01*
X108114246Y-119544575D01*
X108050790Y-119502175D01*
X107654047Y-119105432D01*
X107699125Y-119075312D01*
X107839473Y-118865268D01*
X107888756Y-118617503D01*
X107888756Y-116817503D01*
X107839473Y-116569738D01*
X107838436Y-116568186D01*
X108050790Y-116355833D01*
X108114246Y-116313433D01*
X108282221Y-116062041D01*
X108326317Y-115840356D01*
X108326317Y-115840352D01*
X108341205Y-115765505D01*
X108326317Y-115690658D01*
X108326317Y-113167350D01*
X108341205Y-113092503D01*
X108326317Y-113017656D01*
X108326317Y-113017652D01*
X108282221Y-112795967D01*
X108114246Y-112544575D01*
X108050790Y-112502175D01*
X107654047Y-112105432D01*
X107699125Y-112075312D01*
X107839473Y-111865268D01*
X107888756Y-111617503D01*
X107888756Y-109817503D01*
X107839473Y-109569738D01*
X107838436Y-109568186D01*
X108050790Y-109355833D01*
X108114246Y-109313433D01*
X108282221Y-109062041D01*
X108326317Y-108840356D01*
X108326317Y-108840352D01*
X108341205Y-108765505D01*
X108326317Y-108690658D01*
X108326317Y-106167350D01*
X108341205Y-106092503D01*
X108326317Y-106017656D01*
X108326317Y-106017652D01*
X108282221Y-105795967D01*
X108114246Y-105544575D01*
X108050790Y-105502175D01*
X107654047Y-105105432D01*
X107699125Y-105075312D01*
X107839473Y-104865268D01*
X107888756Y-104617503D01*
X107888756Y-102817503D01*
X107839473Y-102569738D01*
X107838436Y-102568186D01*
X108050790Y-102355833D01*
X108114246Y-102313433D01*
X108282221Y-102062041D01*
X108326317Y-101840356D01*
X108326317Y-101840352D01*
X108341205Y-101765505D01*
X108326317Y-101690658D01*
X108326317Y-99167350D01*
X108341205Y-99092503D01*
X108326317Y-99017656D01*
X108326317Y-99017652D01*
X108282221Y-98795967D01*
X108114246Y-98544575D01*
X108050790Y-98502175D01*
X107654047Y-98105432D01*
X107699125Y-98075312D01*
X107839473Y-97865268D01*
X107888756Y-97617503D01*
X107888756Y-95817503D01*
X107839473Y-95569738D01*
X107838436Y-95568186D01*
X108050790Y-95355833D01*
X108114246Y-95313433D01*
X108282221Y-95062041D01*
X108326317Y-94840356D01*
X108326317Y-94840352D01*
X108341205Y-94765505D01*
X108326317Y-94690658D01*
X108326317Y-92167350D01*
X108341205Y-92092503D01*
X108326317Y-92017656D01*
X108326317Y-92017652D01*
X108282221Y-91795967D01*
X108114246Y-91544575D01*
X108050790Y-91502175D01*
X107654047Y-91105432D01*
X107699125Y-91075312D01*
X107839473Y-90865268D01*
X107888756Y-90617503D01*
X107888756Y-88817503D01*
X107839473Y-88569738D01*
X107838436Y-88568186D01*
X108050790Y-88355833D01*
X108114246Y-88313433D01*
X108282221Y-88062041D01*
X108326317Y-87840356D01*
X108326317Y-87840352D01*
X108341205Y-87765505D01*
X108326317Y-87690658D01*
X108326317Y-85167350D01*
X108341205Y-85092503D01*
X108326317Y-85017656D01*
X108326317Y-85017652D01*
X108282221Y-84795967D01*
X108114246Y-84544575D01*
X108050790Y-84502175D01*
X107654047Y-84105432D01*
X107699125Y-84075312D01*
X107839473Y-83865268D01*
X107888756Y-83617503D01*
X107888756Y-81817503D01*
X107839473Y-81569738D01*
X107838436Y-81568186D01*
X108050790Y-81355833D01*
X108114246Y-81313433D01*
X108282221Y-81062041D01*
X108326317Y-80840356D01*
X108326317Y-80840352D01*
X108341205Y-80765505D01*
X108326317Y-80690658D01*
X108326317Y-78167350D01*
X108341205Y-78092503D01*
X108326317Y-78017656D01*
X108326317Y-78017652D01*
X108282221Y-77795967D01*
X108114246Y-77544575D01*
X108050790Y-77502175D01*
X107654047Y-77105432D01*
X107699125Y-77075312D01*
X107839473Y-76865268D01*
X107888756Y-76617503D01*
X107888756Y-74817503D01*
X107839473Y-74569738D01*
X107699125Y-74359694D01*
X107489081Y-74219346D01*
X107473408Y-74216228D01*
X107642626Y-74047010D01*
X107876316Y-73482833D01*
X107876316Y-72872173D01*
X107642626Y-72307996D01*
X107210823Y-71876193D01*
X106646646Y-71642503D01*
X106035986Y-71642503D01*
X105471809Y-71876193D01*
X105040006Y-72307996D01*
X104806316Y-72872173D01*
X104806316Y-73482833D01*
X105040006Y-74047010D01*
X105209224Y-74216228D01*
X105193551Y-74219346D01*
X104983507Y-74359694D01*
X104843159Y-74569738D01*
X104793876Y-74817503D01*
X100710000Y-74817503D01*
X100710000Y-70710000D01*
X159290001Y-70710000D01*
X159290000Y-159290000D01*
X159290000Y-159290000D01*
G37*
X159290000Y-159290000D02*
X100710000Y-159290000D01*
X100710000Y-155036168D01*
X109799814Y-155036168D01*
X109799814Y-156736168D01*
X109849097Y-156983933D01*
X109989445Y-157193977D01*
X110199489Y-157334325D01*
X110447254Y-157383608D01*
X112147254Y-157383608D01*
X112395019Y-157334325D01*
X112605063Y-157193977D01*
X112745411Y-156983933D01*
X112754438Y-156938549D01*
X112766629Y-156956793D01*
X113257836Y-157285007D01*
X113690998Y-157371168D01*
X113983510Y-157371168D01*
X114416672Y-157285007D01*
X114907879Y-156956793D01*
X115107254Y-156658407D01*
X115306629Y-156956793D01*
X115797836Y-157285007D01*
X116230998Y-157371168D01*
X116523510Y-157371168D01*
X116956672Y-157285007D01*
X117447879Y-156956793D01*
X117647254Y-156658407D01*
X117846629Y-156956793D01*
X118337836Y-157285007D01*
X118770998Y-157371168D01*
X119063510Y-157371168D01*
X119496672Y-157285007D01*
X119987879Y-156956793D01*
X120187254Y-156658407D01*
X120386629Y-156956793D01*
X120877836Y-157285007D01*
X121310998Y-157371168D01*
X121603510Y-157371168D01*
X122036672Y-157285007D01*
X122527879Y-156956793D01*
X122727254Y-156658407D01*
X122926629Y-156956793D01*
X123417836Y-157285007D01*
X123850998Y-157371168D01*
X124143510Y-157371168D01*
X124576672Y-157285007D01*
X125067879Y-156956793D01*
X125281097Y-156637690D01*
X125342071Y-156767526D01*
X125770330Y-157157813D01*
X126180364Y-157327644D01*
X126410254Y-157206323D01*
X126410254Y-156013168D01*
X126664254Y-156013168D01*
X126664254Y-157206323D01*
X126894144Y-157327644D01*
X127304178Y-157157813D01*
X127732437Y-156767526D01*
X127978740Y-156243060D01*
X127858073Y-156013168D01*
X126664254Y-156013168D01*
X126410254Y-156013168D01*
X126390254Y-156013168D01*
X126390254Y-155759168D01*
X126410254Y-155759168D01*
X126410254Y-154566013D01*
X126664254Y-154566013D01*
X126664254Y-155759168D01*
X127858073Y-155759168D01*
X127978740Y-155529276D01*
X127732437Y-155004810D01*
X127304178Y-154614523D01*
X126894144Y-154444692D01*
X126664254Y-154566013D01*
X126410254Y-154566013D01*
X126180364Y-154444692D01*
X125770330Y-154614523D01*
X125342071Y-155004810D01*
X125281097Y-155134646D01*
X125067879Y-154815543D01*
X124576672Y-154487329D01*
X124143510Y-154401168D01*
X123850998Y-154401168D01*
X123417836Y-154487329D01*
X122926629Y-154815543D01*
X122727254Y-155113929D01*
X122527879Y-154815543D01*
X122036672Y-154487329D01*
X121603510Y-154401168D01*
X121310998Y-154401168D01*
X120877836Y-154487329D01*
X120386629Y-154815543D01*
X120187254Y-155113929D01*
X119987879Y-154815543D01*
X119496672Y-154487329D01*
X119063510Y-154401168D01*
X118770998Y-154401168D01*
X118337836Y-154487329D01*
X117846629Y-154815543D01*
X117647254Y-155113929D01*
X117447879Y-154815543D01*
X116956672Y-154487329D01*
X116523510Y-154401168D01*
X116230998Y-154401168D01*
X115797836Y-154487329D01*
X115306629Y-154815543D01*
X115107254Y-155113929D01*
X114907879Y-154815543D01*
X114416672Y-154487329D01*
X113983510Y-154401168D01*
X113690998Y-154401168D01*
X113257836Y-154487329D01*
X112766629Y-154815543D01*
X112754438Y-154833787D01*
X112745411Y-154788403D01*
X112605063Y-154578359D01*
X112395019Y-154438011D01*
X112147254Y-154388728D01*
X110447254Y-154388728D01*
X110199489Y-154438011D01*
X109989445Y-154578359D01*
X109849097Y-154788403D01*
X109799814Y-155036168D01*
X100710000Y-155036168D01*
X100710000Y-146506168D01*
X108674141Y-146506168D01*
X108785514Y-147066077D01*
X109102677Y-147540745D01*
X109577345Y-147857908D01*
X109995921Y-147941168D01*
X110278587Y-147941168D01*
X110697163Y-147857908D01*
X111171831Y-147540745D01*
X111407254Y-147188410D01*
X111642677Y-147540745D01*
X112117345Y-147857908D01*
X112535921Y-147941168D01*
X112818587Y-147941168D01*
X113237163Y-147857908D01*
X113711831Y-147540745D01*
X113947254Y-147188410D01*
X114182677Y-147540745D01*
X114657345Y-147857908D01*
X115075921Y-147941168D01*
X115358587Y-147941168D01*
X115777163Y-147857908D01*
X116251831Y-147540745D01*
X116487254Y-147188410D01*
X116722677Y-147540745D01*
X117197345Y-147857908D01*
X117615921Y-147941168D01*
X117898587Y-147941168D01*
X118317163Y-147857908D01*
X118791831Y-147540745D01*
X119027254Y-147188410D01*
X119262677Y-147540745D01*
X119737345Y-147857908D01*
X120155921Y-147941168D01*
X120438587Y-147941168D01*
X120857163Y-147857908D01*
X121331831Y-147540745D01*
X121567254Y-147188410D01*
X121802677Y-147540745D01*
X122277345Y-147857908D01*
X122695921Y-147941168D01*
X122978587Y-147941168D01*
X123397163Y-147857908D01*
X123871831Y-147540745D01*
X124107254Y-147188410D01*
X124342677Y-147540745D01*
X124817345Y-147857908D01*
X125235921Y-147941168D01*
X125518587Y-147941168D01*
X125937163Y-147857908D01*
X126411831Y-147540745D01*
X126647254Y-147188410D01*
X126882677Y-147540745D01*
X127357345Y-147857908D01*
X127775921Y-147941168D01*
X128058587Y-147941168D01*
X128477163Y-147857908D01*
X128951831Y-147540745D01*
X129268994Y-147066077D01*
X129380367Y-146506168D01*
X129268994Y-145946259D01*
X128951831Y-145471591D01*
X128477163Y-145154428D01*
X128058587Y-145071168D01*
X127775921Y-145071168D01*
X127357345Y-145154428D01*
X126882677Y-145471591D01*
X126647254Y-145823926D01*
X126411831Y-145471591D01*
X125937163Y-145154428D01*
X125518587Y-145071168D01*
X125235921Y-145071168D01*
X124817345Y-145154428D01*
X124342677Y-145471591D01*
X124107254Y-145823926D01*
X123871831Y-145471591D01*
X123397163Y-145154428D01*
X122978587Y-145071168D01*
X122695921Y-145071168D01*
X122277345Y-145154428D01*
X121802677Y-145471591D01*
X121567254Y-145823926D01*
X121331831Y-145471591D01*
X120857163Y-145154428D01*
X120438587Y-145071168D01*
X120155921Y-145071168D01*
X119737345Y-145154428D01*
X119262677Y-145471591D01*
X119027254Y-145823926D01*
X118791831Y-145471591D01*
X118317163Y-145154428D01*
X117898587Y-145071168D01*
X117615921Y-145071168D01*
X117197345Y-145154428D01*
X116722677Y-145471591D01*
X116487254Y-145823926D01*
X116251831Y-145471591D01*
X115777163Y-145154428D01*
X115358587Y-145071168D01*
X115075921Y-145071168D01*
X114657345Y-145154428D01*
X114182677Y-145471591D01*
X113947254Y-145823926D01*
X113711831Y-145471591D01*
X113237163Y-145154428D01*
X112818587Y-145071168D01*
X112535921Y-145071168D01*
X112117345Y-145154428D01*
X111642677Y-145471591D01*
X111407254Y-145823926D01*
X111171831Y-145471591D01*
X110697163Y-145154428D01*
X110278587Y-145071168D01*
X109995921Y-145071168D01*
X109577345Y-145154428D01*
X109102677Y-145471591D01*
X108785514Y-145946259D01*
X108674141Y-146506168D01*
X100710000Y-146506168D01*
X100710000Y-139235209D01*
X108745340Y-139235209D01*
X108984865Y-139741302D01*
X109399831Y-140117209D01*
X109788215Y-140278072D01*
X110010254Y-140156083D01*
X110010254Y-139013168D01*
X108866625Y-139013168D01*
X108745340Y-139235209D01*
X100710000Y-139235209D01*
X100710000Y-138537127D01*
X108745340Y-138537127D01*
X108866625Y-138759168D01*
X110010254Y-138759168D01*
X110010254Y-137616253D01*
X109788215Y-137494264D01*
X109399831Y-137655127D01*
X108984865Y-138031034D01*
X108745340Y-138537127D01*
X100710000Y-138537127D01*
X100710000Y-74817503D01*
X104793876Y-74817503D01*
X104793876Y-76617503D01*
X104843159Y-76865268D01*
X104983507Y-77075312D01*
X105193551Y-77215660D01*
X105441316Y-77264943D01*
X105692834Y-77264943D01*
X105793387Y-77415432D01*
X105856846Y-77457834D01*
X106806318Y-78407307D01*
X106806318Y-78708641D01*
X106646646Y-78642503D01*
X106035986Y-78642503D01*
X105471809Y-78876193D01*
X105040006Y-79307996D01*
X104806316Y-79872173D01*
X104806316Y-80482833D01*
X105040006Y-81047010D01*
X105209224Y-81216228D01*
X105193551Y-81219346D01*
X104983507Y-81359694D01*
X104843159Y-81569738D01*
X104793876Y-81817503D01*
X104793876Y-83617503D01*
X104843159Y-83865268D01*
X104983507Y-84075312D01*
X105193551Y-84215660D01*
X105441316Y-84264943D01*
X105692834Y-84264943D01*
X105793387Y-84415432D01*
X105856846Y-84457834D01*
X106806318Y-85407307D01*
X106806318Y-85708641D01*
X106646646Y-85642503D01*
X106035986Y-85642503D01*
X105471809Y-85876193D01*
X105040006Y-86307996D01*
X104806316Y-86872173D01*
X104806316Y-87482833D01*
X105040006Y-88047010D01*
X105209224Y-88216228D01*
X105193551Y-88219346D01*
X104983507Y-88359694D01*
X104843159Y-88569738D01*
X104793876Y-88817503D01*
X104793876Y-90617503D01*
X104843159Y-90865268D01*
X104983507Y-91075312D01*
X105193551Y-91215660D01*
X105441316Y-91264943D01*
X105692834Y-91264943D01*
X105793387Y-91415432D01*
X105856846Y-91457834D01*
X106806318Y-92407307D01*
X106806318Y-92708641D01*
X106646646Y-92642503D01*
X106035986Y-92642503D01*
X105471809Y-92876193D01*
X105040006Y-93307996D01*
X104806316Y-93872173D01*
X104806316Y-94482833D01*
X105040006Y-95047010D01*
X105209224Y-95216228D01*
X105193551Y-95219346D01*
X104983507Y-95359694D01*
X104843159Y-95569738D01*
X104793876Y-95817503D01*
X104793876Y-97617503D01*
X104843159Y-97865268D01*
X104983507Y-98075312D01*
X105193551Y-98215660D01*
X105441316Y-98264943D01*
X105692834Y-98264943D01*
X105793387Y-98415432D01*
X105856846Y-98457834D01*
X106806318Y-99407307D01*
X106806318Y-99708641D01*
X106646646Y-99642503D01*
X106035986Y-99642503D01*
X105471809Y-99876193D01*
X105040006Y-100307996D01*
X104806316Y-100872173D01*
X104806316Y-101482833D01*
X105040006Y-102047010D01*
X105209224Y-102216228D01*
X105193551Y-102219346D01*
X104983507Y-102359694D01*
X104843159Y-102569738D01*
X104793876Y-102817503D01*
X104793876Y-104617503D01*
X104843159Y-104865268D01*
X104983507Y-105075312D01*
X105193551Y-105215660D01*
X105441316Y-105264943D01*
X105692834Y-105264943D01*
X105793387Y-105415432D01*
X105856846Y-105457834D01*
X106806318Y-106407307D01*
X106806318Y-106708641D01*
X106646646Y-106642503D01*
X106035986Y-106642503D01*
X105471809Y-106876193D01*
X105040006Y-107307996D01*
X104806316Y-107872173D01*
X104806316Y-108482833D01*
X105040006Y-109047010D01*
X105209224Y-109216228D01*
X105193551Y-109219346D01*
X104983507Y-109359694D01*
X104843159Y-109569738D01*
X104793876Y-109817503D01*
X104793876Y-111617503D01*
X104843159Y-111865268D01*
X104983507Y-112075312D01*
X105193551Y-112215660D01*
X105441316Y-112264943D01*
X105692834Y-112264943D01*
X105793387Y-112415432D01*
X105856846Y-112457834D01*
X106806318Y-113407307D01*
X106806318Y-113708641D01*
X106646646Y-113642503D01*
X106035986Y-113642503D01*
X105471809Y-113876193D01*
X105040006Y-114307996D01*
X104806316Y-114872173D01*
X104806316Y-115482833D01*
X105040006Y-116047010D01*
X105209224Y-116216228D01*
X105193551Y-116219346D01*
X104983507Y-116359694D01*
X104843159Y-116569738D01*
X104793876Y-116817503D01*
X104793876Y-118617503D01*
X104843159Y-118865268D01*
X104983507Y-119075312D01*
X105193551Y-119215660D01*
X105441316Y-119264943D01*
X105692834Y-119264943D01*
X105793387Y-119415432D01*
X105856846Y-119457834D01*
X106806318Y-120407307D01*
X106806318Y-120708641D01*
X106646646Y-120642503D01*
X106035986Y-120642503D01*
X105471809Y-120876193D01*
X105040006Y-121307996D01*
X104806316Y-121872173D01*
X104806316Y-122482833D01*
X105040006Y-123047010D01*
X105209224Y-123216228D01*
X105193551Y-123219346D01*
X104983507Y-123359694D01*
X104843159Y-123569738D01*
X104793876Y-123817503D01*
X104793876Y-125617503D01*
X104843159Y-125865268D01*
X104983507Y-126075312D01*
X105193551Y-126215660D01*
X105441316Y-126264943D01*
X107241316Y-126264943D01*
X107489081Y-126215660D01*
X107699125Y-126075312D01*
X107729246Y-126030234D01*
X119435275Y-137736264D01*
X119262677Y-137851591D01*
X119027254Y-138203926D01*
X118791831Y-137851591D01*
X118317163Y-137534428D01*
X117898587Y-137451168D01*
X117615921Y-137451168D01*
X117197345Y-137534428D01*
X116722677Y-137851591D01*
X116487254Y-138203926D01*
X116251831Y-137851591D01*
X115777163Y-137534428D01*
X115358587Y-137451168D01*
X115075921Y-137451168D01*
X114657345Y-137534428D01*
X114182677Y-137851591D01*
X113947254Y-138203926D01*
X113711831Y-137851591D01*
X113237163Y-137534428D01*
X112818587Y-137451168D01*
X112535921Y-137451168D01*
X112117345Y-137534428D01*
X111642677Y-137851591D01*
X111386307Y-138235276D01*
X111289643Y-138031034D01*
X110874677Y-137655127D01*
X110486293Y-137494264D01*
X110264254Y-137616253D01*
X110264254Y-138759168D01*
X110284254Y-138759168D01*
X110284254Y-139013168D01*
X110264254Y-139013168D01*
X110264254Y-140156083D01*
X110486293Y-140278072D01*
X110874677Y-140117209D01*
X111289643Y-139741302D01*
X111386307Y-139537060D01*
X111642677Y-139920745D01*
X112117345Y-140237908D01*
X112535921Y-140321168D01*
X112818587Y-140321168D01*
X113237163Y-140237908D01*
X113711831Y-139920745D01*
X113947254Y-139568410D01*
X114182677Y-139920745D01*
X114657345Y-140237908D01*
X115075921Y-140321168D01*
X115358587Y-140321168D01*
X115777163Y-140237908D01*
X116251831Y-139920745D01*
X116487254Y-139568410D01*
X116722677Y-139920745D01*
X117197345Y-140237908D01*
X117615921Y-140321168D01*
X117898587Y-140321168D01*
X118317163Y-140237908D01*
X118791831Y-139920745D01*
X119027254Y-139568410D01*
X119262677Y-139920745D01*
X119737345Y-140237908D01*
X120155921Y-140321168D01*
X120438587Y-140321168D01*
X120857163Y-140237908D01*
X121331831Y-139920745D01*
X121567254Y-139568410D01*
X121802677Y-139920745D01*
X122277345Y-140237908D01*
X122695921Y-140321168D01*
X122978587Y-140321168D01*
X123397163Y-140237908D01*
X123871831Y-139920745D01*
X124107254Y-139568410D01*
X124342677Y-139920745D01*
X124817345Y-140237908D01*
X125235921Y-140321168D01*
X125518587Y-140321168D01*
X125937163Y-140237908D01*
X126411831Y-139920745D01*
X126492469Y-139800062D01*
X126519097Y-139933933D01*
X126659445Y-140143977D01*
X126869489Y-140284325D01*
X127117254Y-140333608D01*
X128717254Y-140333608D01*
X128965019Y-140284325D01*
X129175063Y-140143977D01*
X129315411Y-139933933D01*
X129364694Y-139686168D01*
X129364694Y-138521167D01*
X134738413Y-138521167D01*
X136043734Y-139826489D01*
X135872203Y-139826489D01*
X135453627Y-139909749D01*
X134978959Y-140226912D01*
X134661796Y-140701580D01*
X134550423Y-141261489D01*
X134661796Y-141821398D01*
X134978959Y-142296066D01*
X135453627Y-142613229D01*
X135872203Y-142696489D01*
X136154869Y-142696489D01*
X136573445Y-142613229D01*
X137048113Y-142296066D01*
X137283536Y-141943731D01*
X137518959Y-142296066D01*
X137872758Y-142532467D01*
X135529064Y-144876162D01*
X135465608Y-144918562D01*
X135423208Y-144982018D01*
X135423207Y-144982019D01*
X135297633Y-145169954D01*
X135238648Y-145466491D01*
X135253537Y-145541343D01*
X135253536Y-147434049D01*
X135213536Y-147434049D01*
X134965771Y-147483332D01*
X134755727Y-147623680D01*
X134615379Y-147833724D01*
X134566096Y-148081489D01*
X134566096Y-149681489D01*
X134615379Y-149929254D01*
X134755727Y-150139298D01*
X134965771Y-150279646D01*
X135213536Y-150328929D01*
X136813536Y-150328929D01*
X137061301Y-150279646D01*
X137271345Y-150139298D01*
X137411693Y-149929254D01*
X137438321Y-149795383D01*
X137518959Y-149916066D01*
X137993627Y-150233229D01*
X138412203Y-150316489D01*
X138694869Y-150316489D01*
X139113445Y-150233229D01*
X139588113Y-149916066D01*
X139823536Y-149563731D01*
X140058959Y-149916066D01*
X140533627Y-150233229D01*
X140952203Y-150316489D01*
X141234869Y-150316489D01*
X141653445Y-150233229D01*
X142128113Y-149916066D01*
X142363536Y-149563731D01*
X142598959Y-149916066D01*
X143073627Y-150233229D01*
X143492203Y-150316489D01*
X143774869Y-150316489D01*
X144193445Y-150233229D01*
X144668113Y-149916066D01*
X144903536Y-149563731D01*
X145138959Y-149916066D01*
X145613627Y-150233229D01*
X146032203Y-150316489D01*
X146314869Y-150316489D01*
X146733445Y-150233229D01*
X147208113Y-149916066D01*
X147443536Y-149563731D01*
X147678959Y-149916066D01*
X148153627Y-150233229D01*
X148572203Y-150316489D01*
X148854869Y-150316489D01*
X149273445Y-150233229D01*
X149748113Y-149916066D01*
X149983536Y-149563731D01*
X150218959Y-149916066D01*
X150693627Y-150233229D01*
X151112203Y-150316489D01*
X151394869Y-150316489D01*
X151813445Y-150233229D01*
X152288113Y-149916066D01*
X152544483Y-149532381D01*
X152641147Y-149736623D01*
X153056113Y-150112530D01*
X153444497Y-150273393D01*
X153666536Y-150151404D01*
X153666536Y-149008489D01*
X153920536Y-149008489D01*
X153920536Y-150151404D01*
X154142575Y-150273393D01*
X154530959Y-150112530D01*
X154945925Y-149736623D01*
X155185450Y-149230530D01*
X155064165Y-149008489D01*
X153920536Y-149008489D01*
X153666536Y-149008489D01*
X153646536Y-149008489D01*
X153646536Y-148754489D01*
X153666536Y-148754489D01*
X153666536Y-147611574D01*
X153920536Y-147611574D01*
X153920536Y-148754489D01*
X155064165Y-148754489D01*
X155185450Y-148532448D01*
X154945925Y-148026355D01*
X154530959Y-147650448D01*
X154142575Y-147489585D01*
X153920536Y-147611574D01*
X153666536Y-147611574D01*
X153622465Y-147587361D01*
X155825789Y-145384038D01*
X155889245Y-145341638D01*
X156057220Y-145090246D01*
X156101316Y-144868561D01*
X156101316Y-144868556D01*
X156116204Y-144793709D01*
X156101316Y-144718862D01*
X156101316Y-126264943D01*
X156241316Y-126264943D01*
X156489081Y-126215660D01*
X156699125Y-126075312D01*
X156839473Y-125865268D01*
X156888756Y-125617503D01*
X156888756Y-123817503D01*
X156839473Y-123569738D01*
X156838436Y-123568186D01*
X157050790Y-123355833D01*
X157114246Y-123313433D01*
X157282221Y-123062041D01*
X157326317Y-122840356D01*
X157326317Y-122840352D01*
X157341205Y-122765505D01*
X157326317Y-122690658D01*
X157326317Y-120167350D01*
X157341205Y-120092503D01*
X157326317Y-120017656D01*
X157326317Y-120017652D01*
X157282221Y-119795967D01*
X157114246Y-119544575D01*
X157050790Y-119502175D01*
X156654047Y-119105432D01*
X156699125Y-119075312D01*
X156839473Y-118865268D01*
X156888756Y-118617503D01*
X156888756Y-116817503D01*
X156839473Y-116569738D01*
X156838436Y-116568186D01*
X157050790Y-116355833D01*
X157114246Y-116313433D01*
X157282221Y-116062041D01*
X157326317Y-115840356D01*
X157326317Y-115840352D01*
X157341205Y-115765505D01*
X157326317Y-115690658D01*
X157326317Y-113074971D01*
X157341205Y-113000124D01*
X157326317Y-112925277D01*
X157326317Y-112925273D01*
X157282221Y-112703588D01*
X157175972Y-112544575D01*
X157156646Y-112515651D01*
X157156644Y-112515649D01*
X157114246Y-112452196D01*
X157050792Y-112409798D01*
X156746426Y-112105432D01*
X156791504Y-112075312D01*
X156931852Y-111865268D01*
X156981135Y-111617503D01*
X156981135Y-109817503D01*
X156931852Y-109569738D01*
X156930815Y-109568186D01*
X157143169Y-109355833D01*
X157206625Y-109313433D01*
X157374600Y-109062041D01*
X157418696Y-108840356D01*
X157418696Y-108840352D01*
X157433584Y-108765505D01*
X157418696Y-108690658D01*
X157418696Y-106259731D01*
X157433584Y-106184883D01*
X157418696Y-106110035D01*
X157418696Y-106110031D01*
X157374600Y-105888346D01*
X157374600Y-105888345D01*
X157249025Y-105700410D01*
X157206625Y-105636954D01*
X157143169Y-105594554D01*
X156654047Y-105105432D01*
X156699125Y-105075312D01*
X156839473Y-104865268D01*
X156888756Y-104617503D01*
X156888756Y-102817503D01*
X156839473Y-102569738D01*
X156838436Y-102568186D01*
X157050790Y-102355833D01*
X157114246Y-102313433D01*
X157282221Y-102062041D01*
X157326317Y-101840356D01*
X157326317Y-101840352D01*
X157341205Y-101765505D01*
X157326317Y-101690658D01*
X157326317Y-99167350D01*
X157341205Y-99092503D01*
X157326317Y-99017656D01*
X157326317Y-99017652D01*
X157282221Y-98795967D01*
X157114246Y-98544575D01*
X157050790Y-98502175D01*
X156654047Y-98105432D01*
X156699125Y-98075312D01*
X156839473Y-97865268D01*
X156888756Y-97617503D01*
X156888756Y-95817503D01*
X156839473Y-95569738D01*
X156838436Y-95568186D01*
X157050790Y-95355833D01*
X157114246Y-95313433D01*
X157282221Y-95062041D01*
X157326317Y-94840356D01*
X157326317Y-94840352D01*
X157341205Y-94765505D01*
X157326317Y-94690658D01*
X157326317Y-92167350D01*
X157341205Y-92092503D01*
X157326317Y-92017656D01*
X157326317Y-92017652D01*
X157282221Y-91795967D01*
X157114246Y-91544575D01*
X157050790Y-91502175D01*
X156654047Y-91105432D01*
X156699125Y-91075312D01*
X156839473Y-90865268D01*
X156888756Y-90617503D01*
X156888756Y-88817503D01*
X156839473Y-88569738D01*
X156838436Y-88568186D01*
X157050790Y-88355833D01*
X157114246Y-88313433D01*
X157282221Y-88062041D01*
X157326317Y-87840356D01*
X157326317Y-87840352D01*
X157341205Y-87765505D01*
X157326317Y-87690658D01*
X157326317Y-85167350D01*
X157341205Y-85092503D01*
X157326317Y-85017656D01*
X157326317Y-85017652D01*
X157282221Y-84795967D01*
X157114246Y-84544575D01*
X157050790Y-84502175D01*
X156654047Y-84105432D01*
X156699125Y-84075312D01*
X156839473Y-83865268D01*
X156888756Y-83617503D01*
X156888756Y-81817503D01*
X156839473Y-81569738D01*
X156838436Y-81568186D01*
X157050790Y-81355833D01*
X157114246Y-81313433D01*
X157282221Y-81062041D01*
X157326317Y-80840356D01*
X157326317Y-80840352D01*
X157341205Y-80765505D01*
X157326317Y-80690658D01*
X157326317Y-78167350D01*
X157341205Y-78092503D01*
X157326317Y-78017656D01*
X157326317Y-78017652D01*
X157282221Y-77795967D01*
X157114246Y-77544575D01*
X157050790Y-77502175D01*
X156654047Y-77105432D01*
X156699125Y-77075312D01*
X156839473Y-76865268D01*
X156888756Y-76617503D01*
X156888756Y-74817503D01*
X156839473Y-74569738D01*
X156699125Y-74359694D01*
X156489081Y-74219346D01*
X156473408Y-74216228D01*
X156642626Y-74047010D01*
X156876316Y-73482833D01*
X156876316Y-72872173D01*
X156642626Y-72307996D01*
X156210823Y-71876193D01*
X155646646Y-71642503D01*
X155035986Y-71642503D01*
X154471809Y-71876193D01*
X154040006Y-72307996D01*
X153806316Y-72872173D01*
X153806316Y-73482833D01*
X154040006Y-74047010D01*
X154209224Y-74216228D01*
X154193551Y-74219346D01*
X153983507Y-74359694D01*
X153843159Y-74569738D01*
X153793876Y-74817503D01*
X153793876Y-76617503D01*
X153843159Y-76865268D01*
X153983507Y-77075312D01*
X154193551Y-77215660D01*
X154441316Y-77264943D01*
X154692834Y-77264943D01*
X154793387Y-77415432D01*
X154856846Y-77457834D01*
X155806318Y-78407307D01*
X155806318Y-78708641D01*
X155646646Y-78642503D01*
X155035986Y-78642503D01*
X154471809Y-78876193D01*
X154040006Y-79307996D01*
X153806316Y-79872173D01*
X153806316Y-80482833D01*
X154040006Y-81047010D01*
X154209224Y-81216228D01*
X154193551Y-81219346D01*
X153983507Y-81359694D01*
X153843159Y-81569738D01*
X153793876Y-81817503D01*
X153793876Y-83617503D01*
X153843159Y-83865268D01*
X153983507Y-84075312D01*
X154193551Y-84215660D01*
X154441316Y-84264943D01*
X154692834Y-84264943D01*
X154793387Y-84415432D01*
X154856846Y-84457834D01*
X155806318Y-85407307D01*
X155806318Y-85708641D01*
X155646646Y-85642503D01*
X155035986Y-85642503D01*
X154471809Y-85876193D01*
X154040006Y-86307996D01*
X153806316Y-86872173D01*
X153806316Y-87482833D01*
X154040006Y-88047010D01*
X154209224Y-88216228D01*
X154193551Y-88219346D01*
X153983507Y-88359694D01*
X153843159Y-88569738D01*
X153793876Y-88817503D01*
X153793876Y-90617503D01*
X153843159Y-90865268D01*
X153983507Y-91075312D01*
X154193551Y-91215660D01*
X154441316Y-91264943D01*
X154692834Y-91264943D01*
X154793387Y-91415432D01*
X154856846Y-91457834D01*
X155806318Y-92407307D01*
X155806318Y-92708641D01*
X155646646Y-92642503D01*
X155035986Y-92642503D01*
X154471809Y-92876193D01*
X154040006Y-93307996D01*
X153806316Y-93872173D01*
X153806316Y-94482833D01*
X154040006Y-95047010D01*
X154209224Y-95216228D01*
X154193551Y-95219346D01*
X153983507Y-95359694D01*
X153843159Y-95569738D01*
X153793876Y-95817503D01*
X153793876Y-97617503D01*
X153843159Y-97865268D01*
X153983507Y-98075312D01*
X154193551Y-98215660D01*
X154441316Y-98264943D01*
X154692834Y-98264943D01*
X154793387Y-98415432D01*
X154856846Y-98457834D01*
X155806318Y-99407307D01*
X155806318Y-99708641D01*
X155646646Y-99642503D01*
X155035986Y-99642503D01*
X154471809Y-99876193D01*
X154040006Y-100307996D01*
X153806316Y-100872173D01*
X153806316Y-101482833D01*
X154040006Y-102047010D01*
X154209224Y-102216228D01*
X154193551Y-102219346D01*
X153983507Y-102359694D01*
X153843159Y-102569738D01*
X153793876Y-102817503D01*
X153793876Y-104617503D01*
X153843159Y-104865268D01*
X153983507Y-105075312D01*
X154193551Y-105215660D01*
X154441316Y-105264943D01*
X154692834Y-105264943D01*
X154793387Y-105415432D01*
X154856846Y-105457834D01*
X155898697Y-106499686D01*
X155898697Y-106708641D01*
X155739025Y-106642503D01*
X155128365Y-106642503D01*
X154564188Y-106876193D01*
X154132385Y-107307996D01*
X153898695Y-107872173D01*
X153898695Y-108482833D01*
X154132385Y-109047010D01*
X154301603Y-109216228D01*
X154285930Y-109219346D01*
X154075886Y-109359694D01*
X153935538Y-109569738D01*
X153886255Y-109817503D01*
X153886255Y-111617503D01*
X153935538Y-111865268D01*
X154075886Y-112075312D01*
X154285930Y-112215660D01*
X154533695Y-112264943D01*
X154785213Y-112264943D01*
X154885766Y-112415432D01*
X154949225Y-112457834D01*
X155806318Y-113314928D01*
X155806318Y-113708641D01*
X155646646Y-113642503D01*
X155035986Y-113642503D01*
X154471809Y-113876193D01*
X154040006Y-114307996D01*
X153806316Y-114872173D01*
X153806316Y-115482833D01*
X154040006Y-116047010D01*
X154209224Y-116216228D01*
X154193551Y-116219346D01*
X153983507Y-116359694D01*
X153843159Y-116569738D01*
X153793876Y-116817503D01*
X153793876Y-118617503D01*
X153843159Y-118865268D01*
X153983507Y-119075312D01*
X154193551Y-119215660D01*
X154441316Y-119264943D01*
X154692834Y-119264943D01*
X154793387Y-119415432D01*
X154856846Y-119457834D01*
X155806318Y-120407307D01*
X155806318Y-120708641D01*
X155646646Y-120642503D01*
X155035986Y-120642503D01*
X154471809Y-120876193D01*
X154040006Y-121307996D01*
X153806316Y-121872173D01*
X153806316Y-122482833D01*
X154040006Y-123047010D01*
X154209224Y-123216228D01*
X154193551Y-123219346D01*
X153983507Y-123359694D01*
X153843159Y-123569738D01*
X153793876Y-123817503D01*
X153793876Y-125617503D01*
X153843159Y-125865268D01*
X153983507Y-126075312D01*
X154193551Y-126215660D01*
X154441316Y-126264943D01*
X154581317Y-126264943D01*
X154581316Y-140062008D01*
X154353445Y-139909749D01*
X153934869Y-139826489D01*
X153652203Y-139826489D01*
X153233627Y-139909749D01*
X153138537Y-139973286D01*
X153138537Y-129979572D01*
X153153425Y-129904724D01*
X153138537Y-129829876D01*
X153138537Y-129829872D01*
X153094441Y-129608187D01*
X153094441Y-129608186D01*
X152968866Y-129420251D01*
X152926466Y-129356795D01*
X152863010Y-129314395D01*
X149654047Y-126105433D01*
X149699125Y-126075312D01*
X149839473Y-125865268D01*
X149888756Y-125617503D01*
X149888756Y-123817503D01*
X149839473Y-123569738D01*
X149838436Y-123568186D01*
X150050790Y-123355833D01*
X150114246Y-123313433D01*
X150282221Y-123062041D01*
X150326317Y-122840356D01*
X150326317Y-122840352D01*
X150341205Y-122765505D01*
X150326317Y-122690658D01*
X150326317Y-120167350D01*
X150341205Y-120092503D01*
X150326317Y-120017656D01*
X150326317Y-120017652D01*
X150282221Y-119795967D01*
X150114246Y-119544575D01*
X150050790Y-119502175D01*
X149654047Y-119105432D01*
X149699125Y-119075312D01*
X149839473Y-118865268D01*
X149888756Y-118617503D01*
X149888756Y-116817503D01*
X149839473Y-116569738D01*
X149838436Y-116568186D01*
X150050790Y-116355833D01*
X150114246Y-116313433D01*
X150282221Y-116062041D01*
X150326317Y-115840356D01*
X150326317Y-115840352D01*
X150341205Y-115765505D01*
X150326317Y-115690658D01*
X150326317Y-113167350D01*
X150341205Y-113092503D01*
X150326317Y-113017656D01*
X150326317Y-113017652D01*
X150282221Y-112795967D01*
X150114246Y-112544575D01*
X150050790Y-112502175D01*
X149654047Y-112105432D01*
X149699125Y-112075312D01*
X149839473Y-111865268D01*
X149888756Y-111617503D01*
X149888756Y-109817503D01*
X149839473Y-109569738D01*
X149838436Y-109568186D01*
X150050790Y-109355833D01*
X150114246Y-109313433D01*
X150282221Y-109062041D01*
X150326317Y-108840356D01*
X150326317Y-108840352D01*
X150341205Y-108765505D01*
X150326317Y-108690658D01*
X150326317Y-106167350D01*
X150341205Y-106092503D01*
X150326317Y-106017656D01*
X150326317Y-106017652D01*
X150282221Y-105795967D01*
X150114246Y-105544575D01*
X150050790Y-105502175D01*
X149654047Y-105105432D01*
X149699125Y-105075312D01*
X149839473Y-104865268D01*
X149888756Y-104617503D01*
X149888756Y-102817503D01*
X149839473Y-102569738D01*
X149838436Y-102568186D01*
X150050790Y-102355833D01*
X150114246Y-102313433D01*
X150282221Y-102062041D01*
X150326317Y-101840356D01*
X150326317Y-101840352D01*
X150341205Y-101765505D01*
X150326317Y-101690658D01*
X150326317Y-99167350D01*
X150341205Y-99092503D01*
X150326317Y-99017656D01*
X150326317Y-99017652D01*
X150282221Y-98795967D01*
X150114246Y-98544575D01*
X150050790Y-98502175D01*
X149654047Y-98105432D01*
X149699125Y-98075312D01*
X149839473Y-97865268D01*
X149888756Y-97617503D01*
X149888756Y-95817503D01*
X149839473Y-95569738D01*
X149838436Y-95568186D01*
X150050790Y-95355833D01*
X150114246Y-95313433D01*
X150282221Y-95062041D01*
X150326317Y-94840356D01*
X150326317Y-94840352D01*
X150341205Y-94765505D01*
X150326317Y-94690658D01*
X150326317Y-92167350D01*
X150341205Y-92092503D01*
X150326317Y-92017656D01*
X150326317Y-92017652D01*
X150282221Y-91795967D01*
X150114246Y-91544575D01*
X150050790Y-91502175D01*
X149654047Y-91105432D01*
X149699125Y-91075312D01*
X149839473Y-90865268D01*
X149888756Y-90617503D01*
X149888756Y-88817503D01*
X149839473Y-88569738D01*
X149838436Y-88568186D01*
X150050790Y-88355833D01*
X150114246Y-88313433D01*
X150282221Y-88062041D01*
X150326317Y-87840356D01*
X150326317Y-87840352D01*
X150341205Y-87765505D01*
X150326317Y-87690658D01*
X150326317Y-85167350D01*
X150341205Y-85092503D01*
X150326317Y-85017656D01*
X150326317Y-85017652D01*
X150282221Y-84795967D01*
X150114246Y-84544575D01*
X150050790Y-84502175D01*
X149654047Y-84105432D01*
X149699125Y-84075312D01*
X149839473Y-83865268D01*
X149888756Y-83617503D01*
X149888756Y-81817503D01*
X149839473Y-81569738D01*
X149838436Y-81568186D01*
X150050790Y-81355833D01*
X150114246Y-81313433D01*
X150282221Y-81062041D01*
X150326317Y-80840356D01*
X150326317Y-80840352D01*
X150341205Y-80765505D01*
X150326317Y-80690658D01*
X150326317Y-78167350D01*
X150341205Y-78092503D01*
X150326317Y-78017656D01*
X150326317Y-78017652D01*
X150282221Y-77795967D01*
X150114246Y-77544575D01*
X150050790Y-77502175D01*
X149654047Y-77105432D01*
X149699125Y-77075312D01*
X149839473Y-76865268D01*
X149888756Y-76617503D01*
X149888756Y-74817503D01*
X149839473Y-74569738D01*
X149699125Y-74359694D01*
X149489081Y-74219346D01*
X149473408Y-74216228D01*
X149642626Y-74047010D01*
X149876316Y-73482833D01*
X149876316Y-72872173D01*
X149642626Y-72307996D01*
X149210823Y-71876193D01*
X148646646Y-71642503D01*
X148035986Y-71642503D01*
X147471809Y-71876193D01*
X147040006Y-72307996D01*
X146806316Y-72872173D01*
X146806316Y-73482833D01*
X147040006Y-74047010D01*
X147209224Y-74216228D01*
X147193551Y-74219346D01*
X146983507Y-74359694D01*
X146843159Y-74569738D01*
X146793876Y-74817503D01*
X146793876Y-76617503D01*
X146843159Y-76865268D01*
X146983507Y-77075312D01*
X147193551Y-77215660D01*
X147441316Y-77264943D01*
X147692834Y-77264943D01*
X147793387Y-77415432D01*
X147856846Y-77457834D01*
X148806318Y-78407307D01*
X148806318Y-78708641D01*
X148646646Y-78642503D01*
X148035986Y-78642503D01*
X147471809Y-78876193D01*
X147040006Y-79307996D01*
X146806316Y-79872173D01*
X146806316Y-80482833D01*
X147040006Y-81047010D01*
X147209224Y-81216228D01*
X147193551Y-81219346D01*
X146983507Y-81359694D01*
X146843159Y-81569738D01*
X146793876Y-81817503D01*
X146793876Y-83617503D01*
X146843159Y-83865268D01*
X146983507Y-84075312D01*
X147193551Y-84215660D01*
X147441316Y-84264943D01*
X147692834Y-84264943D01*
X147793387Y-84415432D01*
X147856846Y-84457834D01*
X148806318Y-85407307D01*
X148806318Y-85708641D01*
X148646646Y-85642503D01*
X148035986Y-85642503D01*
X147471809Y-85876193D01*
X147040006Y-86307996D01*
X146806316Y-86872173D01*
X146806316Y-87482833D01*
X147040006Y-88047010D01*
X147209224Y-88216228D01*
X147193551Y-88219346D01*
X146983507Y-88359694D01*
X146843159Y-88569738D01*
X146793876Y-88817503D01*
X146793876Y-90617503D01*
X146843159Y-90865268D01*
X146983507Y-91075312D01*
X147193551Y-91215660D01*
X147441316Y-91264943D01*
X147692834Y-91264943D01*
X147793387Y-91415432D01*
X147856846Y-91457834D01*
X148806318Y-92407307D01*
X148806318Y-92708641D01*
X148646646Y-92642503D01*
X148035986Y-92642503D01*
X147471809Y-92876193D01*
X147040006Y-93307996D01*
X146806316Y-93872173D01*
X146806316Y-94482833D01*
X147040006Y-95047010D01*
X147209224Y-95216228D01*
X147193551Y-95219346D01*
X146983507Y-95359694D01*
X146843159Y-95569738D01*
X146793876Y-95817503D01*
X146793876Y-97617503D01*
X146843159Y-97865268D01*
X146983507Y-98075312D01*
X147193551Y-98215660D01*
X147441316Y-98264943D01*
X147692834Y-98264943D01*
X147793387Y-98415432D01*
X147856846Y-98457834D01*
X148806318Y-99407307D01*
X148806318Y-99708641D01*
X148646646Y-99642503D01*
X148035986Y-99642503D01*
X147471809Y-99876193D01*
X147040006Y-100307996D01*
X146806316Y-100872173D01*
X146806316Y-101482833D01*
X147040006Y-102047010D01*
X147209224Y-102216228D01*
X147193551Y-102219346D01*
X146983507Y-102359694D01*
X146843159Y-102569738D01*
X146793876Y-102817503D01*
X146793876Y-104617503D01*
X146843159Y-104865268D01*
X146983507Y-105075312D01*
X147193551Y-105215660D01*
X147441316Y-105264943D01*
X147692834Y-105264943D01*
X147793387Y-105415432D01*
X147856846Y-105457834D01*
X148806318Y-106407307D01*
X148806318Y-106708641D01*
X148646646Y-106642503D01*
X148035986Y-106642503D01*
X147471809Y-106876193D01*
X147040006Y-107307996D01*
X146806316Y-107872173D01*
X146806316Y-108482833D01*
X147040006Y-109047010D01*
X147209224Y-109216228D01*
X147193551Y-109219346D01*
X146983507Y-109359694D01*
X146843159Y-109569738D01*
X146793876Y-109817503D01*
X146793876Y-111617503D01*
X146843159Y-111865268D01*
X146983507Y-112075312D01*
X147193551Y-112215660D01*
X147441316Y-112264943D01*
X147692834Y-112264943D01*
X147793387Y-112415432D01*
X147856846Y-112457834D01*
X148806318Y-113407307D01*
X148806318Y-113708641D01*
X148646646Y-113642503D01*
X148035986Y-113642503D01*
X147471809Y-113876193D01*
X147040006Y-114307996D01*
X146806316Y-114872173D01*
X146806316Y-115482833D01*
X147040006Y-116047010D01*
X147209224Y-116216228D01*
X147193551Y-116219346D01*
X146983507Y-116359694D01*
X146843159Y-116569738D01*
X146793876Y-116817503D01*
X146793876Y-118617503D01*
X146843159Y-118865268D01*
X146983507Y-119075312D01*
X147193551Y-119215660D01*
X147441316Y-119264943D01*
X147692834Y-119264943D01*
X147793387Y-119415432D01*
X147856846Y-119457834D01*
X148806318Y-120407307D01*
X148806318Y-120708641D01*
X148646646Y-120642503D01*
X148035986Y-120642503D01*
X147471809Y-120876193D01*
X147040006Y-121307996D01*
X146806316Y-121872173D01*
X146806316Y-122482833D01*
X147040006Y-123047010D01*
X147209224Y-123216228D01*
X147193551Y-123219346D01*
X146983507Y-123359694D01*
X146843159Y-123569738D01*
X146793876Y-123817503D01*
X146793876Y-125617503D01*
X146843159Y-125865268D01*
X146983507Y-126075312D01*
X147193551Y-126215660D01*
X147441316Y-126264943D01*
X147692834Y-126264943D01*
X147793387Y-126415432D01*
X147856846Y-126457834D01*
X151618538Y-130219527D01*
X151618537Y-139870979D01*
X151394869Y-139826489D01*
X151112203Y-139826489D01*
X150693627Y-139909749D01*
X150598537Y-139973286D01*
X150598537Y-138710338D01*
X150613425Y-138635490D01*
X150598537Y-138560642D01*
X150598537Y-138560638D01*
X150554441Y-138338953D01*
X150554441Y-138338952D01*
X150428866Y-138151017D01*
X150386466Y-138087561D01*
X150323010Y-138045161D01*
X147563946Y-135286098D01*
X147592954Y-135280328D01*
X148084161Y-134952114D01*
X148096352Y-134933870D01*
X148105379Y-134979254D01*
X148245727Y-135189298D01*
X148455771Y-135329646D01*
X148703536Y-135378929D01*
X150403536Y-135378929D01*
X150651301Y-135329646D01*
X150861345Y-135189298D01*
X151001693Y-134979254D01*
X151050976Y-134731489D01*
X151050976Y-133031489D01*
X151001693Y-132783724D01*
X150861345Y-132573680D01*
X150651301Y-132433332D01*
X150403536Y-132384049D01*
X148703536Y-132384049D01*
X148455771Y-132433332D01*
X148245727Y-132573680D01*
X148105379Y-132783724D01*
X148096352Y-132829108D01*
X148084161Y-132810864D01*
X147592954Y-132482650D01*
X147159792Y-132396489D01*
X146867280Y-132396489D01*
X146434118Y-132482650D01*
X146408537Y-132499743D01*
X146408537Y-130249570D01*
X146423425Y-130174723D01*
X146408537Y-130099876D01*
X146408537Y-130099872D01*
X146364441Y-129878187D01*
X146322639Y-129815626D01*
X146238866Y-129690250D01*
X146238864Y-129690248D01*
X146196466Y-129626795D01*
X146133013Y-129584397D01*
X142654047Y-126105432D01*
X142699125Y-126075312D01*
X142839473Y-125865268D01*
X142888756Y-125617503D01*
X142888756Y-123817503D01*
X142839473Y-123569738D01*
X142838436Y-123568186D01*
X143050790Y-123355833D01*
X143114246Y-123313433D01*
X143282221Y-123062041D01*
X143326317Y-122840356D01*
X143326317Y-122840352D01*
X143341205Y-122765505D01*
X143326317Y-122690658D01*
X143326317Y-120167350D01*
X143341205Y-120092503D01*
X143326317Y-120017656D01*
X143326317Y-120017652D01*
X143282221Y-119795967D01*
X143114246Y-119544575D01*
X143050790Y-119502175D01*
X142654047Y-119105432D01*
X142699125Y-119075312D01*
X142839473Y-118865268D01*
X142888756Y-118617503D01*
X142888756Y-116817503D01*
X142839473Y-116569738D01*
X142838436Y-116568186D01*
X143050790Y-116355833D01*
X143114246Y-116313433D01*
X143282221Y-116062041D01*
X143326317Y-115840356D01*
X143326317Y-115840352D01*
X143341205Y-115765505D01*
X143326317Y-115690658D01*
X143326317Y-113167350D01*
X143341205Y-113092503D01*
X143326317Y-113017656D01*
X143326317Y-113017652D01*
X143282221Y-112795967D01*
X143114246Y-112544575D01*
X143050790Y-112502175D01*
X142654047Y-112105432D01*
X142699125Y-112075312D01*
X142839473Y-111865268D01*
X142888756Y-111617503D01*
X142888756Y-109817503D01*
X142839473Y-109569738D01*
X142838436Y-109568186D01*
X143050790Y-109355833D01*
X143114246Y-109313433D01*
X143282221Y-109062041D01*
X143326317Y-108840356D01*
X143326317Y-108840352D01*
X143341205Y-108765505D01*
X143326317Y-108690658D01*
X143326317Y-106167350D01*
X143341205Y-106092503D01*
X143326317Y-106017656D01*
X143326317Y-106017652D01*
X143282221Y-105795967D01*
X143114246Y-105544575D01*
X143050790Y-105502175D01*
X142654047Y-105105432D01*
X142699125Y-105075312D01*
X142839473Y-104865268D01*
X142888756Y-104617503D01*
X142888756Y-102817503D01*
X142839473Y-102569738D01*
X142838436Y-102568186D01*
X143050790Y-102355833D01*
X143114246Y-102313433D01*
X143282221Y-102062041D01*
X143326317Y-101840356D01*
X143326317Y-101840352D01*
X143341205Y-101765505D01*
X143326317Y-101690658D01*
X143326317Y-99167350D01*
X143341205Y-99092503D01*
X143326317Y-99017656D01*
X143326317Y-99017652D01*
X143282221Y-98795967D01*
X143114246Y-98544575D01*
X143050790Y-98502175D01*
X142654047Y-98105432D01*
X142699125Y-98075312D01*
X142839473Y-97865268D01*
X142888756Y-97617503D01*
X142888756Y-95817503D01*
X142839473Y-95569738D01*
X142838436Y-95568186D01*
X143050790Y-95355833D01*
X143114246Y-95313433D01*
X143282221Y-95062041D01*
X143326317Y-94840356D01*
X143326317Y-94840352D01*
X143341205Y-94765505D01*
X143326317Y-94690658D01*
X143326317Y-92167350D01*
X143341205Y-92092503D01*
X143326317Y-92017656D01*
X143326317Y-92017652D01*
X143282221Y-91795967D01*
X143114246Y-91544575D01*
X143050790Y-91502175D01*
X142654047Y-91105432D01*
X142699125Y-91075312D01*
X142839473Y-90865268D01*
X142888756Y-90617503D01*
X142888756Y-88817503D01*
X142839473Y-88569738D01*
X142838436Y-88568186D01*
X143050790Y-88355833D01*
X143114246Y-88313433D01*
X143282221Y-88062041D01*
X143326317Y-87840356D01*
X143326317Y-87840352D01*
X143341205Y-87765505D01*
X143326317Y-87690658D01*
X143326317Y-85167350D01*
X143341205Y-85092503D01*
X143326317Y-85017656D01*
X143326317Y-85017652D01*
X143282221Y-84795967D01*
X143114246Y-84544575D01*
X143050790Y-84502175D01*
X142654047Y-84105432D01*
X142699125Y-84075312D01*
X142839473Y-83865268D01*
X142888756Y-83617503D01*
X142888756Y-81817503D01*
X142839473Y-81569738D01*
X142838436Y-81568186D01*
X143050790Y-81355833D01*
X143114246Y-81313433D01*
X143282221Y-81062041D01*
X143326317Y-80840356D01*
X143326317Y-80840352D01*
X143341205Y-80765505D01*
X143326317Y-80690658D01*
X143326317Y-78167350D01*
X143341205Y-78092503D01*
X143326317Y-78017656D01*
X143326317Y-78017652D01*
X143282221Y-77795967D01*
X143114246Y-77544575D01*
X143050790Y-77502175D01*
X142654047Y-77105432D01*
X142699125Y-77075312D01*
X142839473Y-76865268D01*
X142888756Y-76617503D01*
X142888756Y-74817503D01*
X142839473Y-74569738D01*
X142699125Y-74359694D01*
X142489081Y-74219346D01*
X142473408Y-74216228D01*
X142642626Y-74047010D01*
X142876316Y-73482833D01*
X142876316Y-72872173D01*
X142642626Y-72307996D01*
X142210823Y-71876193D01*
X141646646Y-71642503D01*
X141035986Y-71642503D01*
X140471809Y-71876193D01*
X140040006Y-72307996D01*
X139806316Y-72872173D01*
X139806316Y-73482833D01*
X140040006Y-74047010D01*
X140209224Y-74216228D01*
X140193551Y-74219346D01*
X139983507Y-74359694D01*
X139843159Y-74569738D01*
X139793876Y-74817503D01*
X139793876Y-76617503D01*
X139843159Y-76865268D01*
X139983507Y-77075312D01*
X140193551Y-77215660D01*
X140441316Y-77264943D01*
X140692834Y-77264943D01*
X140793387Y-77415432D01*
X140856846Y-77457834D01*
X141806318Y-78407307D01*
X141806318Y-78708641D01*
X141646646Y-78642503D01*
X141035986Y-78642503D01*
X140471809Y-78876193D01*
X140040006Y-79307996D01*
X139806316Y-79872173D01*
X139806316Y-80482833D01*
X140040006Y-81047010D01*
X140209224Y-81216228D01*
X140193551Y-81219346D01*
X139983507Y-81359694D01*
X139843159Y-81569738D01*
X139793876Y-81817503D01*
X139793876Y-83617503D01*
X139843159Y-83865268D01*
X139983507Y-84075312D01*
X140193551Y-84215660D01*
X140441316Y-84264943D01*
X140692834Y-84264943D01*
X140793387Y-84415432D01*
X140856846Y-84457834D01*
X141806318Y-85407307D01*
X141806318Y-85708641D01*
X141646646Y-85642503D01*
X141035986Y-85642503D01*
X140471809Y-85876193D01*
X140040006Y-86307996D01*
X139806316Y-86872173D01*
X139806316Y-87482833D01*
X140040006Y-88047010D01*
X140209224Y-88216228D01*
X140193551Y-88219346D01*
X139983507Y-88359694D01*
X139843159Y-88569738D01*
X139793876Y-88817503D01*
X139793876Y-90617503D01*
X139843159Y-90865268D01*
X139983507Y-91075312D01*
X140193551Y-91215660D01*
X140441316Y-91264943D01*
X140692834Y-91264943D01*
X140793387Y-91415432D01*
X140856846Y-91457834D01*
X141806318Y-92407307D01*
X141806318Y-92708641D01*
X141646646Y-92642503D01*
X141035986Y-92642503D01*
X140471809Y-92876193D01*
X140040006Y-93307996D01*
X139806316Y-93872173D01*
X139806316Y-94482833D01*
X140040006Y-95047010D01*
X140209224Y-95216228D01*
X140193551Y-95219346D01*
X139983507Y-95359694D01*
X139843159Y-95569738D01*
X139793876Y-95817503D01*
X139793876Y-97617503D01*
X139843159Y-97865268D01*
X139983507Y-98075312D01*
X140193551Y-98215660D01*
X140441316Y-98264943D01*
X140692834Y-98264943D01*
X140793387Y-98415432D01*
X140856846Y-98457834D01*
X141806318Y-99407307D01*
X141806318Y-99708641D01*
X141646646Y-99642503D01*
X141035986Y-99642503D01*
X140471809Y-99876193D01*
X140040006Y-100307996D01*
X139806316Y-100872173D01*
X139806316Y-101482833D01*
X140040006Y-102047010D01*
X140209224Y-102216228D01*
X140193551Y-102219346D01*
X139983507Y-102359694D01*
X139843159Y-102569738D01*
X139793876Y-102817503D01*
X139793876Y-104617503D01*
X139843159Y-104865268D01*
X139983507Y-105075312D01*
X140193551Y-105215660D01*
X140441316Y-105264943D01*
X140692834Y-105264943D01*
X140793387Y-105415432D01*
X140856846Y-105457834D01*
X141806318Y-106407307D01*
X141806318Y-106708641D01*
X141646646Y-106642503D01*
X141035986Y-106642503D01*
X140471809Y-106876193D01*
X140040006Y-107307996D01*
X139806316Y-107872173D01*
X139806316Y-108482833D01*
X140040006Y-109047010D01*
X140209224Y-109216228D01*
X140193551Y-109219346D01*
X139983507Y-109359694D01*
X139843159Y-109569738D01*
X139793876Y-109817503D01*
X139793876Y-111617503D01*
X139843159Y-111865268D01*
X139983507Y-112075312D01*
X140193551Y-112215660D01*
X140441316Y-112264943D01*
X140692834Y-112264943D01*
X140793387Y-112415432D01*
X140856846Y-112457834D01*
X141806318Y-113407307D01*
X141806318Y-113708641D01*
X141646646Y-113642503D01*
X141035986Y-113642503D01*
X140471809Y-113876193D01*
X140040006Y-114307996D01*
X139806316Y-114872173D01*
X139806316Y-115482833D01*
X140040006Y-116047010D01*
X140209224Y-116216228D01*
X140193551Y-116219346D01*
X139983507Y-116359694D01*
X139843159Y-116569738D01*
X139793876Y-116817503D01*
X139793876Y-118617503D01*
X139843159Y-118865268D01*
X139983507Y-119075312D01*
X140193551Y-119215660D01*
X140441316Y-119264943D01*
X140692834Y-119264943D01*
X140793387Y-119415432D01*
X140856846Y-119457834D01*
X141806318Y-120407307D01*
X141806318Y-120708641D01*
X141646646Y-120642503D01*
X141035986Y-120642503D01*
X140471809Y-120876193D01*
X140040006Y-121307996D01*
X139806316Y-121872173D01*
X139806316Y-122482833D01*
X140040006Y-123047010D01*
X140209224Y-123216228D01*
X140193551Y-123219346D01*
X139983507Y-123359694D01*
X139843159Y-123569738D01*
X139793876Y-123817503D01*
X139793876Y-125617503D01*
X139843159Y-125865268D01*
X139983507Y-126075312D01*
X140193551Y-126215660D01*
X140441316Y-126264943D01*
X140692834Y-126264943D01*
X140793387Y-126415432D01*
X140856846Y-126457834D01*
X144888538Y-130489528D01*
X144888537Y-132449946D01*
X144619792Y-132396489D01*
X144327280Y-132396489D01*
X143894118Y-132482650D01*
X143868537Y-132499743D01*
X143868537Y-132409570D01*
X143883425Y-132334723D01*
X143868537Y-132259876D01*
X143868537Y-132259872D01*
X143824441Y-132038187D01*
X143656466Y-131786795D01*
X143593010Y-131744395D01*
X136081647Y-124233033D01*
X136039245Y-124169574D01*
X135888756Y-124069020D01*
X135888756Y-123817503D01*
X135839473Y-123569738D01*
X135838436Y-123568186D01*
X136050790Y-123355833D01*
X136114246Y-123313433D01*
X136282221Y-123062041D01*
X136326317Y-122840356D01*
X136326317Y-122840352D01*
X136341205Y-122765505D01*
X136326317Y-122690658D01*
X136326317Y-120167350D01*
X136341205Y-120092503D01*
X136326317Y-120017656D01*
X136326317Y-120017652D01*
X136282221Y-119795967D01*
X136114246Y-119544575D01*
X136050790Y-119502175D01*
X135654047Y-119105432D01*
X135699125Y-119075312D01*
X135839473Y-118865268D01*
X135888756Y-118617503D01*
X135888756Y-116817503D01*
X135839473Y-116569738D01*
X135838436Y-116568186D01*
X136050790Y-116355833D01*
X136114246Y-116313433D01*
X136282221Y-116062041D01*
X136326317Y-115840356D01*
X136326317Y-115840352D01*
X136341205Y-115765505D01*
X136326317Y-115690658D01*
X136326317Y-113167350D01*
X136341205Y-113092503D01*
X136326317Y-113017656D01*
X136326317Y-113017652D01*
X136282221Y-112795967D01*
X136114246Y-112544575D01*
X136050790Y-112502175D01*
X135654047Y-112105432D01*
X135699125Y-112075312D01*
X135839473Y-111865268D01*
X135888756Y-111617503D01*
X135888756Y-109817503D01*
X135839473Y-109569738D01*
X135838436Y-109568186D01*
X136050790Y-109355833D01*
X136114246Y-109313433D01*
X136282221Y-109062041D01*
X136326317Y-108840356D01*
X136326317Y-108840352D01*
X136341205Y-108765505D01*
X136326317Y-108690658D01*
X136326317Y-106167350D01*
X136341205Y-106092503D01*
X136326317Y-106017656D01*
X136326317Y-106017652D01*
X136282221Y-105795967D01*
X136114246Y-105544575D01*
X136050790Y-105502175D01*
X135654047Y-105105432D01*
X135699125Y-105075312D01*
X135839473Y-104865268D01*
X135888756Y-104617503D01*
X135888756Y-102817503D01*
X135839473Y-102569738D01*
X135838436Y-102568186D01*
X136050790Y-102355833D01*
X136114246Y-102313433D01*
X136282221Y-102062041D01*
X136326317Y-101840356D01*
X136326317Y-101840352D01*
X136341205Y-101765505D01*
X136326317Y-101690658D01*
X136326317Y-99167350D01*
X136341205Y-99092503D01*
X136326317Y-99017656D01*
X136326317Y-99017652D01*
X136282221Y-98795967D01*
X136114246Y-98544575D01*
X136050790Y-98502175D01*
X135654047Y-98105432D01*
X135699125Y-98075312D01*
X135839473Y-97865268D01*
X135888756Y-97617503D01*
X135888756Y-95817503D01*
X135839473Y-95569738D01*
X135838436Y-95568186D01*
X136050790Y-95355833D01*
X136114246Y-95313433D01*
X136282221Y-95062041D01*
X136326317Y-94840356D01*
X136326317Y-94840352D01*
X136341205Y-94765505D01*
X136326317Y-94690658D01*
X136326317Y-92167350D01*
X136341205Y-92092503D01*
X136326317Y-92017656D01*
X136326317Y-92017652D01*
X136282221Y-91795967D01*
X136114246Y-91544575D01*
X136050790Y-91502175D01*
X135654047Y-91105432D01*
X135699125Y-91075312D01*
X135839473Y-90865268D01*
X135888756Y-90617503D01*
X135888756Y-88817503D01*
X135839473Y-88569738D01*
X135838436Y-88568186D01*
X136050790Y-88355833D01*
X136114246Y-88313433D01*
X136282221Y-88062041D01*
X136326317Y-87840356D01*
X136326317Y-87840352D01*
X136341205Y-87765505D01*
X136326317Y-87690658D01*
X136326317Y-85167350D01*
X136341205Y-85092503D01*
X136326317Y-85017656D01*
X136326317Y-85017652D01*
X136282221Y-84795967D01*
X136114246Y-84544575D01*
X136050790Y-84502175D01*
X135654047Y-84105432D01*
X135699125Y-84075312D01*
X135839473Y-83865268D01*
X135888756Y-83617503D01*
X135888756Y-81817503D01*
X135839473Y-81569738D01*
X135838436Y-81568186D01*
X136050790Y-81355833D01*
X136114246Y-81313433D01*
X136282221Y-81062041D01*
X136326317Y-80840356D01*
X136326317Y-80840352D01*
X136341205Y-80765505D01*
X136326317Y-80690658D01*
X136326317Y-78167350D01*
X136341205Y-78092503D01*
X136326317Y-78017656D01*
X136326317Y-78017652D01*
X136282221Y-77795967D01*
X136114246Y-77544575D01*
X136050790Y-77502175D01*
X135654047Y-77105432D01*
X135699125Y-77075312D01*
X135839473Y-76865268D01*
X135888756Y-76617503D01*
X135888756Y-74817503D01*
X135839473Y-74569738D01*
X135699125Y-74359694D01*
X135489081Y-74219346D01*
X135473408Y-74216228D01*
X135642626Y-74047010D01*
X135876316Y-73482833D01*
X135876316Y-72872173D01*
X135642626Y-72307996D01*
X135210823Y-71876193D01*
X134646646Y-71642503D01*
X134035986Y-71642503D01*
X133471809Y-71876193D01*
X133040006Y-72307996D01*
X132806316Y-72872173D01*
X132806316Y-73482833D01*
X133040006Y-74047010D01*
X133209224Y-74216228D01*
X133193551Y-74219346D01*
X132983507Y-74359694D01*
X132843159Y-74569738D01*
X132793876Y-74817503D01*
X132793876Y-76617503D01*
X132843159Y-76865268D01*
X132983507Y-77075312D01*
X133193551Y-77215660D01*
X133441316Y-77264943D01*
X133692834Y-77264943D01*
X133793387Y-77415432D01*
X133856846Y-77457834D01*
X134806318Y-78407307D01*
X134806318Y-78708641D01*
X134646646Y-78642503D01*
X134035986Y-78642503D01*
X133471809Y-78876193D01*
X133040006Y-79307996D01*
X132806316Y-79872173D01*
X132806316Y-80482833D01*
X133040006Y-81047010D01*
X133209224Y-81216228D01*
X133193551Y-81219346D01*
X132983507Y-81359694D01*
X132843159Y-81569738D01*
X132793876Y-81817503D01*
X132793876Y-83617503D01*
X132843159Y-83865268D01*
X132983507Y-84075312D01*
X133193551Y-84215660D01*
X133441316Y-84264943D01*
X133692834Y-84264943D01*
X133793387Y-84415432D01*
X133856846Y-84457834D01*
X134806318Y-85407307D01*
X134806318Y-85708641D01*
X134646646Y-85642503D01*
X134035986Y-85642503D01*
X133471809Y-85876193D01*
X133040006Y-86307996D01*
X132806316Y-86872173D01*
X132806316Y-87482833D01*
X133040006Y-88047010D01*
X133209224Y-88216228D01*
X133193551Y-88219346D01*
X132983507Y-88359694D01*
X132843159Y-88569738D01*
X132793876Y-88817503D01*
X132793876Y-90617503D01*
X132843159Y-90865268D01*
X132983507Y-91075312D01*
X133193551Y-91215660D01*
X133441316Y-91264943D01*
X133692834Y-91264943D01*
X133793387Y-91415432D01*
X133856846Y-91457834D01*
X134806318Y-92407307D01*
X134806318Y-92708641D01*
X134646646Y-92642503D01*
X134035986Y-92642503D01*
X133471809Y-92876193D01*
X133040006Y-93307996D01*
X132806316Y-93872173D01*
X132806316Y-94482833D01*
X133040006Y-95047010D01*
X133209224Y-95216228D01*
X133193551Y-95219346D01*
X132983507Y-95359694D01*
X132843159Y-95569738D01*
X132793876Y-95817503D01*
X132793876Y-97617503D01*
X132843159Y-97865268D01*
X132983507Y-98075312D01*
X133193551Y-98215660D01*
X133441316Y-98264943D01*
X133692834Y-98264943D01*
X133793387Y-98415432D01*
X133856846Y-98457834D01*
X134806318Y-99407307D01*
X134806318Y-99708641D01*
X134646646Y-99642503D01*
X134035986Y-99642503D01*
X133471809Y-99876193D01*
X133040006Y-100307996D01*
X132806316Y-100872173D01*
X132806316Y-101482833D01*
X133040006Y-102047010D01*
X133209224Y-102216228D01*
X133193551Y-102219346D01*
X132983507Y-102359694D01*
X132843159Y-102569738D01*
X132793876Y-102817503D01*
X132793876Y-104617503D01*
X132843159Y-104865268D01*
X132983507Y-105075312D01*
X133193551Y-105215660D01*
X133441316Y-105264943D01*
X133692834Y-105264943D01*
X133793387Y-105415432D01*
X133856846Y-105457834D01*
X134806318Y-106407307D01*
X134806318Y-106708641D01*
X134646646Y-106642503D01*
X134035986Y-106642503D01*
X133471809Y-106876193D01*
X133040006Y-107307996D01*
X132806316Y-107872173D01*
X132806316Y-108482833D01*
X133040006Y-109047010D01*
X133209224Y-109216228D01*
X133193551Y-109219346D01*
X132983507Y-109359694D01*
X132843159Y-109569738D01*
X132793876Y-109817503D01*
X132793876Y-111617503D01*
X132843159Y-111865268D01*
X132983507Y-112075312D01*
X133193551Y-112215660D01*
X133441316Y-112264943D01*
X133692834Y-112264943D01*
X133793387Y-112415432D01*
X133856846Y-112457834D01*
X134806318Y-113407307D01*
X134806318Y-113708641D01*
X134646646Y-113642503D01*
X134035986Y-113642503D01*
X133471809Y-113876193D01*
X133040006Y-114307996D01*
X132806316Y-114872173D01*
X132806316Y-115482833D01*
X133040006Y-116047010D01*
X133209224Y-116216228D01*
X133193551Y-116219346D01*
X132983507Y-116359694D01*
X132843159Y-116569738D01*
X132793876Y-116817503D01*
X132793876Y-118617503D01*
X132843159Y-118865268D01*
X132983507Y-119075312D01*
X133193551Y-119215660D01*
X133441316Y-119264943D01*
X133692834Y-119264943D01*
X133793387Y-119415432D01*
X133856846Y-119457834D01*
X134806318Y-120407307D01*
X134806318Y-120708641D01*
X134646646Y-120642503D01*
X134035986Y-120642503D01*
X133471809Y-120876193D01*
X133040006Y-121307996D01*
X132806316Y-121872173D01*
X132806316Y-122482833D01*
X133040006Y-123047010D01*
X133209224Y-123216228D01*
X133193551Y-123219346D01*
X132983507Y-123359694D01*
X132843159Y-123569738D01*
X132793876Y-123817503D01*
X132793876Y-124468026D01*
X132558883Y-124233033D01*
X132516481Y-124169574D01*
X132265089Y-124001599D01*
X132043404Y-123957503D01*
X132043399Y-123957503D01*
X131968552Y-123942615D01*
X131893705Y-123957503D01*
X128888756Y-123957503D01*
X128888756Y-123817503D01*
X128839473Y-123569738D01*
X128838436Y-123568186D01*
X129050790Y-123355833D01*
X129114246Y-123313433D01*
X129282221Y-123062041D01*
X129326317Y-122840356D01*
X129326317Y-122840352D01*
X129341205Y-122765505D01*
X129326317Y-122690658D01*
X129326317Y-120167350D01*
X129341205Y-120092503D01*
X129326317Y-120017656D01*
X129326317Y-120017652D01*
X129282221Y-119795967D01*
X129114246Y-119544575D01*
X129050790Y-119502175D01*
X128654047Y-119105432D01*
X128699125Y-119075312D01*
X128839473Y-118865268D01*
X128888756Y-118617503D01*
X128888756Y-116817503D01*
X128839473Y-116569738D01*
X128838436Y-116568186D01*
X129050790Y-116355833D01*
X129114246Y-116313433D01*
X129282221Y-116062041D01*
X129326317Y-115840356D01*
X129326317Y-115840352D01*
X129341205Y-115765505D01*
X129326317Y-115690658D01*
X129326317Y-113167350D01*
X129341205Y-113092503D01*
X129326317Y-113017656D01*
X129326317Y-113017652D01*
X129282221Y-112795967D01*
X129114246Y-112544575D01*
X129050790Y-112502175D01*
X128654047Y-112105432D01*
X128699125Y-112075312D01*
X128839473Y-111865268D01*
X128888756Y-111617503D01*
X128888756Y-109817503D01*
X128839473Y-109569738D01*
X128838436Y-109568186D01*
X129050790Y-109355833D01*
X129114246Y-109313433D01*
X129282221Y-109062041D01*
X129326317Y-108840356D01*
X129326317Y-108840352D01*
X129341205Y-108765505D01*
X129326317Y-108690658D01*
X129326317Y-106167350D01*
X129341205Y-106092503D01*
X129326317Y-106017656D01*
X129326317Y-106017652D01*
X129282221Y-105795967D01*
X129114246Y-105544575D01*
X129050790Y-105502175D01*
X128654047Y-105105432D01*
X128699125Y-105075312D01*
X128839473Y-104865268D01*
X128888756Y-104617503D01*
X128888756Y-102817503D01*
X128839473Y-102569738D01*
X128838436Y-102568186D01*
X129050790Y-102355833D01*
X129114246Y-102313433D01*
X129282221Y-102062041D01*
X129326317Y-101840356D01*
X129326317Y-101840352D01*
X129341205Y-101765505D01*
X129326317Y-101690658D01*
X129326317Y-99167350D01*
X129341205Y-99092503D01*
X129326317Y-99017656D01*
X129326317Y-99017652D01*
X129282221Y-98795967D01*
X129114246Y-98544575D01*
X129050790Y-98502175D01*
X128654047Y-98105432D01*
X128699125Y-98075312D01*
X128839473Y-97865268D01*
X128888756Y-97617503D01*
X128888756Y-95817503D01*
X128839473Y-95569738D01*
X128838436Y-95568186D01*
X129050790Y-95355833D01*
X129114246Y-95313433D01*
X129282221Y-95062041D01*
X129326317Y-94840356D01*
X129326317Y-94840352D01*
X129341205Y-94765505D01*
X129326317Y-94690658D01*
X129326317Y-92167350D01*
X129341205Y-92092503D01*
X129326317Y-92017656D01*
X129326317Y-92017652D01*
X129282221Y-91795967D01*
X129114246Y-91544575D01*
X129050790Y-91502175D01*
X128654047Y-91105432D01*
X128699125Y-91075312D01*
X128839473Y-90865268D01*
X128888756Y-90617503D01*
X128888756Y-88817503D01*
X128839473Y-88569738D01*
X128838436Y-88568186D01*
X129050790Y-88355833D01*
X129114246Y-88313433D01*
X129282221Y-88062041D01*
X129326317Y-87840356D01*
X129326317Y-87840352D01*
X129341205Y-87765505D01*
X129326317Y-87690658D01*
X129326317Y-85167350D01*
X129341205Y-85092503D01*
X129326317Y-85017656D01*
X129326317Y-85017652D01*
X129282221Y-84795967D01*
X129114246Y-84544575D01*
X129050790Y-84502175D01*
X128654047Y-84105432D01*
X128699125Y-84075312D01*
X128839473Y-83865268D01*
X128888756Y-83617503D01*
X128888756Y-81817503D01*
X128839473Y-81569738D01*
X128838436Y-81568186D01*
X129050790Y-81355833D01*
X129114246Y-81313433D01*
X129282221Y-81062041D01*
X129326317Y-80840356D01*
X129326317Y-80840352D01*
X129341205Y-80765505D01*
X129326317Y-80690658D01*
X129326317Y-78167350D01*
X129341205Y-78092503D01*
X129326317Y-78017656D01*
X129326317Y-78017652D01*
X129282221Y-77795967D01*
X129114246Y-77544575D01*
X129050790Y-77502175D01*
X128654047Y-77105432D01*
X128699125Y-77075312D01*
X128839473Y-76865268D01*
X128888756Y-76617503D01*
X128888756Y-74817503D01*
X128839473Y-74569738D01*
X128699125Y-74359694D01*
X128489081Y-74219346D01*
X128473408Y-74216228D01*
X128642626Y-74047010D01*
X128876316Y-73482833D01*
X128876316Y-72872173D01*
X128642626Y-72307996D01*
X128210823Y-71876193D01*
X127646646Y-71642503D01*
X127035986Y-71642503D01*
X126471809Y-71876193D01*
X126040006Y-72307996D01*
X125806316Y-72872173D01*
X125806316Y-73482833D01*
X126040006Y-74047010D01*
X126209224Y-74216228D01*
X126193551Y-74219346D01*
X125983507Y-74359694D01*
X125843159Y-74569738D01*
X125793876Y-74817503D01*
X125793876Y-76617503D01*
X125843159Y-76865268D01*
X125983507Y-77075312D01*
X126193551Y-77215660D01*
X126441316Y-77264943D01*
X126692834Y-77264943D01*
X126793387Y-77415432D01*
X126856846Y-77457834D01*
X127806318Y-78407307D01*
X127806318Y-78708641D01*
X127646646Y-78642503D01*
X127035986Y-78642503D01*
X126471809Y-78876193D01*
X126040006Y-79307996D01*
X125806316Y-79872173D01*
X125806316Y-80482833D01*
X126040006Y-81047010D01*
X126209224Y-81216228D01*
X126193551Y-81219346D01*
X125983507Y-81359694D01*
X125843159Y-81569738D01*
X125793876Y-81817503D01*
X125793876Y-83617503D01*
X125843159Y-83865268D01*
X125983507Y-84075312D01*
X126193551Y-84215660D01*
X126441316Y-84264943D01*
X126692834Y-84264943D01*
X126793387Y-84415432D01*
X126856846Y-84457834D01*
X127806318Y-85407307D01*
X127806318Y-85708641D01*
X127646646Y-85642503D01*
X127035986Y-85642503D01*
X126471809Y-85876193D01*
X126040006Y-86307996D01*
X125806316Y-86872173D01*
X125806316Y-87482833D01*
X126040006Y-88047010D01*
X126209224Y-88216228D01*
X126193551Y-88219346D01*
X125983507Y-88359694D01*
X125843159Y-88569738D01*
X125793876Y-88817503D01*
X125793876Y-90617503D01*
X125843159Y-90865268D01*
X125983507Y-91075312D01*
X126193551Y-91215660D01*
X126441316Y-91264943D01*
X126692834Y-91264943D01*
X126793387Y-91415432D01*
X126856846Y-91457834D01*
X127806318Y-92407307D01*
X127806318Y-92708641D01*
X127646646Y-92642503D01*
X127035986Y-92642503D01*
X126471809Y-92876193D01*
X126040006Y-93307996D01*
X125806316Y-93872173D01*
X125806316Y-94482833D01*
X126040006Y-95047010D01*
X126209224Y-95216228D01*
X126193551Y-95219346D01*
X125983507Y-95359694D01*
X125843159Y-95569738D01*
X125793876Y-95817503D01*
X125793876Y-97617503D01*
X125843159Y-97865268D01*
X125983507Y-98075312D01*
X126193551Y-98215660D01*
X126441316Y-98264943D01*
X126692834Y-98264943D01*
X126793387Y-98415432D01*
X126856846Y-98457834D01*
X127806318Y-99407307D01*
X127806318Y-99708641D01*
X127646646Y-99642503D01*
X127035986Y-99642503D01*
X126471809Y-99876193D01*
X126040006Y-100307996D01*
X125806316Y-100872173D01*
X125806316Y-101482833D01*
X126040006Y-102047010D01*
X126209224Y-102216228D01*
X126193551Y-102219346D01*
X125983507Y-102359694D01*
X125843159Y-102569738D01*
X125793876Y-102817503D01*
X125793876Y-104617503D01*
X125843159Y-104865268D01*
X125983507Y-105075312D01*
X126193551Y-105215660D01*
X126441316Y-105264943D01*
X126692834Y-105264943D01*
X126793387Y-105415432D01*
X126856846Y-105457834D01*
X127806318Y-106407307D01*
X127806318Y-106708641D01*
X127646646Y-106642503D01*
X127035986Y-106642503D01*
X126471809Y-106876193D01*
X126040006Y-107307996D01*
X125806316Y-107872173D01*
X125806316Y-108482833D01*
X126040006Y-109047010D01*
X126209224Y-109216228D01*
X126193551Y-109219346D01*
X125983507Y-109359694D01*
X125843159Y-109569738D01*
X125793876Y-109817503D01*
X125793876Y-111617503D01*
X125843159Y-111865268D01*
X125983507Y-112075312D01*
X126193551Y-112215660D01*
X126441316Y-112264943D01*
X126692834Y-112264943D01*
X126793387Y-112415432D01*
X126856846Y-112457834D01*
X127806318Y-113407307D01*
X127806318Y-113708641D01*
X127646646Y-113642503D01*
X127035986Y-113642503D01*
X126471809Y-113876193D01*
X126040006Y-114307996D01*
X125806316Y-114872173D01*
X125806316Y-115482833D01*
X126040006Y-116047010D01*
X126209224Y-116216228D01*
X126193551Y-116219346D01*
X125983507Y-116359694D01*
X125843159Y-116569738D01*
X125793876Y-116817503D01*
X125793876Y-118617503D01*
X125843159Y-118865268D01*
X125983507Y-119075312D01*
X126193551Y-119215660D01*
X126441316Y-119264943D01*
X126692834Y-119264943D01*
X126793387Y-119415432D01*
X126856846Y-119457834D01*
X127806318Y-120407307D01*
X127806318Y-120708641D01*
X127646646Y-120642503D01*
X127035986Y-120642503D01*
X126471809Y-120876193D01*
X126040006Y-121307996D01*
X125806316Y-121872173D01*
X125806316Y-122482833D01*
X126040006Y-123047010D01*
X126209224Y-123216228D01*
X126193551Y-123219346D01*
X125983507Y-123359694D01*
X125843159Y-123569738D01*
X125793876Y-123817503D01*
X125793876Y-125617503D01*
X125843159Y-125865268D01*
X125983507Y-126075312D01*
X126193551Y-126215660D01*
X126441316Y-126264943D01*
X128241316Y-126264943D01*
X128489081Y-126215660D01*
X128699125Y-126075312D01*
X128839473Y-125865268D01*
X128888756Y-125617503D01*
X128888756Y-125477503D01*
X131653751Y-125477503D01*
X138721070Y-132544823D01*
X138487045Y-132701193D01*
X138007867Y-132222017D01*
X137965466Y-132158559D01*
X137714074Y-131990584D01*
X137492389Y-131946488D01*
X137492384Y-131946488D01*
X137417537Y-131931600D01*
X137342690Y-131946488D01*
X127495104Y-131946488D01*
X121654047Y-126105433D01*
X121699125Y-126075312D01*
X121839473Y-125865268D01*
X121888756Y-125617503D01*
X121888756Y-123817503D01*
X121839473Y-123569738D01*
X121838436Y-123568186D01*
X122050790Y-123355833D01*
X122114246Y-123313433D01*
X122282221Y-123062041D01*
X122326317Y-122840356D01*
X122326317Y-122840352D01*
X122341205Y-122765505D01*
X122326317Y-122690658D01*
X122326317Y-120167350D01*
X122341205Y-120092503D01*
X122326317Y-120017656D01*
X122326317Y-120017652D01*
X122282221Y-119795967D01*
X122114246Y-119544575D01*
X122050790Y-119502175D01*
X121654047Y-119105432D01*
X121699125Y-119075312D01*
X121839473Y-118865268D01*
X121888756Y-118617503D01*
X121888756Y-116817503D01*
X121839473Y-116569738D01*
X121838436Y-116568186D01*
X122050790Y-116355833D01*
X122114246Y-116313433D01*
X122282221Y-116062041D01*
X122326317Y-115840356D01*
X122326317Y-115840352D01*
X122341205Y-115765505D01*
X122326317Y-115690658D01*
X122326317Y-113167350D01*
X122341205Y-113092503D01*
X122326317Y-113017656D01*
X122326317Y-113017652D01*
X122282221Y-112795967D01*
X122114246Y-112544575D01*
X122050790Y-112502175D01*
X121654047Y-112105432D01*
X121699125Y-112075312D01*
X121839473Y-111865268D01*
X121888756Y-111617503D01*
X121888756Y-109817503D01*
X121839473Y-109569738D01*
X121838436Y-109568186D01*
X122050790Y-109355833D01*
X122114246Y-109313433D01*
X122282221Y-109062041D01*
X122326317Y-108840356D01*
X122326317Y-108840352D01*
X122341205Y-108765505D01*
X122326317Y-108690658D01*
X122326317Y-106167350D01*
X122341205Y-106092503D01*
X122326317Y-106017656D01*
X122326317Y-106017652D01*
X122282221Y-105795967D01*
X122114246Y-105544575D01*
X122050790Y-105502175D01*
X121654047Y-105105432D01*
X121699125Y-105075312D01*
X121839473Y-104865268D01*
X121888756Y-104617503D01*
X121888756Y-102817503D01*
X121839473Y-102569738D01*
X121838436Y-102568186D01*
X122050790Y-102355833D01*
X122114246Y-102313433D01*
X122282221Y-102062041D01*
X122326317Y-101840356D01*
X122326317Y-101840352D01*
X122341205Y-101765505D01*
X122326317Y-101690658D01*
X122326317Y-99167350D01*
X122341205Y-99092503D01*
X122326317Y-99017656D01*
X122326317Y-99017652D01*
X122282221Y-98795967D01*
X122114246Y-98544575D01*
X122050790Y-98502175D01*
X121654047Y-98105432D01*
X121699125Y-98075312D01*
X121839473Y-97865268D01*
X121888756Y-97617503D01*
X121888756Y-95817503D01*
X121839473Y-95569738D01*
X121838436Y-95568186D01*
X122050790Y-95355833D01*
X122114246Y-95313433D01*
X122282221Y-95062041D01*
X122326317Y-94840356D01*
X122326317Y-94840352D01*
X122341205Y-94765505D01*
X122326317Y-94690658D01*
X122326317Y-92167350D01*
X122341205Y-92092503D01*
X122326317Y-92017656D01*
X122326317Y-92017652D01*
X122282221Y-91795967D01*
X122114246Y-91544575D01*
X122050790Y-91502175D01*
X121654047Y-91105432D01*
X121699125Y-91075312D01*
X121839473Y-90865268D01*
X121888756Y-90617503D01*
X121888756Y-88817503D01*
X121839473Y-88569738D01*
X121838436Y-88568186D01*
X122050790Y-88355833D01*
X122114246Y-88313433D01*
X122282221Y-88062041D01*
X122326317Y-87840356D01*
X122326317Y-87840352D01*
X122341205Y-87765505D01*
X122326317Y-87690658D01*
X122326317Y-85167350D01*
X122341205Y-85092503D01*
X122326317Y-85017656D01*
X122326317Y-85017652D01*
X122282221Y-84795967D01*
X122114246Y-84544575D01*
X122050790Y-84502175D01*
X121654047Y-84105432D01*
X121699125Y-84075312D01*
X121839473Y-83865268D01*
X121888756Y-83617503D01*
X121888756Y-81817503D01*
X121839473Y-81569738D01*
X121838436Y-81568186D01*
X122050790Y-81355833D01*
X122114246Y-81313433D01*
X122282221Y-81062041D01*
X122326317Y-80840356D01*
X122326317Y-80840352D01*
X122341205Y-80765505D01*
X122326317Y-80690658D01*
X122326317Y-78167350D01*
X122341205Y-78092503D01*
X122326317Y-78017656D01*
X122326317Y-78017652D01*
X122282221Y-77795967D01*
X122114246Y-77544575D01*
X122050790Y-77502175D01*
X121654047Y-77105432D01*
X121699125Y-77075312D01*
X121839473Y-76865268D01*
X121888756Y-76617503D01*
X121888756Y-74817503D01*
X121839473Y-74569738D01*
X121699125Y-74359694D01*
X121489081Y-74219346D01*
X121473408Y-74216228D01*
X121642626Y-74047010D01*
X121876316Y-73482833D01*
X121876316Y-72872173D01*
X121642626Y-72307996D01*
X121210823Y-71876193D01*
X120646646Y-71642503D01*
X120035986Y-71642503D01*
X119471809Y-71876193D01*
X119040006Y-72307996D01*
X118806316Y-72872173D01*
X118806316Y-73482833D01*
X119040006Y-74047010D01*
X119209224Y-74216228D01*
X119193551Y-74219346D01*
X118983507Y-74359694D01*
X118843159Y-74569738D01*
X118793876Y-74817503D01*
X118793876Y-76617503D01*
X118843159Y-76865268D01*
X118983507Y-77075312D01*
X119193551Y-77215660D01*
X119441316Y-77264943D01*
X119692834Y-77264943D01*
X119793387Y-77415432D01*
X119856846Y-77457834D01*
X120806318Y-78407307D01*
X120806318Y-78708641D01*
X120646646Y-78642503D01*
X120035986Y-78642503D01*
X119471809Y-78876193D01*
X119040006Y-79307996D01*
X118806316Y-79872173D01*
X118806316Y-80482833D01*
X119040006Y-81047010D01*
X119209224Y-81216228D01*
X119193551Y-81219346D01*
X118983507Y-81359694D01*
X118843159Y-81569738D01*
X118793876Y-81817503D01*
X118793876Y-83617503D01*
X118843159Y-83865268D01*
X118983507Y-84075312D01*
X119193551Y-84215660D01*
X119441316Y-84264943D01*
X119692834Y-84264943D01*
X119793387Y-84415432D01*
X119856846Y-84457834D01*
X120806318Y-85407307D01*
X120806318Y-85708641D01*
X120646646Y-85642503D01*
X120035986Y-85642503D01*
X119471809Y-85876193D01*
X119040006Y-86307996D01*
X118806316Y-86872173D01*
X118806316Y-87482833D01*
X119040006Y-88047010D01*
X119209224Y-88216228D01*
X119193551Y-88219346D01*
X118983507Y-88359694D01*
X118843159Y-88569738D01*
X118793876Y-88817503D01*
X118793876Y-90617503D01*
X118843159Y-90865268D01*
X118983507Y-91075312D01*
X119193551Y-91215660D01*
X119441316Y-91264943D01*
X119692834Y-91264943D01*
X119793387Y-91415432D01*
X119856846Y-91457834D01*
X120806318Y-92407307D01*
X120806318Y-92708641D01*
X120646646Y-92642503D01*
X120035986Y-92642503D01*
X119471809Y-92876193D01*
X119040006Y-93307996D01*
X118806316Y-93872173D01*
X118806316Y-94482833D01*
X119040006Y-95047010D01*
X119209224Y-95216228D01*
X119193551Y-95219346D01*
X118983507Y-95359694D01*
X118843159Y-95569738D01*
X118793876Y-95817503D01*
X118793876Y-97617503D01*
X118843159Y-97865268D01*
X118983507Y-98075312D01*
X119193551Y-98215660D01*
X119441316Y-98264943D01*
X119692834Y-98264943D01*
X119793387Y-98415432D01*
X119856846Y-98457834D01*
X120806318Y-99407307D01*
X120806318Y-99708641D01*
X120646646Y-99642503D01*
X120035986Y-99642503D01*
X119471809Y-99876193D01*
X119040006Y-100307996D01*
X118806316Y-100872173D01*
X118806316Y-101482833D01*
X119040006Y-102047010D01*
X119209224Y-102216228D01*
X119193551Y-102219346D01*
X118983507Y-102359694D01*
X118843159Y-102569738D01*
X118793876Y-102817503D01*
X118793876Y-104617503D01*
X118843159Y-104865268D01*
X118983507Y-105075312D01*
X119193551Y-105215660D01*
X119441316Y-105264943D01*
X119692834Y-105264943D01*
X119793387Y-105415432D01*
X119856846Y-105457834D01*
X120806318Y-106407307D01*
X120806318Y-106708641D01*
X120646646Y-106642503D01*
X120035986Y-106642503D01*
X119471809Y-106876193D01*
X119040006Y-107307996D01*
X118806316Y-107872173D01*
X118806316Y-108482833D01*
X119040006Y-109047010D01*
X119209224Y-109216228D01*
X119193551Y-109219346D01*
X118983507Y-109359694D01*
X118843159Y-109569738D01*
X118793876Y-109817503D01*
X118793876Y-111617503D01*
X118843159Y-111865268D01*
X118983507Y-112075312D01*
X119193551Y-112215660D01*
X119441316Y-112264943D01*
X119692834Y-112264943D01*
X119793387Y-112415432D01*
X119856846Y-112457834D01*
X120806318Y-113407307D01*
X120806318Y-113708641D01*
X120646646Y-113642503D01*
X120035986Y-113642503D01*
X119471809Y-113876193D01*
X119040006Y-114307996D01*
X118806316Y-114872173D01*
X118806316Y-115482833D01*
X119040006Y-116047010D01*
X119209224Y-116216228D01*
X119193551Y-116219346D01*
X118983507Y-116359694D01*
X118843159Y-116569738D01*
X118793876Y-116817503D01*
X118793876Y-118617503D01*
X118843159Y-118865268D01*
X118983507Y-119075312D01*
X119193551Y-119215660D01*
X119441316Y-119264943D01*
X119692834Y-119264943D01*
X119793387Y-119415432D01*
X119856846Y-119457834D01*
X120806318Y-120407307D01*
X120806318Y-120708641D01*
X120646646Y-120642503D01*
X120035986Y-120642503D01*
X119471809Y-120876193D01*
X119040006Y-121307996D01*
X118806316Y-121872173D01*
X118806316Y-122482833D01*
X119040006Y-123047010D01*
X119209224Y-123216228D01*
X119193551Y-123219346D01*
X118983507Y-123359694D01*
X118843159Y-123569738D01*
X118793876Y-123817503D01*
X118793876Y-125617503D01*
X118843159Y-125865268D01*
X118983507Y-126075312D01*
X119193551Y-126215660D01*
X119441316Y-126264943D01*
X119692834Y-126264943D01*
X119793388Y-126415432D01*
X119856844Y-126457832D01*
X126589974Y-133190964D01*
X126632372Y-133254417D01*
X126695825Y-133296815D01*
X126695827Y-133296817D01*
X126821203Y-133380590D01*
X126883764Y-133422392D01*
X127105449Y-133466488D01*
X127105453Y-133466488D01*
X127180300Y-133481376D01*
X127255147Y-133466488D01*
X132899340Y-133466488D01*
X132872050Y-133524597D01*
X132992717Y-133754489D01*
X134186536Y-133754489D01*
X134186536Y-133734489D01*
X134440536Y-133734489D01*
X134440536Y-133754489D01*
X134460536Y-133754489D01*
X134460536Y-134008489D01*
X134440536Y-134008489D01*
X134440536Y-134028489D01*
X134186536Y-134028489D01*
X134186536Y-134008489D01*
X132992717Y-134008489D01*
X132872050Y-134238381D01*
X132899340Y-134296490D01*
X125145105Y-134296490D01*
X115081647Y-124233033D01*
X115039245Y-124169574D01*
X114888756Y-124069020D01*
X114888756Y-123817503D01*
X114839473Y-123569738D01*
X114838436Y-123568186D01*
X115050790Y-123355833D01*
X115114246Y-123313433D01*
X115282221Y-123062041D01*
X115326317Y-122840356D01*
X115326317Y-122840352D01*
X115341205Y-122765505D01*
X115326317Y-122690658D01*
X115326317Y-120167350D01*
X115341205Y-120092503D01*
X115326317Y-120017656D01*
X115326317Y-120017652D01*
X115282221Y-119795967D01*
X115114246Y-119544575D01*
X115050790Y-119502175D01*
X114654047Y-119105432D01*
X114699125Y-119075312D01*
X114839473Y-118865268D01*
X114888756Y-118617503D01*
X114888756Y-116817503D01*
X114839473Y-116569738D01*
X114838436Y-116568186D01*
X115050790Y-116355833D01*
X115114246Y-116313433D01*
X115282221Y-116062041D01*
X115326317Y-115840356D01*
X115326317Y-115840352D01*
X115341205Y-115765505D01*
X115326317Y-115690658D01*
X115326317Y-113167350D01*
X115341205Y-113092503D01*
X115326317Y-113017656D01*
X115326317Y-113017652D01*
X115282221Y-112795967D01*
X115114246Y-112544575D01*
X115050790Y-112502175D01*
X114654047Y-112105432D01*
X114699125Y-112075312D01*
X114839473Y-111865268D01*
X114888756Y-111617503D01*
X114888756Y-109817503D01*
X114839473Y-109569738D01*
X114838436Y-109568186D01*
X115050790Y-109355833D01*
X115114246Y-109313433D01*
X115282221Y-109062041D01*
X115326317Y-108840356D01*
X115326317Y-108840352D01*
X115341205Y-108765505D01*
X115326317Y-108690658D01*
X115326317Y-106167350D01*
X115341205Y-106092503D01*
X115326317Y-106017656D01*
X115326317Y-106017652D01*
X115282221Y-105795967D01*
X115114246Y-105544575D01*
X115050790Y-105502175D01*
X114654047Y-105105432D01*
X114699125Y-105075312D01*
X114839473Y-104865268D01*
X114888756Y-104617503D01*
X114888756Y-102817503D01*
X114839473Y-102569738D01*
X114838436Y-102568186D01*
X115050790Y-102355833D01*
X115114246Y-102313433D01*
X115282221Y-102062041D01*
X115326317Y-101840356D01*
X115326317Y-101840352D01*
X115341205Y-101765505D01*
X115326317Y-101690658D01*
X115326317Y-99167350D01*
X115341205Y-99092503D01*
X115326317Y-99017656D01*
X115326317Y-99017652D01*
X115282221Y-98795967D01*
X115114246Y-98544575D01*
X115050790Y-98502175D01*
X114654047Y-98105432D01*
X114699125Y-98075312D01*
X114839473Y-97865268D01*
X114888756Y-97617503D01*
X114888756Y-95817503D01*
X114839473Y-95569738D01*
X114838436Y-95568186D01*
X115050790Y-95355833D01*
X115114246Y-95313433D01*
X115282221Y-95062041D01*
X115326317Y-94840356D01*
X115326317Y-94840352D01*
X115341205Y-94765505D01*
X115326317Y-94690658D01*
X115326317Y-92167350D01*
X115341205Y-92092503D01*
X115326317Y-92017656D01*
X115326317Y-92017652D01*
X115282221Y-91795967D01*
X115114246Y-91544575D01*
X115050790Y-91502175D01*
X114654047Y-91105432D01*
X114699125Y-91075312D01*
X114839473Y-90865268D01*
X114888756Y-90617503D01*
X114888756Y-88817503D01*
X114839473Y-88569738D01*
X114838436Y-88568186D01*
X115050790Y-88355833D01*
X115114246Y-88313433D01*
X115282221Y-88062041D01*
X115326317Y-87840356D01*
X115326317Y-87840352D01*
X115341205Y-87765505D01*
X115326317Y-87690658D01*
X115326317Y-85167350D01*
X115341205Y-85092503D01*
X115326317Y-85017656D01*
X115326317Y-85017652D01*
X115282221Y-84795967D01*
X115114246Y-84544575D01*
X115050790Y-84502175D01*
X114654047Y-84105432D01*
X114699125Y-84075312D01*
X114839473Y-83865268D01*
X114888756Y-83617503D01*
X114888756Y-81817503D01*
X114839473Y-81569738D01*
X114838436Y-81568186D01*
X115050790Y-81355833D01*
X115114246Y-81313433D01*
X115282221Y-81062041D01*
X115326317Y-80840356D01*
X115326317Y-80840352D01*
X115341205Y-80765505D01*
X115326317Y-80690658D01*
X115326317Y-78167350D01*
X115341205Y-78092503D01*
X115326317Y-78017656D01*
X115326317Y-78017652D01*
X115282221Y-77795967D01*
X115114246Y-77544575D01*
X115050790Y-77502175D01*
X114654047Y-77105432D01*
X114699125Y-77075312D01*
X114839473Y-76865268D01*
X114888756Y-76617503D01*
X114888756Y-74817503D01*
X114839473Y-74569738D01*
X114699125Y-74359694D01*
X114489081Y-74219346D01*
X114473408Y-74216228D01*
X114642626Y-74047010D01*
X114876316Y-73482833D01*
X114876316Y-72872173D01*
X114642626Y-72307996D01*
X114210823Y-71876193D01*
X113646646Y-71642503D01*
X113035986Y-71642503D01*
X112471809Y-71876193D01*
X112040006Y-72307996D01*
X111806316Y-72872173D01*
X111806316Y-73482833D01*
X112040006Y-74047010D01*
X112209224Y-74216228D01*
X112193551Y-74219346D01*
X111983507Y-74359694D01*
X111843159Y-74569738D01*
X111793876Y-74817503D01*
X111793876Y-76617503D01*
X111843159Y-76865268D01*
X111983507Y-77075312D01*
X112193551Y-77215660D01*
X112441316Y-77264943D01*
X112692834Y-77264943D01*
X112793387Y-77415432D01*
X112856846Y-77457834D01*
X113806318Y-78407307D01*
X113806318Y-78708641D01*
X113646646Y-78642503D01*
X113035986Y-78642503D01*
X112471809Y-78876193D01*
X112040006Y-79307996D01*
X111806316Y-79872173D01*
X111806316Y-80482833D01*
X112040006Y-81047010D01*
X112209224Y-81216228D01*
X112193551Y-81219346D01*
X111983507Y-81359694D01*
X111843159Y-81569738D01*
X111793876Y-81817503D01*
X111793876Y-83617503D01*
X111843159Y-83865268D01*
X111983507Y-84075312D01*
X112193551Y-84215660D01*
X112441316Y-84264943D01*
X112692834Y-84264943D01*
X112793387Y-84415432D01*
X112856846Y-84457834D01*
X113806318Y-85407307D01*
X113806318Y-85708641D01*
X113646646Y-85642503D01*
X113035986Y-85642503D01*
X112471809Y-85876193D01*
X112040006Y-86307996D01*
X111806316Y-86872173D01*
X111806316Y-87482833D01*
X112040006Y-88047010D01*
X112209224Y-88216228D01*
X112193551Y-88219346D01*
X111983507Y-88359694D01*
X111843159Y-88569738D01*
X111793876Y-88817503D01*
X111793876Y-90617503D01*
X111843159Y-90865268D01*
X111983507Y-91075312D01*
X112193551Y-91215660D01*
X112441316Y-91264943D01*
X112692834Y-91264943D01*
X112793387Y-91415432D01*
X112856846Y-91457834D01*
X113806318Y-92407307D01*
X113806318Y-92708641D01*
X113646646Y-92642503D01*
X113035986Y-92642503D01*
X112471809Y-92876193D01*
X112040006Y-93307996D01*
X111806316Y-93872173D01*
X111806316Y-94482833D01*
X112040006Y-95047010D01*
X112209224Y-95216228D01*
X112193551Y-95219346D01*
X111983507Y-95359694D01*
X111843159Y-95569738D01*
X111793876Y-95817503D01*
X111793876Y-97617503D01*
X111843159Y-97865268D01*
X111983507Y-98075312D01*
X112193551Y-98215660D01*
X112441316Y-98264943D01*
X112692834Y-98264943D01*
X112793387Y-98415432D01*
X112856846Y-98457834D01*
X113806318Y-99407307D01*
X113806318Y-99708641D01*
X113646646Y-99642503D01*
X113035986Y-99642503D01*
X112471809Y-99876193D01*
X112040006Y-100307996D01*
X111806316Y-100872173D01*
X111806316Y-101482833D01*
X112040006Y-102047010D01*
X112209224Y-102216228D01*
X112193551Y-102219346D01*
X111983507Y-102359694D01*
X111843159Y-102569738D01*
X111793876Y-102817503D01*
X111793876Y-104617503D01*
X111843159Y-104865268D01*
X111983507Y-105075312D01*
X112193551Y-105215660D01*
X112441316Y-105264943D01*
X112692834Y-105264943D01*
X112793387Y-105415432D01*
X112856846Y-105457834D01*
X113806318Y-106407307D01*
X113806318Y-106708641D01*
X113646646Y-106642503D01*
X113035986Y-106642503D01*
X112471809Y-106876193D01*
X112040006Y-107307996D01*
X111806316Y-107872173D01*
X111806316Y-108482833D01*
X112040006Y-109047010D01*
X112209224Y-109216228D01*
X112193551Y-109219346D01*
X111983507Y-109359694D01*
X111843159Y-109569738D01*
X111793876Y-109817503D01*
X111793876Y-111617503D01*
X111843159Y-111865268D01*
X111983507Y-112075312D01*
X112193551Y-112215660D01*
X112441316Y-112264943D01*
X112692834Y-112264943D01*
X112793387Y-112415432D01*
X112856846Y-112457834D01*
X113806318Y-113407307D01*
X113806318Y-113708641D01*
X113646646Y-113642503D01*
X113035986Y-113642503D01*
X112471809Y-113876193D01*
X112040006Y-114307996D01*
X111806316Y-114872173D01*
X111806316Y-115482833D01*
X112040006Y-116047010D01*
X112209224Y-116216228D01*
X112193551Y-116219346D01*
X111983507Y-116359694D01*
X111843159Y-116569738D01*
X111793876Y-116817503D01*
X111793876Y-118617503D01*
X111843159Y-118865268D01*
X111983507Y-119075312D01*
X112193551Y-119215660D01*
X112441316Y-119264943D01*
X112692834Y-119264943D01*
X112793387Y-119415432D01*
X112856846Y-119457834D01*
X113806318Y-120407307D01*
X113806318Y-120708641D01*
X113646646Y-120642503D01*
X113035986Y-120642503D01*
X112471809Y-120876193D01*
X112040006Y-121307996D01*
X111806316Y-121872173D01*
X111806316Y-122482833D01*
X112040006Y-123047010D01*
X112209224Y-123216228D01*
X112193551Y-123219346D01*
X111983507Y-123359694D01*
X111843159Y-123569738D01*
X111793876Y-123817503D01*
X111793876Y-125617503D01*
X111843159Y-125865268D01*
X111983507Y-126075312D01*
X112193551Y-126215660D01*
X112441316Y-126264943D01*
X114241316Y-126264943D01*
X114489081Y-126215660D01*
X114699125Y-126075312D01*
X114729246Y-126030234D01*
X124239973Y-135540962D01*
X124282374Y-135604419D01*
X124533766Y-135772394D01*
X124755451Y-135816490D01*
X124755455Y-135816490D01*
X124830303Y-135831378D01*
X124905151Y-135816490D01*
X133698738Y-135816490D01*
X134883415Y-137001167D01*
X120849782Y-137001167D01*
X108081647Y-124233033D01*
X108039245Y-124169574D01*
X107888756Y-124069020D01*
X107888756Y-123817503D01*
X107839473Y-123569738D01*
X107838436Y-123568186D01*
X108050790Y-123355833D01*
X108114246Y-123313433D01*
X108282221Y-123062041D01*
X108326317Y-122840356D01*
X108326317Y-122840352D01*
X108341205Y-122765505D01*
X108326317Y-122690658D01*
X108326317Y-120167350D01*
X108341205Y-120092503D01*
X108326317Y-120017656D01*
X108326317Y-120017652D01*
X108282221Y-119795967D01*
X108114246Y-119544575D01*
X108050790Y-119502175D01*
X107654047Y-119105432D01*
X107699125Y-119075312D01*
X107839473Y-118865268D01*
X107888756Y-118617503D01*
X107888756Y-116817503D01*
X107839473Y-116569738D01*
X107838436Y-116568186D01*
X108050790Y-116355833D01*
X108114246Y-116313433D01*
X108282221Y-116062041D01*
X108326317Y-115840356D01*
X108326317Y-115840352D01*
X108341205Y-115765505D01*
X108326317Y-115690658D01*
X108326317Y-113167350D01*
X108341205Y-113092503D01*
X108326317Y-113017656D01*
X108326317Y-113017652D01*
X108282221Y-112795967D01*
X108114246Y-112544575D01*
X108050790Y-112502175D01*
X107654047Y-112105432D01*
X107699125Y-112075312D01*
X107839473Y-111865268D01*
X107888756Y-111617503D01*
X107888756Y-109817503D01*
X107839473Y-109569738D01*
X107838436Y-109568186D01*
X108050790Y-109355833D01*
X108114246Y-109313433D01*
X108282221Y-109062041D01*
X108326317Y-108840356D01*
X108326317Y-108840352D01*
X108341205Y-108765505D01*
X108326317Y-108690658D01*
X108326317Y-106167350D01*
X108341205Y-106092503D01*
X108326317Y-106017656D01*
X108326317Y-106017652D01*
X108282221Y-105795967D01*
X108114246Y-105544575D01*
X108050790Y-105502175D01*
X107654047Y-105105432D01*
X107699125Y-105075312D01*
X107839473Y-104865268D01*
X107888756Y-104617503D01*
X107888756Y-102817503D01*
X107839473Y-102569738D01*
X107838436Y-102568186D01*
X108050790Y-102355833D01*
X108114246Y-102313433D01*
X108282221Y-102062041D01*
X108326317Y-101840356D01*
X108326317Y-101840352D01*
X108341205Y-101765505D01*
X108326317Y-101690658D01*
X108326317Y-99167350D01*
X108341205Y-99092503D01*
X108326317Y-99017656D01*
X108326317Y-99017652D01*
X108282221Y-98795967D01*
X108114246Y-98544575D01*
X108050790Y-98502175D01*
X107654047Y-98105432D01*
X107699125Y-98075312D01*
X107839473Y-97865268D01*
X107888756Y-97617503D01*
X107888756Y-95817503D01*
X107839473Y-95569738D01*
X107838436Y-95568186D01*
X108050790Y-95355833D01*
X108114246Y-95313433D01*
X108282221Y-95062041D01*
X108326317Y-94840356D01*
X108326317Y-94840352D01*
X108341205Y-94765505D01*
X108326317Y-94690658D01*
X108326317Y-92167350D01*
X108341205Y-92092503D01*
X108326317Y-92017656D01*
X108326317Y-92017652D01*
X108282221Y-91795967D01*
X108114246Y-91544575D01*
X108050790Y-91502175D01*
X107654047Y-91105432D01*
X107699125Y-91075312D01*
X107839473Y-90865268D01*
X107888756Y-90617503D01*
X107888756Y-88817503D01*
X107839473Y-88569738D01*
X107838436Y-88568186D01*
X108050790Y-88355833D01*
X108114246Y-88313433D01*
X108282221Y-88062041D01*
X108326317Y-87840356D01*
X108326317Y-87840352D01*
X108341205Y-87765505D01*
X108326317Y-87690658D01*
X108326317Y-85167350D01*
X108341205Y-85092503D01*
X108326317Y-85017656D01*
X108326317Y-85017652D01*
X108282221Y-84795967D01*
X108114246Y-84544575D01*
X108050790Y-84502175D01*
X107654047Y-84105432D01*
X107699125Y-84075312D01*
X107839473Y-83865268D01*
X107888756Y-83617503D01*
X107888756Y-81817503D01*
X107839473Y-81569738D01*
X107838436Y-81568186D01*
X108050790Y-81355833D01*
X108114246Y-81313433D01*
X108282221Y-81062041D01*
X108326317Y-80840356D01*
X108326317Y-80840352D01*
X108341205Y-80765505D01*
X108326317Y-80690658D01*
X108326317Y-78167350D01*
X108341205Y-78092503D01*
X108326317Y-78017656D01*
X108326317Y-78017652D01*
X108282221Y-77795967D01*
X108114246Y-77544575D01*
X108050790Y-77502175D01*
X107654047Y-77105432D01*
X107699125Y-77075312D01*
X107839473Y-76865268D01*
X107888756Y-76617503D01*
X107888756Y-74817503D01*
X107839473Y-74569738D01*
X107699125Y-74359694D01*
X107489081Y-74219346D01*
X107473408Y-74216228D01*
X107642626Y-74047010D01*
X107876316Y-73482833D01*
X107876316Y-72872173D01*
X107642626Y-72307996D01*
X107210823Y-71876193D01*
X106646646Y-71642503D01*
X106035986Y-71642503D01*
X105471809Y-71876193D01*
X105040006Y-72307996D01*
X104806316Y-72872173D01*
X104806316Y-73482833D01*
X105040006Y-74047010D01*
X105209224Y-74216228D01*
X105193551Y-74219346D01*
X104983507Y-74359694D01*
X104843159Y-74569738D01*
X104793876Y-74817503D01*
X100710000Y-74817503D01*
X100710000Y-70710000D01*
X159290001Y-70710000D01*
X159290000Y-159290000D01*
G04 #@! TD*
M02*
