%FSLAX45Y45*%
G04 Gerber Fmt 4.5, Leading zero omitted, Abs format (unit mm)*
G04 Created by KiCad (PCBNEW (5.0.2)-1) date 14/02/2019 14:40:59*
%MOMM*%
%LPD*%
G01*
G04 APERTURE LIST*
%ADD10C,0.150000*%
%ADD11C,0.200000*%
%ADD12C,0.300000*%
G04 APERTURE END LIST*
D10*
X16000000Y-7000000D02*
X10000000Y-7000000D01*
X16000000Y-16000000D02*
X16000000Y-7000000D01*
X10000000Y-16000000D02*
X16000000Y-16000000D01*
X10000000Y-7000000D02*
X10000000Y-16000000D01*
D11*
X12830000Y-14830000D02*
X12870000Y-14870000D01*
X12870000Y-14830000D02*
X12830000Y-14870000D01*
X12880000Y-15280000D02*
X12920000Y-15320000D01*
X12920000Y-15280000D02*
X12880000Y-15320000D01*
X13641354Y-14126149D02*
G75*
G03X13641354Y-14126149I-40000J0D01*
G01*
X13641354Y-14888149D02*
G75*
G03X13641354Y-14888149I-40000J0D01*
G01*
X13895354Y-14126149D02*
G75*
G03X13895354Y-14126149I-40000J0D01*
G01*
X13895354Y-14888149D02*
G75*
G03X13895354Y-14888149I-40000J0D01*
G01*
X14149354Y-14126149D02*
G75*
G03X14149354Y-14126149I-40000J0D01*
G01*
X14149354Y-14888149D02*
G75*
G03X14149354Y-14888149I-40000J0D01*
G01*
X14403354Y-14126149D02*
G75*
G03X14403354Y-14126149I-40000J0D01*
G01*
X14403354Y-14888149D02*
G75*
G03X14403354Y-14888149I-40000J0D01*
G01*
X14657354Y-14126149D02*
G75*
G03X14657354Y-14126149I-40000J0D01*
G01*
X14657354Y-14888149D02*
G75*
G03X14657354Y-14888149I-40000J0D01*
G01*
X14911354Y-14126149D02*
G75*
G03X14911354Y-14126149I-40000J0D01*
G01*
X14911354Y-14888149D02*
G75*
G03X14911354Y-14888149I-40000J0D01*
G01*
X15165354Y-14126149D02*
G75*
G03X15165354Y-14126149I-40000J0D01*
G01*
X15165354Y-14888149D02*
G75*
G03X15165354Y-14888149I-40000J0D01*
G01*
X15419354Y-14126149D02*
G75*
G03X15419354Y-14126149I-40000J0D01*
G01*
X15419354Y-14888149D02*
G75*
G03X15419354Y-14888149I-40000J0D01*
G01*
X11053725Y-13888617D02*
G75*
G03X11053725Y-13888617I-40000J0D01*
G01*
X11053725Y-14650617D02*
G75*
G03X11053725Y-14650617I-40000J0D01*
G01*
X11307725Y-13888617D02*
G75*
G03X11307725Y-13888617I-40000J0D01*
G01*
X11307725Y-14650617D02*
G75*
G03X11307725Y-14650617I-40000J0D01*
G01*
X11561725Y-13888617D02*
G75*
G03X11561725Y-13888617I-40000J0D01*
G01*
X11561725Y-14650617D02*
G75*
G03X11561725Y-14650617I-40000J0D01*
G01*
X11815725Y-13888617D02*
G75*
G03X11815725Y-13888617I-40000J0D01*
G01*
X11815725Y-14650617D02*
G75*
G03X11815725Y-14650617I-40000J0D01*
G01*
X12069725Y-13888617D02*
G75*
G03X12069725Y-13888617I-40000J0D01*
G01*
X12069725Y-14650617D02*
G75*
G03X12069725Y-14650617I-40000J0D01*
G01*
X12323725Y-13888617D02*
G75*
G03X12323725Y-13888617I-40000J0D01*
G01*
X12323725Y-14650617D02*
G75*
G03X12323725Y-14650617I-40000J0D01*
G01*
X12577725Y-13888617D02*
G75*
G03X12577725Y-13888617I-40000J0D01*
G01*
X12577725Y-14650617D02*
G75*
G03X12577725Y-14650617I-40000J0D01*
G01*
X12831725Y-13888617D02*
G75*
G03X12831725Y-13888617I-40000J0D01*
G01*
X12831725Y-14650617D02*
G75*
G03X12831725Y-14650617I-40000J0D01*
G01*
X14134132Y-12172750D02*
X14134132Y-12262750D01*
X14089132Y-12217750D02*
X14179132Y-12217750D01*
X14134132Y-12426750D02*
X14134132Y-12516750D01*
X14089132Y-12471750D02*
X14179132Y-12471750D01*
X14134132Y-11472750D02*
X14134132Y-11562750D01*
X14089132Y-11517750D02*
X14179132Y-11517750D01*
X14134132Y-11726750D02*
X14134132Y-11816750D01*
X14089132Y-11771750D02*
X14179132Y-11771750D01*
X10634132Y-7972750D02*
X10634132Y-8062750D01*
X10589132Y-8017750D02*
X10679132Y-8017750D01*
X10634132Y-8226750D02*
X10634132Y-8316750D01*
X10589132Y-8271750D02*
X10679132Y-8271750D01*
X13434132Y-10072750D02*
X13434132Y-10162750D01*
X13389132Y-10117750D02*
X13479132Y-10117750D01*
X13434132Y-10326750D02*
X13434132Y-10416750D01*
X13389132Y-10371750D02*
X13479132Y-10371750D01*
X12734132Y-7272750D02*
X12734132Y-7362750D01*
X12689132Y-7317750D02*
X12779132Y-7317750D01*
X12734132Y-7526750D02*
X12734132Y-7616750D01*
X12689132Y-7571750D02*
X12779132Y-7571750D01*
X12034132Y-10072750D02*
X12034132Y-10162750D01*
X11989132Y-10117750D02*
X12079132Y-10117750D01*
X12034132Y-10326750D02*
X12034132Y-10416750D01*
X11989132Y-10371750D02*
X12079132Y-10371750D01*
X11334132Y-8672750D02*
X11334132Y-8762750D01*
X11289132Y-8717750D02*
X11379132Y-8717750D01*
X11334132Y-8926750D02*
X11334132Y-9016750D01*
X11289132Y-8971750D02*
X11379132Y-8971750D01*
X14834132Y-9372750D02*
X14834132Y-9462750D01*
X14789132Y-9417750D02*
X14879132Y-9417750D01*
X14834132Y-9626750D02*
X14834132Y-9716750D01*
X14789132Y-9671750D02*
X14879132Y-9671750D01*
X14834132Y-7972750D02*
X14834132Y-8062750D01*
X14789132Y-8017750D02*
X14879132Y-8017750D01*
X14834132Y-8226750D02*
X14834132Y-8316750D01*
X14789132Y-8271750D02*
X14879132Y-8271750D01*
X12734132Y-11472750D02*
X12734132Y-11562750D01*
X12689132Y-11517750D02*
X12779132Y-11517750D01*
X12734132Y-11726750D02*
X12734132Y-11816750D01*
X12689132Y-11771750D02*
X12779132Y-11771750D01*
X14834132Y-12172750D02*
X14834132Y-12262750D01*
X14789132Y-12217750D02*
X14879132Y-12217750D01*
X14834132Y-12426750D02*
X14834132Y-12516750D01*
X14789132Y-12471750D02*
X14879132Y-12471750D01*
X10634132Y-8672750D02*
X10634132Y-8762750D01*
X10589132Y-8717750D02*
X10679132Y-8717750D01*
X10634132Y-8926750D02*
X10634132Y-9016750D01*
X10589132Y-8971750D02*
X10679132Y-8971750D01*
X15534132Y-8672750D02*
X15534132Y-8762750D01*
X15489132Y-8717750D02*
X15579132Y-8717750D01*
X15534132Y-8926750D02*
X15534132Y-9016750D01*
X15489132Y-8971750D02*
X15579132Y-8971750D01*
X10634132Y-10772750D02*
X10634132Y-10862750D01*
X10589132Y-10817750D02*
X10679132Y-10817750D01*
X10634132Y-11026750D02*
X10634132Y-11116750D01*
X10589132Y-11071750D02*
X10679132Y-11071750D01*
X12734132Y-8672750D02*
X12734132Y-8762750D01*
X12689132Y-8717750D02*
X12779132Y-8717750D01*
X12734132Y-8926750D02*
X12734132Y-9016750D01*
X12689132Y-8971750D02*
X12779132Y-8971750D01*
X11334132Y-11472750D02*
X11334132Y-11562750D01*
X11289132Y-11517750D02*
X11379132Y-11517750D01*
X11334132Y-11726750D02*
X11334132Y-11816750D01*
X11289132Y-11771750D02*
X11379132Y-11771750D01*
X14834132Y-8672750D02*
X14834132Y-8762750D01*
X14789132Y-8717750D02*
X14879132Y-8717750D01*
X14834132Y-8926750D02*
X14834132Y-9016750D01*
X14789132Y-8971750D02*
X14879132Y-8971750D01*
X14134132Y-7972750D02*
X14134132Y-8062750D01*
X14089132Y-8017750D02*
X14179132Y-8017750D01*
X14134132Y-8226750D02*
X14134132Y-8316750D01*
X14089132Y-8271750D02*
X14179132Y-8271750D01*
X13434132Y-10772750D02*
X13434132Y-10862750D01*
X13389132Y-10817750D02*
X13479132Y-10817750D01*
X13434132Y-11026750D02*
X13434132Y-11116750D01*
X13389132Y-11071750D02*
X13479132Y-11071750D01*
X12734132Y-10072750D02*
X12734132Y-10162750D01*
X12689132Y-10117750D02*
X12779132Y-10117750D01*
X12734132Y-10326750D02*
X12734132Y-10416750D01*
X12689132Y-10371750D02*
X12779132Y-10371750D01*
X12734132Y-12172750D02*
X12734132Y-12262750D01*
X12689132Y-12217750D02*
X12779132Y-12217750D01*
X12734132Y-12426750D02*
X12734132Y-12516750D01*
X12689132Y-12471750D02*
X12779132Y-12471750D01*
X15534132Y-10072750D02*
X15534132Y-10162750D01*
X15489132Y-10117750D02*
X15579132Y-10117750D01*
X15534132Y-10326750D02*
X15534132Y-10416750D01*
X15489132Y-10371750D02*
X15579132Y-10371750D01*
X11334132Y-9372750D02*
X11334132Y-9462750D01*
X11289132Y-9417750D02*
X11379132Y-9417750D01*
X11334132Y-9626750D02*
X11334132Y-9716750D01*
X11289132Y-9671750D02*
X11379132Y-9671750D01*
X15534132Y-12172750D02*
X15534132Y-12262750D01*
X15489132Y-12217750D02*
X15579132Y-12217750D01*
X15534132Y-12426750D02*
X15534132Y-12516750D01*
X15489132Y-12471750D02*
X15579132Y-12471750D01*
X11334132Y-7972750D02*
X11334132Y-8062750D01*
X11289132Y-8017750D02*
X11379132Y-8017750D01*
X11334132Y-8226750D02*
X11334132Y-8316750D01*
X11289132Y-8271750D02*
X11379132Y-8271750D01*
X11334132Y-10772750D02*
X11334132Y-10862750D01*
X11289132Y-10817750D02*
X11379132Y-10817750D01*
X11334132Y-11026750D02*
X11334132Y-11116750D01*
X11289132Y-11071750D02*
X11379132Y-11071750D01*
X12034132Y-10772750D02*
X12034132Y-10862750D01*
X11989132Y-10817750D02*
X12079132Y-10817750D01*
X12034132Y-11026750D02*
X12034132Y-11116750D01*
X11989132Y-11071750D02*
X12079132Y-11071750D01*
X13434132Y-11472750D02*
X13434132Y-11562750D01*
X13389132Y-11517750D02*
X13479132Y-11517750D01*
X13434132Y-11726750D02*
X13434132Y-11816750D01*
X13389132Y-11771750D02*
X13479132Y-11771750D01*
X14834132Y-7272750D02*
X14834132Y-7362750D01*
X14789132Y-7317750D02*
X14879132Y-7317750D01*
X14834132Y-7526750D02*
X14834132Y-7616750D01*
X14789132Y-7571750D02*
X14879132Y-7571750D01*
X12734132Y-10772750D02*
X12734132Y-10862750D01*
X12689132Y-10817750D02*
X12779132Y-10817750D01*
X12734132Y-11026750D02*
X12734132Y-11116750D01*
X12689132Y-11071750D02*
X12779132Y-11071750D01*
X13434132Y-8672750D02*
X13434132Y-8762750D01*
X13389132Y-8717750D02*
X13479132Y-8717750D01*
X13434132Y-8926750D02*
X13434132Y-9016750D01*
X13389132Y-8971750D02*
X13479132Y-8971750D01*
X13434132Y-7272750D02*
X13434132Y-7362750D01*
X13389132Y-7317750D02*
X13479132Y-7317750D01*
X13434132Y-7526750D02*
X13434132Y-7616750D01*
X13389132Y-7571750D02*
X13479132Y-7571750D01*
X10634132Y-7272750D02*
X10634132Y-7362750D01*
X10589132Y-7317750D02*
X10679132Y-7317750D01*
X10634132Y-7526750D02*
X10634132Y-7616750D01*
X10589132Y-7571750D02*
X10679132Y-7571750D01*
X12734132Y-9372750D02*
X12734132Y-9462750D01*
X12689132Y-9417750D02*
X12779132Y-9417750D01*
X12734132Y-9626750D02*
X12734132Y-9716750D01*
X12689132Y-9671750D02*
X12779132Y-9671750D01*
X15534132Y-11472750D02*
X15534132Y-11562750D01*
X15489132Y-11517750D02*
X15579132Y-11517750D01*
X15534132Y-11726750D02*
X15534132Y-11816750D01*
X15489132Y-11771750D02*
X15579132Y-11771750D01*
X12734132Y-7972750D02*
X12734132Y-8062750D01*
X12689132Y-8017750D02*
X12779132Y-8017750D01*
X12734132Y-8226750D02*
X12734132Y-8316750D01*
X12689132Y-8271750D02*
X12779132Y-8271750D01*
X15534132Y-7272750D02*
X15534132Y-7362750D01*
X15489132Y-7317750D02*
X15579132Y-7317750D01*
X15534132Y-7526750D02*
X15534132Y-7616750D01*
X15489132Y-7571750D02*
X15579132Y-7571750D01*
X14134132Y-7272750D02*
X14134132Y-7362750D01*
X14089132Y-7317750D02*
X14179132Y-7317750D01*
X14134132Y-7526750D02*
X14134132Y-7616750D01*
X14089132Y-7571750D02*
X14179132Y-7571750D01*
X12034132Y-12172750D02*
X12034132Y-12262750D01*
X11989132Y-12217750D02*
X12079132Y-12217750D01*
X12034132Y-12426750D02*
X12034132Y-12516750D01*
X11989132Y-12471750D02*
X12079132Y-12471750D01*
X13434132Y-7972750D02*
X13434132Y-8062750D01*
X13389132Y-8017750D02*
X13479132Y-8017750D01*
X13434132Y-8226750D02*
X13434132Y-8316750D01*
X13389132Y-8271750D02*
X13479132Y-8271750D01*
X10634132Y-11472750D02*
X10634132Y-11562750D01*
X10589132Y-11517750D02*
X10679132Y-11517750D01*
X10634132Y-11726750D02*
X10634132Y-11816750D01*
X10589132Y-11771750D02*
X10679132Y-11771750D01*
X14834132Y-11472750D02*
X14834132Y-11562750D01*
X14789132Y-11517750D02*
X14879132Y-11517750D01*
X14834132Y-11726750D02*
X14834132Y-11816750D01*
X14789132Y-11771750D02*
X14879132Y-11771750D01*
X10634132Y-9372750D02*
X10634132Y-9462750D01*
X10589132Y-9417750D02*
X10679132Y-9417750D01*
X10634132Y-9626750D02*
X10634132Y-9716750D01*
X10589132Y-9671750D02*
X10679132Y-9671750D01*
X15534132Y-9372750D02*
X15534132Y-9462750D01*
X15489132Y-9417750D02*
X15579132Y-9417750D01*
X15534132Y-9626750D02*
X15534132Y-9716750D01*
X15489132Y-9671750D02*
X15579132Y-9671750D01*
X12034132Y-7972750D02*
X12034132Y-8062750D01*
X11989132Y-8017750D02*
X12079132Y-8017750D01*
X12034132Y-8226750D02*
X12034132Y-8316750D01*
X11989132Y-8271750D02*
X12079132Y-8271750D01*
X15534132Y-7972750D02*
X15534132Y-8062750D01*
X15489132Y-8017750D02*
X15579132Y-8017750D01*
X15534132Y-8226750D02*
X15534132Y-8316750D01*
X15489132Y-8271750D02*
X15579132Y-8271750D01*
X14134132Y-10072750D02*
X14134132Y-10162750D01*
X14089132Y-10117750D02*
X14179132Y-10117750D01*
X14134132Y-10326750D02*
X14134132Y-10416750D01*
X14089132Y-10371750D02*
X14179132Y-10371750D01*
X14134132Y-9372750D02*
X14134132Y-9462750D01*
X14089132Y-9417750D02*
X14179132Y-9417750D01*
X14134132Y-9626750D02*
X14134132Y-9716750D01*
X14089132Y-9671750D02*
X14179132Y-9671750D01*
X12034132Y-7272750D02*
X12034132Y-7362750D01*
X11989132Y-7317750D02*
X12079132Y-7317750D01*
X12034132Y-7526750D02*
X12034132Y-7616750D01*
X11989132Y-7571750D02*
X12079132Y-7571750D01*
X14834132Y-10072750D02*
X14834132Y-10162750D01*
X14789132Y-10117750D02*
X14879132Y-10117750D01*
X14834132Y-10326750D02*
X14834132Y-10416750D01*
X14789132Y-10371750D02*
X14879132Y-10371750D01*
X10634132Y-10072750D02*
X10634132Y-10162750D01*
X10589132Y-10117750D02*
X10679132Y-10117750D01*
X10634132Y-10326750D02*
X10634132Y-10416750D01*
X10589132Y-10371750D02*
X10679132Y-10371750D01*
X11334132Y-10072750D02*
X11334132Y-10162750D01*
X11289132Y-10117750D02*
X11379132Y-10117750D01*
X11334132Y-10326750D02*
X11334132Y-10416750D01*
X11289132Y-10371750D02*
X11379132Y-10371750D01*
X12034132Y-11472750D02*
X12034132Y-11562750D01*
X11989132Y-11517750D02*
X12079132Y-11517750D01*
X12034132Y-11726750D02*
X12034132Y-11816750D01*
X11989132Y-11771750D02*
X12079132Y-11771750D01*
X11334132Y-12172750D02*
X11334132Y-12262750D01*
X11289132Y-12217750D02*
X11379132Y-12217750D01*
X11334132Y-12426750D02*
X11334132Y-12516750D01*
X11289132Y-12471750D02*
X11379132Y-12471750D01*
X14834132Y-10772750D02*
X14834132Y-10862750D01*
X14789132Y-10817750D02*
X14879132Y-10817750D01*
X14834132Y-11026750D02*
X14834132Y-11116750D01*
X14789132Y-11071750D02*
X14879132Y-11071750D01*
X14134132Y-8672750D02*
X14134132Y-8762750D01*
X14089132Y-8717750D02*
X14179132Y-8717750D01*
X14134132Y-8926750D02*
X14134132Y-9016750D01*
X14089132Y-8971750D02*
X14179132Y-8971750D01*
X14134132Y-10772750D02*
X14134132Y-10862750D01*
X14089132Y-10817750D02*
X14179132Y-10817750D01*
X14134132Y-11026750D02*
X14134132Y-11116750D01*
X14089132Y-11071750D02*
X14179132Y-11071750D01*
X12034132Y-8672750D02*
X12034132Y-8762750D01*
X11989132Y-8717750D02*
X12079132Y-8717750D01*
X12034132Y-8926750D02*
X12034132Y-9016750D01*
X11989132Y-8971750D02*
X12079132Y-8971750D01*
X12034132Y-9372750D02*
X12034132Y-9462750D01*
X11989132Y-9417750D02*
X12079132Y-9417750D01*
X12034132Y-9626750D02*
X12034132Y-9716750D01*
X11989132Y-9671750D02*
X12079132Y-9671750D01*
X11334132Y-7272750D02*
X11334132Y-7362750D01*
X11289132Y-7317750D02*
X11379132Y-7317750D01*
X11334132Y-7526750D02*
X11334132Y-7616750D01*
X11289132Y-7571750D02*
X11379132Y-7571750D01*
X13434132Y-9372750D02*
X13434132Y-9462750D01*
X13389132Y-9417750D02*
X13479132Y-9417750D01*
X13434132Y-9626750D02*
X13434132Y-9716750D01*
X13389132Y-9671750D02*
X13479132Y-9671750D01*
X15543369Y-10772750D02*
X15543369Y-10862750D01*
X15498369Y-10817750D02*
X15588369Y-10817750D01*
X15543369Y-11026750D02*
X15543369Y-11116750D01*
X15498369Y-11071750D02*
X15588369Y-11071750D01*
X10634132Y-12172750D02*
X10634132Y-12262750D01*
X10589132Y-12217750D02*
X10679132Y-12217750D01*
X10634132Y-12426750D02*
X10634132Y-12516750D01*
X10589132Y-12471750D02*
X10679132Y-12471750D01*
X13434132Y-12172750D02*
X13434132Y-12262750D01*
X13389132Y-12217750D02*
X13479132Y-12217750D01*
X13434132Y-12426750D02*
X13434132Y-12516750D01*
X13389132Y-12471750D02*
X13479132Y-12471750D01*
X11165081Y-15623972D02*
X11165081Y-15553261D01*
X11094370Y-15553261D01*
X11094370Y-15623972D01*
X11165081Y-15623972D01*
X11419081Y-15623972D02*
X11419081Y-15553261D01*
X11348370Y-15553261D01*
X11348370Y-15623972D01*
X11419081Y-15623972D01*
X11673081Y-15623972D02*
X11673081Y-15553261D01*
X11602370Y-15553261D01*
X11602370Y-15623972D01*
X11673081Y-15623972D01*
X11927081Y-15623972D02*
X11927081Y-15553261D01*
X11856370Y-15553261D01*
X11856370Y-15623972D01*
X11927081Y-15623972D01*
X12181081Y-15623972D02*
X12181081Y-15553261D01*
X12110370Y-15553261D01*
X12110370Y-15623972D01*
X12181081Y-15623972D01*
X12435081Y-15623972D02*
X12435081Y-15553261D01*
X12364370Y-15553261D01*
X12364370Y-15623972D01*
X12435081Y-15623972D01*
X12689081Y-15623972D02*
X12689081Y-15553261D01*
X12618370Y-15553261D01*
X12618370Y-15623972D01*
X12689081Y-15623972D01*
X13466709Y-13423505D02*
X13466709Y-13352793D01*
X13395998Y-13352793D01*
X13395998Y-13423505D01*
X13466709Y-13423505D01*
X13720709Y-13423505D02*
X13720709Y-13352793D01*
X13649998Y-13352793D01*
X13649998Y-13423505D01*
X13720709Y-13423505D01*
X13974709Y-13423505D02*
X13974709Y-13352793D01*
X13903998Y-13352793D01*
X13903998Y-13423505D01*
X13974709Y-13423505D01*
X14228709Y-13423505D02*
X14228709Y-13352793D01*
X14157998Y-13352793D01*
X14157998Y-13423505D01*
X14228709Y-13423505D01*
X14482709Y-13423505D02*
X14482709Y-13352793D01*
X14411998Y-13352793D01*
X14411998Y-13423505D01*
X14482709Y-13423505D01*
X14736709Y-13423505D02*
X14736709Y-13352793D01*
X14665998Y-13352793D01*
X14665998Y-13423505D01*
X14736709Y-13423505D01*
X14990709Y-13423505D02*
X14990709Y-13352793D01*
X14919998Y-13352793D01*
X14919998Y-13423505D01*
X14990709Y-13423505D01*
D12*
X10278928Y-16473214D02*
X10278928Y-16173214D01*
X10350357Y-16173214D01*
X10393214Y-16187500D01*
X10421786Y-16216071D01*
X10436071Y-16244643D01*
X10450357Y-16301786D01*
X10450357Y-16344643D01*
X10436071Y-16401786D01*
X10421786Y-16430357D01*
X10393214Y-16458929D01*
X10350357Y-16473214D01*
X10278928Y-16473214D01*
X10578928Y-16473214D02*
X10578928Y-16273214D01*
X10578928Y-16330357D02*
X10593214Y-16301786D01*
X10607500Y-16287500D01*
X10636071Y-16273214D01*
X10664643Y-16273214D01*
X10764643Y-16473214D02*
X10764643Y-16273214D01*
X10764643Y-16173214D02*
X10750357Y-16187500D01*
X10764643Y-16201786D01*
X10778928Y-16187500D01*
X10764643Y-16173214D01*
X10764643Y-16201786D01*
X10950357Y-16473214D02*
X10921786Y-16458929D01*
X10907500Y-16430357D01*
X10907500Y-16173214D01*
X11107500Y-16473214D02*
X11078928Y-16458929D01*
X11064643Y-16430357D01*
X11064643Y-16173214D01*
X11450357Y-16473214D02*
X11450357Y-16173214D01*
X11550357Y-16387500D01*
X11650357Y-16173214D01*
X11650357Y-16473214D01*
X11921786Y-16473214D02*
X11921786Y-16316071D01*
X11907500Y-16287500D01*
X11878928Y-16273214D01*
X11821786Y-16273214D01*
X11793214Y-16287500D01*
X11921786Y-16458929D02*
X11893214Y-16473214D01*
X11821786Y-16473214D01*
X11793214Y-16458929D01*
X11778928Y-16430357D01*
X11778928Y-16401786D01*
X11793214Y-16373214D01*
X11821786Y-16358929D01*
X11893214Y-16358929D01*
X11921786Y-16344643D01*
X12064643Y-16273214D02*
X12064643Y-16573214D01*
X12064643Y-16287500D02*
X12093214Y-16273214D01*
X12150357Y-16273214D01*
X12178928Y-16287500D01*
X12193214Y-16301786D01*
X12207500Y-16330357D01*
X12207500Y-16416071D01*
X12193214Y-16444643D01*
X12178928Y-16458929D01*
X12150357Y-16473214D01*
X12093214Y-16473214D01*
X12064643Y-16458929D01*
X12336071Y-16444643D02*
X12350357Y-16458929D01*
X12336071Y-16473214D01*
X12321786Y-16458929D01*
X12336071Y-16444643D01*
X12336071Y-16473214D01*
X12336071Y-16287500D02*
X12350357Y-16301786D01*
X12336071Y-16316071D01*
X12321786Y-16301786D01*
X12336071Y-16287500D01*
X12336071Y-16316071D01*
X9952500Y-16947500D02*
X9992500Y-16987500D01*
X9992500Y-16947500D02*
X9952500Y-16987500D01*
X10336071Y-16803214D02*
X10364643Y-16803214D01*
X10393214Y-16817500D01*
X10407500Y-16831786D01*
X10421786Y-16860357D01*
X10436071Y-16917500D01*
X10436071Y-16988929D01*
X10421786Y-17046072D01*
X10407500Y-17074643D01*
X10393214Y-17088929D01*
X10364643Y-17103214D01*
X10336071Y-17103214D01*
X10307500Y-17088929D01*
X10293214Y-17074643D01*
X10278928Y-17046072D01*
X10264643Y-16988929D01*
X10264643Y-16917500D01*
X10278928Y-16860357D01*
X10293214Y-16831786D01*
X10307500Y-16817500D01*
X10336071Y-16803214D01*
X10564643Y-17074643D02*
X10578928Y-17088929D01*
X10564643Y-17103214D01*
X10550357Y-17088929D01*
X10564643Y-17074643D01*
X10564643Y-17103214D01*
X10836071Y-16903214D02*
X10836071Y-17103214D01*
X10764643Y-16788929D02*
X10693214Y-17003214D01*
X10878928Y-17003214D01*
X11050357Y-16803214D02*
X11078928Y-16803214D01*
X11107500Y-16817500D01*
X11121786Y-16831786D01*
X11136071Y-16860357D01*
X11150357Y-16917500D01*
X11150357Y-16988929D01*
X11136071Y-17046072D01*
X11121786Y-17074643D01*
X11107500Y-17088929D01*
X11078928Y-17103214D01*
X11050357Y-17103214D01*
X11021786Y-17088929D01*
X11007500Y-17074643D01*
X10993214Y-17046072D01*
X10978928Y-16988929D01*
X10978928Y-16917500D01*
X10993214Y-16860357D01*
X11007500Y-16831786D01*
X11021786Y-16817500D01*
X11050357Y-16803214D01*
X11278928Y-17103214D02*
X11278928Y-16903214D01*
X11278928Y-16931786D02*
X11293214Y-16917500D01*
X11321786Y-16903214D01*
X11364643Y-16903214D01*
X11393214Y-16917500D01*
X11407500Y-16946072D01*
X11407500Y-17103214D01*
X11407500Y-16946072D02*
X11421786Y-16917500D01*
X11450357Y-16903214D01*
X11493214Y-16903214D01*
X11521786Y-16917500D01*
X11536071Y-16946072D01*
X11536071Y-17103214D01*
X11678928Y-17103214D02*
X11678928Y-16903214D01*
X11678928Y-16931786D02*
X11693214Y-16917500D01*
X11721786Y-16903214D01*
X11764643Y-16903214D01*
X11793214Y-16917500D01*
X11807500Y-16946072D01*
X11807500Y-17103214D01*
X11807500Y-16946072D02*
X11821786Y-16917500D01*
X11850357Y-16903214D01*
X11893214Y-16903214D01*
X11921786Y-16917500D01*
X11936071Y-16946072D01*
X11936071Y-17103214D01*
X12521786Y-16788929D02*
X12264643Y-17174643D01*
X12907500Y-16803214D02*
X12936071Y-16803214D01*
X12964643Y-16817500D01*
X12978928Y-16831786D01*
X12993214Y-16860357D01*
X13007500Y-16917500D01*
X13007500Y-16988929D01*
X12993214Y-17046072D01*
X12978928Y-17074643D01*
X12964643Y-17088929D01*
X12936071Y-17103214D01*
X12907500Y-17103214D01*
X12878928Y-17088929D01*
X12864643Y-17074643D01*
X12850357Y-17046072D01*
X12836071Y-16988929D01*
X12836071Y-16917500D01*
X12850357Y-16860357D01*
X12864643Y-16831786D01*
X12878928Y-16817500D01*
X12907500Y-16803214D01*
X13136071Y-17074643D02*
X13150357Y-17088929D01*
X13136071Y-17103214D01*
X13121786Y-17088929D01*
X13136071Y-17074643D01*
X13136071Y-17103214D01*
X13336071Y-16803214D02*
X13364643Y-16803214D01*
X13393214Y-16817500D01*
X13407500Y-16831786D01*
X13421786Y-16860357D01*
X13436071Y-16917500D01*
X13436071Y-16988929D01*
X13421786Y-17046072D01*
X13407500Y-17074643D01*
X13393214Y-17088929D01*
X13364643Y-17103214D01*
X13336071Y-17103214D01*
X13307500Y-17088929D01*
X13293214Y-17074643D01*
X13278928Y-17046072D01*
X13264643Y-16988929D01*
X13264643Y-16917500D01*
X13278928Y-16860357D01*
X13293214Y-16831786D01*
X13307500Y-16817500D01*
X13336071Y-16803214D01*
X13721786Y-17103214D02*
X13550357Y-17103214D01*
X13636071Y-17103214D02*
X13636071Y-16803214D01*
X13607500Y-16846072D01*
X13578928Y-16874643D01*
X13550357Y-16888929D01*
X13978928Y-16803214D02*
X13921786Y-16803214D01*
X13893214Y-16817500D01*
X13878928Y-16831786D01*
X13850357Y-16874643D01*
X13836071Y-16931786D01*
X13836071Y-17046072D01*
X13850357Y-17074643D01*
X13864643Y-17088929D01*
X13893214Y-17103214D01*
X13950357Y-17103214D01*
X13978928Y-17088929D01*
X13993214Y-17074643D01*
X14007500Y-17046072D01*
X14007500Y-16974643D01*
X13993214Y-16946072D01*
X13978928Y-16931786D01*
X13950357Y-16917500D01*
X13893214Y-16917500D01*
X13864643Y-16931786D01*
X13850357Y-16946072D01*
X13836071Y-16974643D01*
X14121786Y-16803214D02*
X14121786Y-16860357D01*
X14236071Y-16803214D02*
X14236071Y-16860357D01*
X14678928Y-17217500D02*
X14664643Y-17203214D01*
X14636071Y-17160357D01*
X14621786Y-17131786D01*
X14607500Y-17088929D01*
X14593214Y-17017500D01*
X14593214Y-16960357D01*
X14607500Y-16888929D01*
X14621786Y-16846072D01*
X14636071Y-16817500D01*
X14664643Y-16774643D01*
X14678928Y-16760357D01*
X14778928Y-16831786D02*
X14793214Y-16817500D01*
X14821786Y-16803214D01*
X14893214Y-16803214D01*
X14921786Y-16817500D01*
X14936071Y-16831786D01*
X14950357Y-16860357D01*
X14950357Y-16888929D01*
X14936071Y-16931786D01*
X14764643Y-17103214D01*
X14950357Y-17103214D01*
X15307500Y-17103214D02*
X15307500Y-16803214D01*
X15436071Y-17103214D02*
X15436071Y-16946072D01*
X15421786Y-16917500D01*
X15393214Y-16903214D01*
X15350357Y-16903214D01*
X15321786Y-16917500D01*
X15307500Y-16931786D01*
X15621786Y-17103214D02*
X15593214Y-17088929D01*
X15578928Y-17074643D01*
X15564643Y-17046072D01*
X15564643Y-16960357D01*
X15578928Y-16931786D01*
X15593214Y-16917500D01*
X15621786Y-16903214D01*
X15664643Y-16903214D01*
X15693214Y-16917500D01*
X15707500Y-16931786D01*
X15721786Y-16960357D01*
X15721786Y-17046072D01*
X15707500Y-17074643D01*
X15693214Y-17088929D01*
X15664643Y-17103214D01*
X15621786Y-17103214D01*
X15893214Y-17103214D02*
X15864643Y-17088929D01*
X15850357Y-17060357D01*
X15850357Y-16803214D01*
X16121786Y-17088929D02*
X16093214Y-17103214D01*
X16036071Y-17103214D01*
X16007500Y-17088929D01*
X15993214Y-17060357D01*
X15993214Y-16946072D01*
X16007500Y-16917500D01*
X16036071Y-16903214D01*
X16093214Y-16903214D01*
X16121786Y-16917500D01*
X16136071Y-16946072D01*
X16136071Y-16974643D01*
X15993214Y-17003214D01*
X16250357Y-17088929D02*
X16278928Y-17103214D01*
X16336071Y-17103214D01*
X16364643Y-17088929D01*
X16378928Y-17060357D01*
X16378928Y-17046072D01*
X16364643Y-17017500D01*
X16336071Y-17003214D01*
X16293214Y-17003214D01*
X16264643Y-16988929D01*
X16250357Y-16960357D01*
X16250357Y-16946072D01*
X16264643Y-16917500D01*
X16293214Y-16903214D01*
X16336071Y-16903214D01*
X16364643Y-16917500D01*
X16478928Y-17217500D02*
X16493214Y-17203214D01*
X16521786Y-17160357D01*
X16536071Y-17131786D01*
X16550357Y-17088929D01*
X16564643Y-17017500D01*
X16564643Y-16960357D01*
X16550357Y-16888929D01*
X16536071Y-16846072D01*
X16521786Y-16817500D01*
X16493214Y-16774643D01*
X16478928Y-16760357D01*
X9992500Y-17363500D02*
G75*
G03X9992500Y-17363500I-40000J0D01*
G01*
X10336071Y-17199214D02*
X10364643Y-17199214D01*
X10393214Y-17213500D01*
X10407500Y-17227786D01*
X10421786Y-17256357D01*
X10436071Y-17313500D01*
X10436071Y-17384929D01*
X10421786Y-17442072D01*
X10407500Y-17470643D01*
X10393214Y-17484929D01*
X10364643Y-17499214D01*
X10336071Y-17499214D01*
X10307500Y-17484929D01*
X10293214Y-17470643D01*
X10278928Y-17442072D01*
X10264643Y-17384929D01*
X10264643Y-17313500D01*
X10278928Y-17256357D01*
X10293214Y-17227786D01*
X10307500Y-17213500D01*
X10336071Y-17199214D01*
X10564643Y-17470643D02*
X10578928Y-17484929D01*
X10564643Y-17499214D01*
X10550357Y-17484929D01*
X10564643Y-17470643D01*
X10564643Y-17499214D01*
X10750357Y-17327786D02*
X10721786Y-17313500D01*
X10707500Y-17299214D01*
X10693214Y-17270643D01*
X10693214Y-17256357D01*
X10707500Y-17227786D01*
X10721786Y-17213500D01*
X10750357Y-17199214D01*
X10807500Y-17199214D01*
X10836071Y-17213500D01*
X10850357Y-17227786D01*
X10864643Y-17256357D01*
X10864643Y-17270643D01*
X10850357Y-17299214D01*
X10836071Y-17313500D01*
X10807500Y-17327786D01*
X10750357Y-17327786D01*
X10721786Y-17342072D01*
X10707500Y-17356357D01*
X10693214Y-17384929D01*
X10693214Y-17442072D01*
X10707500Y-17470643D01*
X10721786Y-17484929D01*
X10750357Y-17499214D01*
X10807500Y-17499214D01*
X10836071Y-17484929D01*
X10850357Y-17470643D01*
X10864643Y-17442072D01*
X10864643Y-17384929D01*
X10850357Y-17356357D01*
X10836071Y-17342072D01*
X10807500Y-17327786D01*
X11050357Y-17199214D02*
X11078928Y-17199214D01*
X11107500Y-17213500D01*
X11121786Y-17227786D01*
X11136071Y-17256357D01*
X11150357Y-17313500D01*
X11150357Y-17384929D01*
X11136071Y-17442072D01*
X11121786Y-17470643D01*
X11107500Y-17484929D01*
X11078928Y-17499214D01*
X11050357Y-17499214D01*
X11021786Y-17484929D01*
X11007500Y-17470643D01*
X10993214Y-17442072D01*
X10978928Y-17384929D01*
X10978928Y-17313500D01*
X10993214Y-17256357D01*
X11007500Y-17227786D01*
X11021786Y-17213500D01*
X11050357Y-17199214D01*
X11278928Y-17499214D02*
X11278928Y-17299214D01*
X11278928Y-17327786D02*
X11293214Y-17313500D01*
X11321786Y-17299214D01*
X11364643Y-17299214D01*
X11393214Y-17313500D01*
X11407500Y-17342072D01*
X11407500Y-17499214D01*
X11407500Y-17342072D02*
X11421786Y-17313500D01*
X11450357Y-17299214D01*
X11493214Y-17299214D01*
X11521786Y-17313500D01*
X11536071Y-17342072D01*
X11536071Y-17499214D01*
X11678928Y-17499214D02*
X11678928Y-17299214D01*
X11678928Y-17327786D02*
X11693214Y-17313500D01*
X11721786Y-17299214D01*
X11764643Y-17299214D01*
X11793214Y-17313500D01*
X11807500Y-17342072D01*
X11807500Y-17499214D01*
X11807500Y-17342072D02*
X11821786Y-17313500D01*
X11850357Y-17299214D01*
X11893214Y-17299214D01*
X11921786Y-17313500D01*
X11936071Y-17342072D01*
X11936071Y-17499214D01*
X12521786Y-17184929D02*
X12264643Y-17570643D01*
X12907500Y-17199214D02*
X12936071Y-17199214D01*
X12964643Y-17213500D01*
X12978928Y-17227786D01*
X12993214Y-17256357D01*
X13007500Y-17313500D01*
X13007500Y-17384929D01*
X12993214Y-17442072D01*
X12978928Y-17470643D01*
X12964643Y-17484929D01*
X12936071Y-17499214D01*
X12907500Y-17499214D01*
X12878928Y-17484929D01*
X12864643Y-17470643D01*
X12850357Y-17442072D01*
X12836071Y-17384929D01*
X12836071Y-17313500D01*
X12850357Y-17256357D01*
X12864643Y-17227786D01*
X12878928Y-17213500D01*
X12907500Y-17199214D01*
X13136071Y-17470643D02*
X13150357Y-17484929D01*
X13136071Y-17499214D01*
X13121786Y-17484929D01*
X13136071Y-17470643D01*
X13136071Y-17499214D01*
X13336071Y-17199214D02*
X13364643Y-17199214D01*
X13393214Y-17213500D01*
X13407500Y-17227786D01*
X13421786Y-17256357D01*
X13436071Y-17313500D01*
X13436071Y-17384929D01*
X13421786Y-17442072D01*
X13407500Y-17470643D01*
X13393214Y-17484929D01*
X13364643Y-17499214D01*
X13336071Y-17499214D01*
X13307500Y-17484929D01*
X13293214Y-17470643D01*
X13278928Y-17442072D01*
X13264643Y-17384929D01*
X13264643Y-17313500D01*
X13278928Y-17256357D01*
X13293214Y-17227786D01*
X13307500Y-17213500D01*
X13336071Y-17199214D01*
X13536071Y-17199214D02*
X13721786Y-17199214D01*
X13621786Y-17313500D01*
X13664643Y-17313500D01*
X13693214Y-17327786D01*
X13707500Y-17342072D01*
X13721786Y-17370643D01*
X13721786Y-17442072D01*
X13707500Y-17470643D01*
X13693214Y-17484929D01*
X13664643Y-17499214D01*
X13578928Y-17499214D01*
X13550357Y-17484929D01*
X13536071Y-17470643D01*
X14007500Y-17499214D02*
X13836071Y-17499214D01*
X13921786Y-17499214D02*
X13921786Y-17199214D01*
X13893214Y-17242072D01*
X13864643Y-17270643D01*
X13836071Y-17284929D01*
X14121786Y-17199214D02*
X14121786Y-17256357D01*
X14236071Y-17199214D02*
X14236071Y-17256357D01*
X14678928Y-17613500D02*
X14664643Y-17599214D01*
X14636071Y-17556357D01*
X14621786Y-17527786D01*
X14607500Y-17484929D01*
X14593214Y-17413500D01*
X14593214Y-17356357D01*
X14607500Y-17284929D01*
X14621786Y-17242072D01*
X14636071Y-17213500D01*
X14664643Y-17170643D01*
X14678928Y-17156357D01*
X14764643Y-17199214D02*
X14950357Y-17199214D01*
X14850357Y-17313500D01*
X14893214Y-17313500D01*
X14921786Y-17327786D01*
X14936071Y-17342072D01*
X14950357Y-17370643D01*
X14950357Y-17442072D01*
X14936071Y-17470643D01*
X14921786Y-17484929D01*
X14893214Y-17499214D01*
X14807500Y-17499214D01*
X14778928Y-17484929D01*
X14764643Y-17470643D01*
X15064643Y-17227786D02*
X15078928Y-17213500D01*
X15107500Y-17199214D01*
X15178928Y-17199214D01*
X15207500Y-17213500D01*
X15221786Y-17227786D01*
X15236071Y-17256357D01*
X15236071Y-17284929D01*
X15221786Y-17327786D01*
X15050357Y-17499214D01*
X15236071Y-17499214D01*
X15593214Y-17499214D02*
X15593214Y-17199214D01*
X15721786Y-17499214D02*
X15721786Y-17342072D01*
X15707500Y-17313500D01*
X15678928Y-17299214D01*
X15636071Y-17299214D01*
X15607500Y-17313500D01*
X15593214Y-17327786D01*
X15907500Y-17499214D02*
X15878928Y-17484929D01*
X15864643Y-17470643D01*
X15850357Y-17442072D01*
X15850357Y-17356357D01*
X15864643Y-17327786D01*
X15878928Y-17313500D01*
X15907500Y-17299214D01*
X15950357Y-17299214D01*
X15978928Y-17313500D01*
X15993214Y-17327786D01*
X16007500Y-17356357D01*
X16007500Y-17442072D01*
X15993214Y-17470643D01*
X15978928Y-17484929D01*
X15950357Y-17499214D01*
X15907500Y-17499214D01*
X16178928Y-17499214D02*
X16150357Y-17484929D01*
X16136071Y-17456357D01*
X16136071Y-17199214D01*
X16407500Y-17484929D02*
X16378928Y-17499214D01*
X16321786Y-17499214D01*
X16293214Y-17484929D01*
X16278928Y-17456357D01*
X16278928Y-17342072D01*
X16293214Y-17313500D01*
X16321786Y-17299214D01*
X16378928Y-17299214D01*
X16407500Y-17313500D01*
X16421786Y-17342072D01*
X16421786Y-17370643D01*
X16278928Y-17399214D01*
X16536071Y-17484929D02*
X16564643Y-17499214D01*
X16621786Y-17499214D01*
X16650357Y-17484929D01*
X16664643Y-17456357D01*
X16664643Y-17442072D01*
X16650357Y-17413500D01*
X16621786Y-17399214D01*
X16578928Y-17399214D01*
X16550357Y-17384929D01*
X16536071Y-17356357D01*
X16536071Y-17342072D01*
X16550357Y-17313500D01*
X16578928Y-17299214D01*
X16621786Y-17299214D01*
X16650357Y-17313500D01*
X16764643Y-17613500D02*
X16778928Y-17599214D01*
X16807500Y-17556357D01*
X16821786Y-17527786D01*
X16836071Y-17484929D01*
X16850357Y-17413500D01*
X16850357Y-17356357D01*
X16836071Y-17284929D01*
X16821786Y-17242072D01*
X16807500Y-17213500D01*
X16778928Y-17170643D01*
X16764643Y-17156357D01*
X9947500Y-17714500D02*
X9947500Y-17804500D01*
X9902500Y-17759500D02*
X9992500Y-17759500D01*
X10336071Y-17595214D02*
X10364643Y-17595214D01*
X10393214Y-17609500D01*
X10407500Y-17623786D01*
X10421786Y-17652357D01*
X10436071Y-17709500D01*
X10436071Y-17780929D01*
X10421786Y-17838072D01*
X10407500Y-17866643D01*
X10393214Y-17880929D01*
X10364643Y-17895214D01*
X10336071Y-17895214D01*
X10307500Y-17880929D01*
X10293214Y-17866643D01*
X10278928Y-17838072D01*
X10264643Y-17780929D01*
X10264643Y-17709500D01*
X10278928Y-17652357D01*
X10293214Y-17623786D01*
X10307500Y-17609500D01*
X10336071Y-17595214D01*
X10564643Y-17866643D02*
X10578928Y-17880929D01*
X10564643Y-17895214D01*
X10550357Y-17880929D01*
X10564643Y-17866643D01*
X10564643Y-17895214D01*
X10721786Y-17895214D02*
X10778928Y-17895214D01*
X10807500Y-17880929D01*
X10821786Y-17866643D01*
X10850357Y-17823786D01*
X10864643Y-17766643D01*
X10864643Y-17652357D01*
X10850357Y-17623786D01*
X10836071Y-17609500D01*
X10807500Y-17595214D01*
X10750357Y-17595214D01*
X10721786Y-17609500D01*
X10707500Y-17623786D01*
X10693214Y-17652357D01*
X10693214Y-17723786D01*
X10707500Y-17752357D01*
X10721786Y-17766643D01*
X10750357Y-17780929D01*
X10807500Y-17780929D01*
X10836071Y-17766643D01*
X10850357Y-17752357D01*
X10864643Y-17723786D01*
X11050357Y-17595214D02*
X11078928Y-17595214D01*
X11107500Y-17609500D01*
X11121786Y-17623786D01*
X11136071Y-17652357D01*
X11150357Y-17709500D01*
X11150357Y-17780929D01*
X11136071Y-17838072D01*
X11121786Y-17866643D01*
X11107500Y-17880929D01*
X11078928Y-17895214D01*
X11050357Y-17895214D01*
X11021786Y-17880929D01*
X11007500Y-17866643D01*
X10993214Y-17838072D01*
X10978928Y-17780929D01*
X10978928Y-17709500D01*
X10993214Y-17652357D01*
X11007500Y-17623786D01*
X11021786Y-17609500D01*
X11050357Y-17595214D01*
X11278928Y-17895214D02*
X11278928Y-17695214D01*
X11278928Y-17723786D02*
X11293214Y-17709500D01*
X11321786Y-17695214D01*
X11364643Y-17695214D01*
X11393214Y-17709500D01*
X11407500Y-17738072D01*
X11407500Y-17895214D01*
X11407500Y-17738072D02*
X11421786Y-17709500D01*
X11450357Y-17695214D01*
X11493214Y-17695214D01*
X11521786Y-17709500D01*
X11536071Y-17738072D01*
X11536071Y-17895214D01*
X11678928Y-17895214D02*
X11678928Y-17695214D01*
X11678928Y-17723786D02*
X11693214Y-17709500D01*
X11721786Y-17695214D01*
X11764643Y-17695214D01*
X11793214Y-17709500D01*
X11807500Y-17738072D01*
X11807500Y-17895214D01*
X11807500Y-17738072D02*
X11821786Y-17709500D01*
X11850357Y-17695214D01*
X11893214Y-17695214D01*
X11921786Y-17709500D01*
X11936071Y-17738072D01*
X11936071Y-17895214D01*
X12521786Y-17580929D02*
X12264643Y-17966643D01*
X12907500Y-17595214D02*
X12936071Y-17595214D01*
X12964643Y-17609500D01*
X12978928Y-17623786D01*
X12993214Y-17652357D01*
X13007500Y-17709500D01*
X13007500Y-17780929D01*
X12993214Y-17838072D01*
X12978928Y-17866643D01*
X12964643Y-17880929D01*
X12936071Y-17895214D01*
X12907500Y-17895214D01*
X12878928Y-17880929D01*
X12864643Y-17866643D01*
X12850357Y-17838072D01*
X12836071Y-17780929D01*
X12836071Y-17709500D01*
X12850357Y-17652357D01*
X12864643Y-17623786D01*
X12878928Y-17609500D01*
X12907500Y-17595214D01*
X13136071Y-17866643D02*
X13150357Y-17880929D01*
X13136071Y-17895214D01*
X13121786Y-17880929D01*
X13136071Y-17866643D01*
X13136071Y-17895214D01*
X13336071Y-17595214D02*
X13364643Y-17595214D01*
X13393214Y-17609500D01*
X13407500Y-17623786D01*
X13421786Y-17652357D01*
X13436071Y-17709500D01*
X13436071Y-17780929D01*
X13421786Y-17838072D01*
X13407500Y-17866643D01*
X13393214Y-17880929D01*
X13364643Y-17895214D01*
X13336071Y-17895214D01*
X13307500Y-17880929D01*
X13293214Y-17866643D01*
X13278928Y-17838072D01*
X13264643Y-17780929D01*
X13264643Y-17709500D01*
X13278928Y-17652357D01*
X13293214Y-17623786D01*
X13307500Y-17609500D01*
X13336071Y-17595214D01*
X13536071Y-17595214D02*
X13721786Y-17595214D01*
X13621786Y-17709500D01*
X13664643Y-17709500D01*
X13693214Y-17723786D01*
X13707500Y-17738072D01*
X13721786Y-17766643D01*
X13721786Y-17838072D01*
X13707500Y-17866643D01*
X13693214Y-17880929D01*
X13664643Y-17895214D01*
X13578928Y-17895214D01*
X13550357Y-17880929D01*
X13536071Y-17866643D01*
X13993214Y-17595214D02*
X13850357Y-17595214D01*
X13836071Y-17738072D01*
X13850357Y-17723786D01*
X13878928Y-17709500D01*
X13950357Y-17709500D01*
X13978928Y-17723786D01*
X13993214Y-17738072D01*
X14007500Y-17766643D01*
X14007500Y-17838072D01*
X13993214Y-17866643D01*
X13978928Y-17880929D01*
X13950357Y-17895214D01*
X13878928Y-17895214D01*
X13850357Y-17880929D01*
X13836071Y-17866643D01*
X14121786Y-17595214D02*
X14121786Y-17652357D01*
X14236071Y-17595214D02*
X14236071Y-17652357D01*
X14678928Y-18009500D02*
X14664643Y-17995214D01*
X14636071Y-17952357D01*
X14621786Y-17923786D01*
X14607500Y-17880929D01*
X14593214Y-17809500D01*
X14593214Y-17752357D01*
X14607500Y-17680929D01*
X14621786Y-17638072D01*
X14636071Y-17609500D01*
X14664643Y-17566643D01*
X14678928Y-17552357D01*
X14950357Y-17895214D02*
X14778928Y-17895214D01*
X14864643Y-17895214D02*
X14864643Y-17595214D01*
X14836071Y-17638072D01*
X14807500Y-17666643D01*
X14778928Y-17680929D01*
X15064643Y-17623786D02*
X15078928Y-17609500D01*
X15107500Y-17595214D01*
X15178928Y-17595214D01*
X15207500Y-17609500D01*
X15221786Y-17623786D01*
X15236071Y-17652357D01*
X15236071Y-17680929D01*
X15221786Y-17723786D01*
X15050357Y-17895214D01*
X15236071Y-17895214D01*
X15407500Y-17723786D02*
X15378928Y-17709500D01*
X15364643Y-17695214D01*
X15350357Y-17666643D01*
X15350357Y-17652357D01*
X15364643Y-17623786D01*
X15378928Y-17609500D01*
X15407500Y-17595214D01*
X15464643Y-17595214D01*
X15493214Y-17609500D01*
X15507500Y-17623786D01*
X15521786Y-17652357D01*
X15521786Y-17666643D01*
X15507500Y-17695214D01*
X15493214Y-17709500D01*
X15464643Y-17723786D01*
X15407500Y-17723786D01*
X15378928Y-17738072D01*
X15364643Y-17752357D01*
X15350357Y-17780929D01*
X15350357Y-17838072D01*
X15364643Y-17866643D01*
X15378928Y-17880929D01*
X15407500Y-17895214D01*
X15464643Y-17895214D01*
X15493214Y-17880929D01*
X15507500Y-17866643D01*
X15521786Y-17838072D01*
X15521786Y-17780929D01*
X15507500Y-17752357D01*
X15493214Y-17738072D01*
X15464643Y-17723786D01*
X15878928Y-17895214D02*
X15878928Y-17595214D01*
X16007500Y-17895214D02*
X16007500Y-17738072D01*
X15993214Y-17709500D01*
X15964643Y-17695214D01*
X15921786Y-17695214D01*
X15893214Y-17709500D01*
X15878928Y-17723786D01*
X16193214Y-17895214D02*
X16164643Y-17880929D01*
X16150357Y-17866643D01*
X16136071Y-17838072D01*
X16136071Y-17752357D01*
X16150357Y-17723786D01*
X16164643Y-17709500D01*
X16193214Y-17695214D01*
X16236071Y-17695214D01*
X16264643Y-17709500D01*
X16278928Y-17723786D01*
X16293214Y-17752357D01*
X16293214Y-17838072D01*
X16278928Y-17866643D01*
X16264643Y-17880929D01*
X16236071Y-17895214D01*
X16193214Y-17895214D01*
X16464643Y-17895214D02*
X16436071Y-17880929D01*
X16421786Y-17852357D01*
X16421786Y-17595214D01*
X16693214Y-17880929D02*
X16664643Y-17895214D01*
X16607500Y-17895214D01*
X16578928Y-17880929D01*
X16564643Y-17852357D01*
X16564643Y-17738072D01*
X16578928Y-17709500D01*
X16607500Y-17695214D01*
X16664643Y-17695214D01*
X16693214Y-17709500D01*
X16707500Y-17738072D01*
X16707500Y-17766643D01*
X16564643Y-17795214D01*
X16821786Y-17880929D02*
X16850357Y-17895214D01*
X16907500Y-17895214D01*
X16936071Y-17880929D01*
X16950357Y-17852357D01*
X16950357Y-17838072D01*
X16936071Y-17809500D01*
X16907500Y-17795214D01*
X16864643Y-17795214D01*
X16836071Y-17780929D01*
X16821786Y-17752357D01*
X16821786Y-17738072D01*
X16836071Y-17709500D01*
X16864643Y-17695214D01*
X16907500Y-17695214D01*
X16936071Y-17709500D01*
X17050357Y-18009500D02*
X17064643Y-17995214D01*
X17093214Y-17952357D01*
X17107500Y-17923786D01*
X17121786Y-17880929D01*
X17136071Y-17809500D01*
X17136071Y-17752357D01*
X17121786Y-17680929D01*
X17107500Y-17638072D01*
X17093214Y-17609500D01*
X17064643Y-17566643D01*
X17050357Y-17552357D01*
X9977856Y-18190856D02*
X9977856Y-18120144D01*
X9907144Y-18120144D01*
X9907144Y-18190856D01*
X9977856Y-18190856D01*
X10436071Y-18291214D02*
X10264643Y-18291214D01*
X10350357Y-18291214D02*
X10350357Y-17991214D01*
X10321786Y-18034072D01*
X10293214Y-18062643D01*
X10264643Y-18076929D01*
X10564643Y-18262643D02*
X10578928Y-18276929D01*
X10564643Y-18291214D01*
X10550357Y-18276929D01*
X10564643Y-18262643D01*
X10564643Y-18291214D01*
X10764643Y-17991214D02*
X10793214Y-17991214D01*
X10821786Y-18005500D01*
X10836071Y-18019786D01*
X10850357Y-18048357D01*
X10864643Y-18105500D01*
X10864643Y-18176929D01*
X10850357Y-18234072D01*
X10836071Y-18262643D01*
X10821786Y-18276929D01*
X10793214Y-18291214D01*
X10764643Y-18291214D01*
X10736071Y-18276929D01*
X10721786Y-18262643D01*
X10707500Y-18234072D01*
X10693214Y-18176929D01*
X10693214Y-18105500D01*
X10707500Y-18048357D01*
X10721786Y-18019786D01*
X10736071Y-18005500D01*
X10764643Y-17991214D01*
X11050357Y-17991214D02*
X11078928Y-17991214D01*
X11107500Y-18005500D01*
X11121786Y-18019786D01*
X11136071Y-18048357D01*
X11150357Y-18105500D01*
X11150357Y-18176929D01*
X11136071Y-18234072D01*
X11121786Y-18262643D01*
X11107500Y-18276929D01*
X11078928Y-18291214D01*
X11050357Y-18291214D01*
X11021786Y-18276929D01*
X11007500Y-18262643D01*
X10993214Y-18234072D01*
X10978928Y-18176929D01*
X10978928Y-18105500D01*
X10993214Y-18048357D01*
X11007500Y-18019786D01*
X11021786Y-18005500D01*
X11050357Y-17991214D01*
X11278928Y-18291214D02*
X11278928Y-18091214D01*
X11278928Y-18119786D02*
X11293214Y-18105500D01*
X11321786Y-18091214D01*
X11364643Y-18091214D01*
X11393214Y-18105500D01*
X11407500Y-18134072D01*
X11407500Y-18291214D01*
X11407500Y-18134072D02*
X11421786Y-18105500D01*
X11450357Y-18091214D01*
X11493214Y-18091214D01*
X11521786Y-18105500D01*
X11536071Y-18134072D01*
X11536071Y-18291214D01*
X11678928Y-18291214D02*
X11678928Y-18091214D01*
X11678928Y-18119786D02*
X11693214Y-18105500D01*
X11721786Y-18091214D01*
X11764643Y-18091214D01*
X11793214Y-18105500D01*
X11807500Y-18134072D01*
X11807500Y-18291214D01*
X11807500Y-18134072D02*
X11821786Y-18105500D01*
X11850357Y-18091214D01*
X11893214Y-18091214D01*
X11921786Y-18105500D01*
X11936071Y-18134072D01*
X11936071Y-18291214D01*
X12521786Y-17976929D02*
X12264643Y-18362643D01*
X12907500Y-17991214D02*
X12936071Y-17991214D01*
X12964643Y-18005500D01*
X12978928Y-18019786D01*
X12993214Y-18048357D01*
X13007500Y-18105500D01*
X13007500Y-18176929D01*
X12993214Y-18234072D01*
X12978928Y-18262643D01*
X12964643Y-18276929D01*
X12936071Y-18291214D01*
X12907500Y-18291214D01*
X12878928Y-18276929D01*
X12864643Y-18262643D01*
X12850357Y-18234072D01*
X12836071Y-18176929D01*
X12836071Y-18105500D01*
X12850357Y-18048357D01*
X12864643Y-18019786D01*
X12878928Y-18005500D01*
X12907500Y-17991214D01*
X13136071Y-18262643D02*
X13150357Y-18276929D01*
X13136071Y-18291214D01*
X13121786Y-18276929D01*
X13136071Y-18262643D01*
X13136071Y-18291214D01*
X13336071Y-17991214D02*
X13364643Y-17991214D01*
X13393214Y-18005500D01*
X13407500Y-18019786D01*
X13421786Y-18048357D01*
X13436071Y-18105500D01*
X13436071Y-18176929D01*
X13421786Y-18234072D01*
X13407500Y-18262643D01*
X13393214Y-18276929D01*
X13364643Y-18291214D01*
X13336071Y-18291214D01*
X13307500Y-18276929D01*
X13293214Y-18262643D01*
X13278928Y-18234072D01*
X13264643Y-18176929D01*
X13264643Y-18105500D01*
X13278928Y-18048357D01*
X13293214Y-18019786D01*
X13307500Y-18005500D01*
X13336071Y-17991214D01*
X13536071Y-17991214D02*
X13721786Y-17991214D01*
X13621786Y-18105500D01*
X13664643Y-18105500D01*
X13693214Y-18119786D01*
X13707500Y-18134072D01*
X13721786Y-18162643D01*
X13721786Y-18234072D01*
X13707500Y-18262643D01*
X13693214Y-18276929D01*
X13664643Y-18291214D01*
X13578928Y-18291214D01*
X13550357Y-18276929D01*
X13536071Y-18262643D01*
X13864643Y-18291214D02*
X13921786Y-18291214D01*
X13950357Y-18276929D01*
X13964643Y-18262643D01*
X13993214Y-18219786D01*
X14007500Y-18162643D01*
X14007500Y-18048357D01*
X13993214Y-18019786D01*
X13978928Y-18005500D01*
X13950357Y-17991214D01*
X13893214Y-17991214D01*
X13864643Y-18005500D01*
X13850357Y-18019786D01*
X13836071Y-18048357D01*
X13836071Y-18119786D01*
X13850357Y-18148357D01*
X13864643Y-18162643D01*
X13893214Y-18176929D01*
X13950357Y-18176929D01*
X13978928Y-18162643D01*
X13993214Y-18148357D01*
X14007500Y-18119786D01*
X14121786Y-17991214D02*
X14121786Y-18048357D01*
X14236071Y-17991214D02*
X14236071Y-18048357D01*
X14678928Y-18405500D02*
X14664643Y-18391214D01*
X14636071Y-18348357D01*
X14621786Y-18319786D01*
X14607500Y-18276929D01*
X14593214Y-18205500D01*
X14593214Y-18148357D01*
X14607500Y-18076929D01*
X14621786Y-18034072D01*
X14636071Y-18005500D01*
X14664643Y-17962643D01*
X14678928Y-17948357D01*
X14950357Y-18291214D02*
X14778928Y-18291214D01*
X14864643Y-18291214D02*
X14864643Y-17991214D01*
X14836071Y-18034072D01*
X14807500Y-18062643D01*
X14778928Y-18076929D01*
X15207500Y-18091214D02*
X15207500Y-18291214D01*
X15136071Y-17976929D02*
X15064643Y-18191214D01*
X15250357Y-18191214D01*
X15593214Y-18291214D02*
X15593214Y-17991214D01*
X15721786Y-18291214D02*
X15721786Y-18134072D01*
X15707500Y-18105500D01*
X15678928Y-18091214D01*
X15636071Y-18091214D01*
X15607500Y-18105500D01*
X15593214Y-18119786D01*
X15907500Y-18291214D02*
X15878928Y-18276929D01*
X15864643Y-18262643D01*
X15850357Y-18234072D01*
X15850357Y-18148357D01*
X15864643Y-18119786D01*
X15878928Y-18105500D01*
X15907500Y-18091214D01*
X15950357Y-18091214D01*
X15978928Y-18105500D01*
X15993214Y-18119786D01*
X16007500Y-18148357D01*
X16007500Y-18234072D01*
X15993214Y-18262643D01*
X15978928Y-18276929D01*
X15950357Y-18291214D01*
X15907500Y-18291214D01*
X16178928Y-18291214D02*
X16150357Y-18276929D01*
X16136071Y-18248357D01*
X16136071Y-17991214D01*
X16407500Y-18276929D02*
X16378928Y-18291214D01*
X16321786Y-18291214D01*
X16293214Y-18276929D01*
X16278928Y-18248357D01*
X16278928Y-18134072D01*
X16293214Y-18105500D01*
X16321786Y-18091214D01*
X16378928Y-18091214D01*
X16407500Y-18105500D01*
X16421786Y-18134072D01*
X16421786Y-18162643D01*
X16278928Y-18191214D01*
X16536071Y-18276929D02*
X16564643Y-18291214D01*
X16621786Y-18291214D01*
X16650357Y-18276929D01*
X16664643Y-18248357D01*
X16664643Y-18234072D01*
X16650357Y-18205500D01*
X16621786Y-18191214D01*
X16578928Y-18191214D01*
X16550357Y-18176929D01*
X16536071Y-18148357D01*
X16536071Y-18134072D01*
X16550357Y-18105500D01*
X16578928Y-18091214D01*
X16621786Y-18091214D01*
X16650357Y-18105500D01*
X16764643Y-18405500D02*
X16778928Y-18391214D01*
X16807500Y-18348357D01*
X16821786Y-18319786D01*
X16836071Y-18276929D01*
X16850357Y-18205500D01*
X16850357Y-18148357D01*
X16836071Y-18076929D01*
X16821786Y-18034072D01*
X16807500Y-18005500D01*
X16778928Y-17962643D01*
X16764643Y-17948357D01*
M02*
